<svg width="207" height="251" viewBox="0 0 207 251" fill="none" xmlns="http://www.w3.org/2000/svg">
<g filter="url(#filter0_d_768_2597)">
<mask id="mask0_768_2597" style="mask-type:luminance" maskUnits="userSpaceOnUse" x="22" y="70" width="173" height="173">
<path d="M22.6143 70.2861H194.614V242.953H22.6143V70.2861Z" fill="white"/>
</mask>
<g mask="url(#mask0_768_2597)">
<path d="M108.635 242.942C97.0101 242.942 85.7445 240.666 75.1663 236.187C64.9424 231.864 55.7236 225.666 47.8278 217.786C39.932 209.906 33.7184 200.75 29.3903 190.51C24.9007 179.911 22.6143 168.708 22.6143 157.109C22.6143 156.989 22.6143 156.87 22.6143 156.75C22.6559 142.474 26.3434 128.354 33.1559 115.916C40.4528 102.635 51.1559 91.5154 64.1403 83.6768C77.5674 75.5987 92.9216 71.3591 108.635 71.3591C140.182 71.3591 169.161 88.557 184.234 116.234C191.047 128.713 194.614 142.875 194.614 157.151C194.614 168.75 192.328 179.948 187.838 190.547C183.51 200.75 177.297 209.948 169.401 217.828C161.505 225.708 152.328 231.906 142.062 236.224C131.484 240.666 120.26 242.942 108.635 242.942ZM108.635 77.7602C79.5726 77.7602 52.8382 93.557 38.8486 118.995C32.5153 130.515 29.1455 143.594 29.0674 156.791V156.833C29.0674 156.911 29.0674 157.031 29.0674 157.109C29.0674 200.87 64.7445 236.505 108.635 236.505C152.484 236.505 188.203 200.906 188.203 157.109C188.203 143.875 184.875 130.791 178.578 119.276C164.63 93.6768 137.817 77.7602 108.635 77.7602Z" fill="black"/>
</g>
<path d="M143.145 80.5986C143.145 99.5986 127.713 115.036 108.635 115.036C89.5931 115.036 74.1191 99.6351 74.1191 80.5986C74.1191 80.557 74.1191 80.5205 74.1191 80.4372C74.1608 74.4788 75.6868 68.9215 78.3691 64.0413C84.2233 53.4007 95.5671 46.1611 108.635 46.1611C121.739 46.1611 133.124 53.4424 138.979 64.1611C141.624 69.0413 143.145 74.6403 143.145 80.5986Z" fill="#16A637"/>
<mask id="mask1_768_2597" style="mask-type:luminance" maskUnits="userSpaceOnUse" x="70" y="42" width="77" height="77">
<path d="M70.4316 42.9526H146.432V118.286H70.4316V42.9526Z" fill="white"/>
</mask>
<g mask="url(#mask1_768_2597)">
<path d="M108.635 118.234C98.5723 118.234 89.0723 114.317 81.9785 107.198C74.8431 100.078 70.916 90.635 70.916 80.5986C70.916 80.5569 70.916 80.4788 70.916 80.4371C70.9525 74.1611 72.5566 67.9579 75.5618 62.5204C82.1764 50.4423 94.8431 42.9631 108.635 42.9631C122.463 42.9631 135.171 50.5204 141.781 62.6402C144.749 68.1194 146.354 74.3173 146.354 80.5986C146.354 90.635 142.426 100.114 135.291 107.198C128.192 114.317 118.692 118.234 108.635 118.234ZM108.635 49.359C97.2077 49.359 86.7077 55.5621 81.1764 65.5986C78.6921 70.1194 77.3691 75.2808 77.3275 80.4788V80.5986C77.3275 97.7965 91.3587 111.833 108.635 111.833C125.911 111.833 139.937 97.8381 139.937 80.5986C139.937 75.4006 138.614 70.2392 136.171 65.7183C130.64 55.6402 120.098 49.359 108.635 49.359Z" fill="black"/>
</g>
<path d="M105.103 95.7546L88.5928 79.2389L93.1188 74.7181L105.103 86.6764L124.145 67.6816L128.676 72.2389L105.103 95.7546Z" fill="white"/>
<path d="M138.656 184.348C131.604 176.031 120.937 164.109 109.557 156.51C108.27 157.072 106.911 157.473 105.588 157.671L105.426 157.713C104.145 160.27 102.14 163.312 99.3744 165.27C97.4889 166.588 95.2858 167.27 92.8379 167.27C90.3171 167.27 87.9889 166.551 86.5098 165.911C85.4629 165.468 84.6243 164.63 84.2233 163.551C83.8223 162.473 83.8639 161.27 84.3431 160.27L90.5566 147.114C91.1556 145.874 92.1191 144.833 93.3639 144.15L102.619 138.994L97.291 136.551C96.3275 136.114 95.166 136.072 94.1608 136.473C88.2702 138.833 80.3327 140.114 76.8483 140.593C76.5671 141.031 76.2077 141.395 75.765 141.713C71.1556 144.952 62.7754 153.671 58.0879 175.791L61.2546 177.708L62.1348 178.228C62.4577 177.869 62.7754 177.468 63.0983 176.989L63.1764 176.911C63.9004 175.989 65.4212 174.39 67.3848 174.15L67.9473 174.072L68.2702 174.031C68.39 174.031 68.5879 174.031 68.7493 174.031C68.9108 174.031 69.0306 174.031 69.1921 174.031C69.7129 174.072 70.1504 174.15 70.6348 174.312C71.1556 174.468 71.5983 174.671 72.0358 174.947L73.3587 175.791C74.4004 176.39 75.2441 177.312 75.765 178.348C76.2858 177.791 76.765 177.228 77.2493 176.63C77.89 175.791 79.7754 174.072 82.0566 174.072H82.8587C83.1816 174.072 83.4993 174.109 83.8223 174.192C84.3014 174.312 84.7441 174.432 85.1868 174.63C85.6243 174.827 86.0671 175.067 86.4264 175.348L87.7493 176.27L87.8275 176.312C89.1504 177.312 90.0358 178.749 90.3171 180.27C90.7181 180.15 91.1191 180.109 91.5566 180.109H91.7598L92.3587 180.15H92.5983C92.9212 180.187 93.2389 180.228 93.5619 180.307C94.041 180.432 94.4837 180.588 94.8848 180.791C95.3275 181.031 95.7285 181.27 96.0879 181.551L97.4889 182.551L97.5723 182.63C99.0514 183.869 99.9369 185.708 99.9369 187.546V188.307L100.494 188.39C100.817 188.426 101.14 188.51 101.416 188.63C101.9 188.791 102.301 188.989 102.739 189.187C103.223 189.468 103.624 189.749 103.984 190.109L105.265 191.426C106.671 192.749 107.39 194.63 107.192 196.468L107.072 197.666C106.989 198.63 106.671 199.468 106.15 200.228C105.989 200.468 105.786 200.708 105.588 200.947C104.827 201.708 104.223 202.307 103.702 202.786C103.385 203.109 103.062 203.426 102.781 203.708L103.583 204.228L107.63 205.906C107.63 205.906 109.473 206.546 111.041 206.947C112.161 207.265 113.364 207.025 114.286 206.348L115.166 205.265C115.609 204.546 115.968 203.426 115.166 202.906C111.161 200.265 109.197 198.426 107.473 196.708C107.473 196.708 107.63 194.786 109.275 196.109C110.916 197.426 109.593 197.51 113.562 199.869C115.447 200.906 117.374 201.906 119.176 202.749C120.26 203.265 121.583 203.145 122.541 202.426L124.145 200.827C124.869 199.749 124.749 198.27 123.864 197.588C119.536 194.39 118.973 193.906 115.89 190.911C115.89 190.911 116.208 188.666 118.171 190.27C120.098 191.827 118.572 191.989 123.182 194.749C124.546 195.51 125.947 196.145 127.671 196.827C128.635 197.228 129.718 197.109 130.562 196.51L132.364 194.546C133.046 193.51 132.244 191.708 131.682 191.109C131.484 190.911 131.442 190.786 130.88 190.307C126.593 186.749 121.9 182.51 119.374 179.51C119.374 179.51 119.859 177.27 121.942 179.27C123.827 181.067 122.421 181.15 126.192 183.989C128.395 185.546 130.718 187.15 133.005 188.588C134.124 189.307 135.572 189.27 136.65 188.546L138.895 186.426C139.176 186.228 139.296 185.791 139.338 185.27L138.656 184.348Z" fill="white"/>
<path d="M47.3063 165.031C45.4209 165.031 43.9365 166.552 43.9365 168.39C43.9365 170.27 45.4626 171.75 47.3063 171.75C49.1865 171.75 50.6709 170.229 50.6709 168.39C50.7126 166.51 49.1865 165.031 47.3063 165.031Z" fill="black"/>
<path d="M54.8434 175.51C59.6924 152.114 68.7497 142.671 73.8799 139.072C74.5622 138.593 74.484 137.593 73.7184 137.234L58.0882 129.994C56.9268 129.432 55.5205 129.755 54.682 130.755C43.458 143.953 38.0049 156.474 38.0049 168.989C38.0049 169.953 38.4893 170.828 39.2497 171.39L51.1924 179.552C51.9528 180.067 52.958 180.109 53.7601 179.552C54.359 179.151 54.7184 178.432 54.7601 177.671L54.8434 175.588V175.51ZM47.307 171.75C45.4216 171.75 43.9372 170.229 43.9372 168.39C43.9372 166.51 45.4632 165.031 47.307 165.031C49.1872 165.031 50.6715 166.552 50.6715 168.39C50.7132 170.229 49.1872 171.75 47.307 171.75Z" fill="#16A637"/>
<path d="M141.379 141.671C141.14 141.515 140.942 141.354 140.739 141.151C132.244 142.875 117.973 139.875 111.921 138.432C111.041 138.234 110.119 138.354 109.317 138.791L94.8065 146.875C94.1607 147.234 93.6398 147.791 93.3221 148.432L87.1086 161.593C86.9888 161.833 86.9888 162.151 87.0669 162.39C87.1502 162.63 87.3482 162.833 87.6294 162.953C89.8742 163.869 94.1242 165.031 97.4888 162.63C100.135 160.75 101.978 157.552 103.062 155.151L103.181 154.911C104.025 153.151 104.744 151.234 105.306 149.27C105.348 150.994 105.306 152.75 105.067 154.51C106.03 154.354 107.551 153.989 109.275 153.114L109.556 152.953C111.681 151.791 113.645 150.432 115.327 148.671C114.244 150.552 112.801 152.27 111.197 153.833C122.864 161.63 133.728 173.708 140.942 182.27C141.103 182.468 141.26 182.671 141.463 182.869H141.583C149.838 180.63 155.692 176.552 158.619 174.151C154.01 153.192 145.869 144.833 141.379 141.671Z" fill="#16A637"/>
<path d="M169.76 165.031C167.88 165.031 166.396 166.552 166.396 168.39C166.396 170.27 167.916 171.75 169.76 171.75C171.646 171.75 173.13 170.229 173.13 168.39C173.166 166.51 171.646 165.031 169.76 165.031Z" fill="black"/>
<path d="M164.832 128.713C163.671 127.354 161.983 126.593 160.223 126.593C159.338 126.593 158.499 126.797 157.697 127.156L142.062 134.396C140.702 135.031 139.78 136.354 139.619 137.833C139.619 137.953 139.619 138.031 139.619 138.114C138.254 138.354 136.614 138.474 134.77 138.474C126.749 138.474 116.692 136.276 112.723 135.354C112.202 135.234 111.681 135.156 111.16 135.156C109.994 135.156 108.874 135.432 107.832 136.031L106.03 137.031L98.6136 133.593C97.6917 133.156 96.6865 132.953 95.6449 132.953C94.723 132.953 93.8011 133.114 92.9626 133.474C87.9105 135.515 81.1761 136.713 77.4469 137.234C77.1657 135.994 76.2855 134.911 75.124 134.354L59.4886 127.114C58.6865 126.755 57.848 126.552 56.9626 126.552C55.2021 126.552 53.5199 127.312 52.3532 128.672C40.6084 142.474 34.9209 155.63 34.9209 168.953C34.9209 170.953 35.8792 172.828 37.5251 173.948L49.4313 182.109C50.3532 182.75 51.3949 183.067 52.5146 183.067C53.598 183.067 54.6396 182.75 55.5615 182.151C56.6449 181.432 57.4053 180.349 57.7646 179.109L59.6501 180.229L60.0928 180.51C59.6501 181.109 59.1709 181.75 58.6865 182.63C57.6865 184.468 58.0459 188.427 60.3324 189.911L63.0563 191.708C63.3376 191.869 63.6188 192.031 63.8584 192.187C64.098 193.307 64.6188 194.349 65.5042 195.067L68.5094 197.588C69.7542 198.588 71.3167 199.146 72.9574 199.146C73.0771 199.146 73.1605 199.146 73.2803 199.146C73.5199 199.588 73.8428 199.989 74.2021 200.307L77.0876 202.948C78.3688 204.067 80.0511 204.666 81.8584 204.666C82.4574 204.666 83.0615 204.588 83.6188 204.505C83.6605 204.547 86.4261 207.385 86.4261 207.385C87.7907 208.744 89.6344 209.468 91.7178 209.468C94.2438 209.468 96.4469 208.385 96.6865 208.265L96.9261 208.109C98.4105 207.146 99.4157 206.427 100.338 205.708L102.098 206.828L106.468 208.625L106.588 208.666C106.671 208.708 108.551 209.349 110.197 209.786C110.796 209.948 111.4 210.026 111.999 210.026C113.483 210.026 114.968 209.547 116.171 208.666L116.572 208.349L118.051 206.229L118.134 206.109C118.254 205.906 118.332 205.708 118.452 205.547C119.176 205.786 119.895 205.948 120.66 205.948C122.062 205.948 123.384 205.505 124.504 204.708L124.749 204.547L127.114 202.109L127.27 201.906C127.671 201.307 127.952 200.63 128.155 199.948C128.437 199.989 128.718 199.989 128.994 199.989C130.317 199.989 131.562 199.588 132.603 198.786L132.843 198.63L135.369 195.906L135.53 195.666C136.291 194.51 136.41 193.187 136.213 191.906C137.051 191.75 137.817 191.39 138.535 190.911L138.739 190.75L141.062 188.547C141.905 187.869 142.343 186.911 142.504 185.911L142.702 185.869C150.239 183.828 155.973 180.271 159.379 177.708V177.791C159.457 179.588 160.379 181.187 161.785 182.151C162.707 182.75 163.749 183.067 164.832 183.067C165.91 183.067 166.994 182.75 167.916 182.109L179.864 173.948C181.504 172.828 182.468 170.953 182.468 168.953C182.27 155.713 176.577 142.515 164.832 128.713ZM54.7178 177.75C54.6813 178.468 54.3219 179.187 53.7178 179.63C52.9157 180.151 51.9157 180.151 51.1553 179.63L39.2074 171.468C38.4053 170.953 37.9678 170.031 37.9678 169.073C37.9678 156.552 43.4574 144.031 54.6396 130.833C55.4834 129.833 56.8844 129.552 58.0459 130.073L73.6813 137.312C74.4417 137.672 74.5199 138.672 73.8428 139.151C68.7074 142.755 59.6501 152.192 54.8011 175.588L54.7594 175.75L54.7178 177.75ZM95.2074 205.505C95.2074 205.505 91.0355 207.625 88.6292 205.229L85.9053 202.427C85.5042 202.067 85.4261 201.187 85.5459 200.51C84.8636 200.906 81.4574 202.63 79.1709 200.63L76.2855 198.026C75.6449 197.51 75.6449 195.869 75.9626 195.307C74.6813 195.948 72.3167 196.75 70.473 195.271L67.4678 192.75C66.7855 192.229 66.7074 190.468 67.0667 189.948C66.3844 189.948 65.5824 189.786 64.7021 189.229L61.973 187.427C61.2542 186.989 61.0928 184.869 61.374 184.307C62.7751 181.911 63.9417 181.229 65.624 178.869C66.1032 178.229 66.9834 177.39 67.749 177.271L68.3063 177.192C68.348 177.192 68.3896 177.192 68.4313 177.192C68.5876 177.192 68.749 177.192 68.9105 177.192C69.1501 177.229 69.3896 177.271 69.6292 177.349C69.874 177.432 70.1136 177.51 70.3115 177.672L71.6344 178.468C72.4782 178.989 73.0771 179.828 73.2386 180.708L73.4417 181.948C73.5199 182.39 73.4782 182.75 73.3584 183.151C73.3167 183.271 73.2803 183.39 73.1969 183.51C72.5199 184.672 72.1188 185.468 71.7542 186.109C74.4834 183.948 77.249 181.672 79.6917 178.63C80.1344 178.031 81.2178 177.271 82.0199 177.229H82.5771C82.6188 177.229 82.6605 177.229 82.6969 177.229C82.8584 177.229 83.0199 177.271 83.1813 177.271C83.4209 177.312 83.6605 177.39 83.9001 177.51C84.1397 177.63 84.3428 177.75 84.5407 177.911L85.8636 178.828C86.6657 179.432 87.1501 180.307 87.1865 181.229L87.2282 182.427C87.2282 182.828 87.1501 183.229 86.9886 183.588C86.9469 183.708 86.8688 183.828 86.7855 183.911C83.9834 187.547 81.1761 190.786 78.4105 193.427C81.9782 190.828 85.7438 188.349 89.1136 184.547C89.5928 183.989 90.7178 183.271 91.5199 183.271L92.0772 183.307C92.1188 183.307 92.1605 183.307 92.1969 183.307C92.3584 183.307 92.5199 183.349 92.6813 183.39C92.9209 183.427 93.1605 183.552 93.4001 183.672C93.6397 183.791 93.8428 183.911 94.0407 184.067L95.4469 185.067C96.2074 185.708 96.6501 186.588 96.6501 187.51V188.708C96.6501 189.109 96.5303 189.51 96.3688 189.828C96.2855 189.948 96.249 190.067 96.1657 190.151C93.5615 193.229 90.9574 195.948 88.3532 198.271C91.4782 196.427 93.8428 194.906 96.6865 192.468C97.2074 191.948 98.4105 191.307 99.2126 191.39L99.7751 191.468C99.8167 191.468 99.8532 191.468 99.8949 191.468C100.056 191.51 100.218 191.547 100.374 191.588C100.619 191.666 100.858 191.786 101.056 191.906C101.259 192.031 101.457 192.187 101.66 192.349L102.9 193.63C103.624 194.307 103.983 195.229 103.905 196.109L103.785 197.307C103.744 197.708 103.624 198.067 103.421 198.39C103.343 198.51 103.259 198.588 103.181 198.666C99.3324 202.427 98.8949 203.146 95.2074 205.505ZM138.817 186.229L136.572 188.349C135.489 189.109 134.046 189.109 132.926 188.39C130.64 186.911 128.317 185.349 126.108 183.791C122.343 180.911 123.744 180.869 121.858 179.067C119.775 177.067 119.296 179.312 119.296 179.312C121.858 182.307 126.509 186.547 130.801 190.109C131.358 190.588 131.4 190.666 131.603 190.911C132.16 191.51 132.963 193.307 132.28 194.349L130.478 196.307C129.64 196.906 128.556 197.026 127.593 196.63C125.869 195.948 124.468 195.307 123.103 194.547C118.494 191.786 120.015 191.666 118.093 190.067C116.129 188.468 115.806 190.708 115.806 190.708C118.895 193.708 119.457 194.187 123.785 197.39C124.666 198.026 124.785 199.547 124.067 200.63L122.463 202.229C121.499 202.948 120.176 203.067 119.093 202.547C117.291 201.666 115.369 200.708 113.483 199.666C109.515 197.307 110.838 197.271 109.192 195.906C107.509 194.547 107.39 196.51 107.39 196.51C109.114 198.229 111.077 200.067 115.088 202.708C115.89 203.229 115.489 204.385 115.088 205.067L114.244 206.146C113.322 206.828 112.119 207.067 110.999 206.75C109.473 206.349 107.593 205.708 107.593 205.708L103.541 204.026L102.739 203.51C103.02 203.229 103.343 202.906 103.66 202.588C104.181 202.067 104.785 201.51 105.546 200.75C105.749 200.547 105.947 200.307 106.108 200.026C106.629 199.265 106.91 198.427 107.03 197.468L107.15 196.271C107.312 194.468 106.588 192.588 105.228 191.229L103.942 189.911C103.582 189.547 103.181 189.271 102.702 188.989C102.301 188.75 101.858 188.547 101.379 188.427C101.056 188.349 100.775 188.271 100.457 188.187L99.8949 188.109V187.349C99.9365 185.51 99.0511 183.672 97.5303 182.427L97.4522 182.349L96.0459 181.349C95.6865 181.067 95.2855 180.828 94.8428 180.588C94.4053 180.39 93.9626 180.229 93.5199 180.109C93.2022 180.031 92.8792 179.989 92.5615 179.948H92.3167L91.7178 179.911H91.5199C91.1188 179.911 90.6761 179.948 90.2751 180.067C89.9938 178.552 89.1136 177.109 87.7907 176.109L87.7074 176.067L86.3844 175.151C86.0251 174.869 85.5824 174.63 85.1449 174.432C84.7022 174.229 84.2646 174.109 83.7803 173.989C83.4626 173.911 83.1397 173.911 82.8167 173.869H82.0199C79.7751 173.869 77.848 175.588 77.2074 176.432C76.7282 177.031 76.2438 177.588 75.723 178.151C75.1657 177.109 74.3219 176.192 73.3167 175.588L71.999 174.75C71.5563 174.468 71.1136 174.271 70.5928 174.109C70.1501 173.989 69.6709 173.869 69.1501 173.828C68.9886 173.828 68.8688 173.828 68.7074 173.828C68.5511 173.828 68.348 173.828 68.2282 173.828L67.9105 173.869L67.348 173.948C65.3428 174.229 63.8584 175.791 63.1396 176.708L63.0563 176.791C62.6969 177.271 62.374 177.672 62.098 178.031L61.2126 177.51L58.0459 175.588C62.7386 153.474 71.1136 144.755 75.723 141.515C76.1657 141.192 76.5251 140.833 76.8063 140.396C80.2959 139.911 88.2282 138.635 94.124 136.276C95.124 135.875 96.2855 135.875 97.249 136.354L102.582 138.791L93.3219 143.953C92.0771 144.635 91.1188 145.672 90.5147 146.911L84.3011 160.073C83.8219 161.109 83.7803 162.312 84.1813 163.349C84.5824 164.39 85.4261 165.271 86.4678 165.713C87.9521 166.312 90.2751 167.073 92.8011 167.073C95.2855 167.073 97.4886 166.39 99.3324 165.073C102.098 163.109 104.103 160.073 105.384 157.51L105.546 157.474C106.869 157.271 108.233 156.869 109.515 156.312C120.9 163.911 131.562 175.828 138.614 184.151L139.218 184.869C139.259 185.547 139.098 186.031 138.817 186.229ZM141.702 182.869H141.582C141.421 182.672 141.259 182.468 141.062 182.271C133.848 173.75 122.983 161.63 111.317 153.833C112.884 152.312 114.327 150.552 115.447 148.672C113.723 150.39 111.801 151.791 109.676 152.953L109.395 153.114C107.671 153.989 106.15 154.354 105.187 154.51C105.384 152.75 105.468 150.994 105.426 149.271C104.864 151.234 104.145 153.114 103.301 154.911L103.181 155.151C102.098 157.51 100.254 160.75 97.6084 162.63C94.2022 165.031 89.9938 163.869 87.749 162.953C87.5094 162.833 87.3063 162.63 87.1865 162.39C87.0667 162.109 87.1084 161.833 87.2282 161.593L93.4417 148.432C93.7594 147.755 94.2438 147.234 94.9261 146.875L109.437 138.791C110.239 138.354 111.16 138.234 112.041 138.432C118.051 139.875 132.364 142.833 140.858 141.151C141.062 141.354 141.259 141.515 141.504 141.672C145.994 144.833 154.088 153.192 158.858 174.151C155.812 176.552 149.957 180.63 141.702 182.869ZM179.103 169.031C179.103 169.989 178.619 170.869 177.858 171.432L165.952 179.588C165.192 180.109 164.192 180.151 163.39 179.588C162.785 179.187 162.426 178.468 162.384 177.708L162.306 175.63L162.265 175.468C157.416 152.073 148.358 142.635 143.223 139.031C142.546 138.552 142.624 137.552 143.384 137.192L159.02 129.953C160.181 129.396 161.582 129.713 162.426 130.713C173.65 143.953 179.103 156.474 179.103 169.031Z" fill="black"/>
<path d="M159.021 130.036L143.385 137.276C142.625 137.635 142.547 138.635 143.224 139.114C148.359 142.713 157.416 152.151 162.265 175.552L162.307 175.708L162.385 177.791C162.427 178.51 162.786 179.229 163.39 179.672C164.193 180.187 165.193 180.187 165.953 179.672L177.901 171.51C178.703 170.989 179.14 170.073 179.14 169.109C179.14 156.593 173.651 144.073 162.469 130.875C161.583 129.791 160.182 129.474 159.021 130.036ZM169.76 165.031C171.646 165.031 173.13 166.552 173.13 168.39C173.13 170.271 171.604 171.75 169.76 171.75C167.88 171.75 166.396 170.229 166.396 168.39C166.396 166.51 167.916 165.031 169.76 165.031Z" fill="white"/>
<path d="M103.504 198.307C103.702 197.989 103.822 197.63 103.864 197.229L103.983 196.026C104.062 195.151 103.702 194.229 102.983 193.546L101.739 192.27C101.541 192.067 101.338 191.947 101.14 191.828C100.895 191.708 100.655 191.588 100.457 191.51C100.296 191.468 100.134 191.427 99.973 191.39C99.9366 191.39 99.8949 191.39 99.8532 191.39L99.2959 191.307C98.4938 191.229 97.2907 191.869 96.7699 192.39C93.9626 194.786 91.5563 196.348 88.4313 198.187C90.9938 195.906 93.6032 193.151 96.2491 190.067C96.3272 189.989 96.4053 189.869 96.447 189.75C96.6501 189.427 96.7282 189.031 96.7282 188.63V187.427C96.7282 186.546 96.2855 185.63 95.5251 184.989L94.1241 183.989C93.9209 183.828 93.723 183.671 93.4834 183.588C93.2386 183.468 92.9991 183.39 92.7595 183.307C92.598 183.27 92.4418 183.229 92.2803 183.229C92.2386 183.229 92.197 183.229 92.1605 183.229L91.598 183.187C90.7959 183.151 89.6709 183.911 89.1918 184.468C85.8272 188.27 82.0563 190.75 78.4886 193.348C81.2543 190.708 84.0616 187.51 86.8688 183.828C86.947 183.75 86.9886 183.63 87.0668 183.51C87.2282 183.187 87.3063 182.791 87.3063 182.348L87.2699 181.151C87.2282 180.27 86.7491 179.348 85.947 178.75L84.6241 177.828C84.4209 177.671 84.1813 177.552 83.9834 177.432C83.7386 177.312 83.4991 177.229 83.2595 177.192C83.098 177.151 82.9418 177.151 82.7803 177.151C82.7386 177.151 82.697 177.151 82.6605 177.151H82.098C81.2959 177.151 80.2126 177.947 79.7751 178.552C77.3272 181.63 74.5616 183.911 71.8376 186.031C72.197 185.39 72.598 184.63 73.2803 183.427C73.3168 183.307 73.4001 183.187 73.4418 183.067C73.5616 182.708 73.5616 182.307 73.5199 181.869L73.3168 180.63C73.1605 179.708 72.5563 178.869 71.7178 178.39L70.3949 177.588C70.1501 177.468 69.9522 177.348 69.7126 177.27C69.473 177.192 69.2282 177.151 68.9886 177.109C68.8324 177.109 68.6709 177.109 68.5095 177.109C68.4678 177.109 68.4313 177.109 68.3897 177.109L67.8272 177.192C67.0668 177.312 66.1866 178.151 65.7022 178.791C64.0199 181.109 62.8584 181.828 61.4522 184.229C61.1345 184.791 61.3324 186.911 62.0563 187.348L64.7803 189.151C65.6657 189.708 66.4626 189.911 67.1449 189.869C66.7855 190.39 66.8636 192.187 67.5459 192.666L70.5511 195.187C72.3949 196.666 74.7647 195.869 76.0459 195.229C75.6866 195.828 75.723 197.468 76.3636 197.947L79.2543 200.546C81.5772 202.546 84.9418 200.828 85.6241 200.427C85.5043 201.109 85.5824 201.989 85.9834 202.348L88.7126 205.145C91.1188 207.546 95.2855 205.427 95.2855 205.427C98.973 203.067 99.4157 202.348 103.343 198.51C103.343 198.51 103.421 198.39 103.504 198.307Z" fill="#16A637"/>
<path d="M37.9375 67.6712L21.9583 63.3796L21.8958 63.5254L34.7292 73.9421L30.4583 82.2962L4 75.7337L8.04167 67.8379L22.8333 71.9629L22.8958 71.8379L10.875 62.2962L14.7083 54.8171L29.5625 58.8171L29.625 58.6712L17.5208 49.2754L21.3958 41.7129L42.1875 59.3171L37.9375 67.6712Z" fill="black"/>
<path d="M42.0934 30.5006C44.8018 28.1829 47.5153 27.0527 50.2393 27.1047C52.9736 27.1464 55.4736 28.4902 57.7393 31.1256C59.9997 33.7506 60.9372 36.4277 60.5518 39.1464C60.1768 41.8547 58.6351 44.3704 55.9268 46.6881C53.2028 49.0214 50.4893 50.162 47.7809 50.1047C45.0726 50.0527 42.583 48.6985 40.3018 46.0422C38.0257 43.3756 37.0726 40.7037 37.4476 38.0214C37.8226 35.3443 39.3747 32.8339 42.0934 30.5006ZM45.4684 34.4589C43.5413 36.0995 43.5205 38.0214 45.4059 40.2297L46.8434 41.9172C48.7184 44.0995 50.6195 44.3704 52.5518 42.7297C54.4788 41.0787 54.5101 39.162 52.6351 36.9797L51.1976 35.2922C49.307 33.0839 47.3955 32.8079 45.4684 34.4589Z" fill="black"/>
<path d="M70.8945 12.9221C71.4362 12.6721 71.9414 12.5159 72.4154 12.443C72.8997 12.3753 73.1497 12.3544 73.1654 12.3805L75.8737 18.2346L73.6237 19.2763C72.1914 19.943 71.3216 20.7971 71.0195 21.8388C70.7279 22.8805 70.9206 24.1409 71.6029 25.6096L75.4154 33.8388L68.457 37.068L59.8945 18.5888L65.6029 15.943L67.332 18.5263C67.2487 17.2659 67.5299 16.1461 68.1862 15.1721C68.8529 14.2034 69.7539 13.4534 70.8945 12.9221Z" fill="black"/>
<path d="M95.4912 7.30941L104.304 5.89274L98.1995 15.1844L107.762 25.9552L99.1579 27.3511L93.7829 21.1427L91.5954 24.1219L92.3037 28.4552L84.7204 29.6844L80.2412 2.01774L87.8245 0.788574L90.3037 16.0386L95.4912 7.30941Z" fill="black"/>
<path d="M126.829 2.10417C135.965 3.78646 139.73 8.97917 138.121 17.6875C136.506 26.3802 131.131 29.8854 121.996 28.2083L110.704 26.1042L115.537 0L126.829 2.10417ZM120.246 21.375L123.037 21.8958C126.537 22.5521 128.631 20.9948 129.329 17.2292L129.746 14.9583C130.454 11.1823 129.058 8.96875 125.558 8.3125L122.767 7.79167L120.246 21.375Z" fill="black"/>
<path d="M158.913 19.872C162.007 21.6636 163.986 23.8616 164.851 26.4553C165.71 29.0543 165.268 31.8511 163.518 34.8511C161.768 37.8511 159.549 39.6116 156.872 40.1428C154.19 40.6845 151.299 40.0595 148.205 38.2678C145.106 36.4605 143.132 34.273 142.288 31.7053C141.44 29.1376 141.898 26.3407 143.663 23.3095C145.424 20.2834 147.632 18.5074 150.288 17.9761C152.94 17.4345 155.815 18.0699 158.913 19.872ZM156.288 24.372C154.106 23.1116 152.288 23.7261 150.83 26.2261L149.726 28.1428C148.278 30.6324 148.648 32.5022 150.83 33.7678C153.038 35.0438 154.861 34.4397 156.309 31.9553L157.413 30.0386C158.872 27.5386 158.497 25.6532 156.288 24.372Z" fill="black"/>
<path d="M186.225 42.984C187.793 44.7601 188.48 46.5257 188.288 48.2757C188.09 50.0361 187.064 51.7393 185.204 53.3799L175.329 62.1091L170.225 56.3382L179.413 48.2132C180.079 47.6299 180.46 46.9945 180.559 46.3174C180.668 45.6351 180.444 44.984 179.892 44.359C179.267 43.6507 178.522 43.2861 177.663 43.2549C176.814 43.2288 176.048 43.5153 175.371 44.109L166.413 52.0257L161.309 46.2549L176.579 32.7549L180.746 37.484L178.767 39.8799C180.1 39.7705 181.439 39.9945 182.788 40.5465C184.132 41.1038 185.277 41.9163 186.225 42.984Z" fill="black"/>
<path d="M201.182 67.7105C202.64 71.1272 202.953 74.0855 202.12 76.5855C201.286 79.0855 199.213 81.0334 195.911 82.4397L194.703 82.9605L188.703 68.898C187.338 69.4657 186.443 70.1949 186.015 71.0855C185.599 71.9865 185.666 73.0907 186.224 74.398C186.724 75.5751 187.338 76.3407 188.078 76.6897C188.812 77.0334 189.588 77.0282 190.411 76.6688L193.349 83.523C191.083 84.4918 188.937 84.3876 186.911 83.2105C184.896 82.0282 183.187 79.7834 181.786 76.4813C180.297 73.0074 179.953 69.9657 180.745 67.3563C181.547 64.7418 183.599 62.7418 186.89 61.3355C190.109 59.9605 192.943 59.8563 195.39 61.023C197.849 62.1793 199.776 64.4032 201.182 67.7105ZM196.807 69.898C195.849 67.6584 194.255 66.8668 192.036 67.523L194.974 74.398C195.943 73.9813 196.599 73.3668 196.932 72.5647C197.265 71.773 197.224 70.8824 196.807 69.898Z" fill="black"/>
</g>
<defs>
<filter id="filter0_d_768_2597" x="0" y="0" width="206.574" height="250.942" filterUnits="userSpaceOnUse" color-interpolation-filters="sRGB">
<feFlood flood-opacity="0" result="BackgroundImageFix"/>
<feColorMatrix in="SourceAlpha" type="matrix" values="0 0 0 0 0 0 0 0 0 0 0 0 0 0 0 0 0 0 127 0" result="hardAlpha"/>
<feOffset dy="4"/>
<feGaussianBlur stdDeviation="2"/>
<feComposite in2="hardAlpha" operator="out"/>
<feColorMatrix type="matrix" values="0 0 0 0 0 0 0 0 0 0 0 0 0 0 0 0 0 0 0.25 0"/>
<feBlend mode="normal" in2="BackgroundImageFix" result="effect1_dropShadow_768_2597"/>
<feBlend mode="normal" in="SourceGraphic" in2="effect1_dropShadow_768_2597" result="shape"/>
</filter>
</defs>
</svg>
