<svg xmlns="http://www.w3.org/2000/svg" xmlns:xlink="http://www.w3.org/1999/xlink" width="500"
    zoomAndPan="magnify" viewBox="0 0 375 374.999991" height="500"
    preserveAspectRatio="xMidYMid meet" version="1.0">
    <defs>
        <g />
        <clipPath id="a5410fae30">
            <path
                d="M 123.136719 133 L 252.136719 133 L 252.136719 262.5 L 123.136719 262.5 Z M 123.136719 133 "
                clip-rule="nonzero" />
        </clipPath>
        <clipPath id="f7ab19b73e">
            <path d="M 159 112.5 L 216 112.5 L 216 169 L 159 169 Z M 159 112.5 "
                clip-rule="nonzero" />
        </clipPath>
    </defs>
    <g clip-path="url(#a5410fae30)">
        <path fill="#000000"
            d="M 187.652344 262.492188 C 178.933594 262.492188 170.484375 260.785156 162.550781 257.425781 C 154.882812 254.183594 147.96875 249.535156 142.046875 243.625 C 136.125 237.714844 131.464844 230.847656 128.21875 223.167969 C 124.851562 215.21875 123.136719 206.816406 123.136719 198.117188 C 123.136719 198.027344 123.136719 197.9375 123.136719 197.847656 C 123.167969 187.140625 125.933594 176.550781 131.042969 167.222656 C 136.515625 157.261719 144.542969 148.921875 154.28125 143.042969 C 164.351562 136.984375 175.867188 133.804688 187.652344 133.804688 C 211.3125 133.804688 233.046875 146.703125 244.351562 167.460938 C 249.460938 176.820312 252.136719 187.441406 252.136719 198.148438 C 252.136719 206.847656 250.421875 215.246094 247.054688 223.195312 C 243.808594 230.847656 239.148438 237.746094 233.226562 243.65625 C 227.304688 249.566406 220.421875 254.214844 212.722656 257.453125 C 204.789062 260.785156 196.371094 262.492188 187.652344 262.492188 Z M 187.652344 138.605469 C 165.855469 138.605469 145.804688 150.453125 135.3125 169.53125 C 130.5625 178.171875 128.035156 187.980469 127.976562 197.878906 L 127.976562 197.910156 C 127.976562 197.96875 127.976562 198.058594 127.976562 198.117188 C 127.976562 230.9375 154.734375 257.664062 187.652344 257.664062 C 220.539062 257.664062 247.328125 230.964844 247.328125 198.117188 C 247.328125 188.191406 244.832031 178.378906 240.109375 169.742188 C 229.648438 150.542969 209.539062 138.605469 187.652344 138.605469 Z M 187.652344 138.605469 "
            fill-opacity="1" fill-rule="nonzero" />
    </g>
    <path fill="#16a637"
        d="M 213.535156 140.734375 C 213.535156 154.984375 201.960938 166.5625 187.652344 166.5625 C 173.371094 166.5625 161.765625 155.011719 161.765625 140.734375 C 161.765625 140.703125 161.765625 140.675781 161.765625 140.613281 C 161.796875 136.144531 162.941406 131.976562 164.953125 128.316406 C 169.34375 120.335938 177.851562 114.90625 187.652344 114.90625 C 197.480469 114.90625 206.019531 120.367188 210.410156 128.40625 C 212.394531 132.066406 213.535156 136.265625 213.535156 140.734375 Z M 213.535156 140.734375 "
        fill-opacity="1" fill-rule="nonzero" />
    <g clip-path="url(#f7ab19b73e)">
        <path fill="#000000"
            d="M 187.652344 168.960938 C 180.105469 168.960938 172.980469 166.023438 167.660156 160.683594 C 162.308594 155.34375 159.363281 148.261719 159.363281 140.734375 C 159.363281 140.703125 159.363281 140.644531 159.363281 140.613281 C 159.390625 135.90625 160.59375 131.253906 162.847656 127.175781 C 167.808594 118.117188 177.308594 112.507812 187.652344 112.507812 C 198.023438 112.507812 207.554688 118.175781 212.511719 127.265625 C 214.738281 131.375 215.941406 136.023438 215.941406 140.734375 C 215.941406 148.261719 212.996094 155.371094 207.644531 160.683594 C 202.320312 166.023438 195.195312 168.960938 187.652344 168.960938 Z M 187.652344 117.304688 C 179.082031 117.304688 171.207031 121.957031 167.058594 129.484375 C 165.195312 132.875 164.203125 136.746094 164.171875 140.644531 L 164.171875 140.734375 C 164.171875 153.632812 174.695312 164.160156 187.652344 164.160156 C 200.609375 164.160156 211.128906 153.664062 211.128906 140.734375 C 211.128906 136.835938 210.136719 132.964844 208.304688 129.574219 C 204.15625 122.015625 196.25 117.304688 187.652344 117.304688 Z M 187.652344 117.304688 "
            fill-opacity="1" fill-rule="nonzero" />
    </g>
    <path fill="#ffffff"
        d="M 185.003906 152.101562 L 172.621094 139.714844 L 176.015625 136.324219 L 185.003906 145.292969 L 199.285156 131.046875 L 202.683594 134.464844 Z M 185.003906 152.101562 "
        fill-opacity="1" fill-rule="nonzero" />
    <path fill="#ffffff"
        d="M 210.167969 218.546875 C 204.878906 212.308594 196.878906 203.367188 188.34375 197.667969 C 187.378906 198.089844 186.359375 198.390625 185.367188 198.539062 L 185.246094 198.570312 C 184.285156 200.488281 182.78125 202.769531 180.707031 204.238281 C 179.292969 205.226562 177.640625 205.738281 175.804688 205.738281 C 173.914062 205.738281 172.167969 205.199219 171.058594 204.71875 C 170.273438 204.386719 169.644531 203.757812 169.34375 202.949219 C 169.042969 202.140625 169.074219 201.238281 169.433594 200.488281 L 174.09375 190.621094 C 174.542969 189.691406 175.265625 188.910156 176.199219 188.398438 L 183.140625 184.53125 L 179.144531 182.699219 C 178.421875 182.371094 177.550781 182.339844 176.796875 182.640625 C 172.378906 184.410156 166.425781 185.371094 163.8125 185.730469 C 163.601562 186.058594 163.332031 186.332031 163 186.570312 C 159.542969 189 153.257812 195.539062 149.742188 212.128906 L 152.117188 213.566406 L 152.777344 213.957031 C 153.019531 213.6875 153.257812 213.386719 153.5 213.027344 L 153.558594 212.96875 C 154.101562 212.277344 155.242188 211.078125 156.714844 210.898438 L 157.136719 210.839844 L 157.378906 210.808594 C 157.46875 210.808594 157.617188 210.808594 157.738281 210.808594 C 157.859375 210.808594 157.949219 210.808594 158.070312 210.808594 C 158.460938 210.839844 158.789062 210.898438 159.152344 211.019531 C 159.542969 211.136719 159.875 211.289062 160.203125 211.496094 L 161.195312 212.128906 C 161.976562 212.578125 162.609375 213.269531 163 214.046875 C 163.390625 213.628906 163.75 213.207031 164.113281 212.757812 C 164.59375 212.128906 166.007812 210.839844 167.71875 210.839844 L 168.320312 210.839844 C 168.5625 210.839844 168.800781 210.867188 169.042969 210.929688 C 169.402344 211.019531 169.734375 211.109375 170.066406 211.257812 C 170.394531 211.40625 170.726562 211.585938 170.996094 211.796875 L 171.988281 212.488281 L 172.046875 212.519531 C 173.039062 213.269531 173.703125 214.347656 173.914062 215.488281 C 174.214844 215.398438 174.515625 215.367188 174.84375 215.367188 L 174.996094 215.367188 L 175.445312 215.398438 L 175.625 215.398438 C 175.867188 215.425781 176.105469 215.457031 176.347656 215.515625 C 176.707031 215.609375 177.039062 215.726562 177.339844 215.878906 C 177.671875 216.058594 177.972656 216.238281 178.242188 216.449219 L 179.292969 217.199219 L 179.355469 217.257812 C 180.464844 218.1875 181.128906 219.566406 181.128906 220.945312 L 181.128906 221.515625 L 181.546875 221.578125 C 181.789062 221.605469 182.03125 221.667969 182.238281 221.757812 C 182.601562 221.878906 182.902344 222.027344 183.230469 222.175781 C 183.59375 222.386719 183.894531 222.597656 184.164062 222.867188 L 185.125 223.855469 C 186.179688 224.847656 186.71875 226.257812 186.570312 227.636719 L 186.480469 228.535156 C 186.417969 229.257812 186.179688 229.886719 185.789062 230.457031 C 185.667969 230.636719 185.515625 230.816406 185.367188 230.996094 C 184.796875 231.566406 184.34375 232.015625 183.953125 232.375 C 183.714844 232.617188 183.472656 232.855469 183.261719 233.066406 L 183.863281 233.457031 L 186.898438 234.714844 C 186.898438 234.714844 188.28125 235.195312 189.457031 235.496094 C 190.296875 235.734375 191.199219 235.554688 191.890625 235.046875 L 192.550781 234.234375 C 192.882812 233.695312 193.152344 232.855469 192.550781 232.464844 C 189.546875 230.484375 188.074219 229.105469 186.78125 227.816406 C 186.78125 227.816406 186.898438 226.375 188.132812 227.367188 C 189.363281 228.355469 188.371094 228.417969 191.347656 230.1875 C 192.761719 230.964844 194.207031 231.714844 195.558594 232.347656 C 196.371094 232.734375 197.363281 232.644531 198.082031 232.105469 L 199.285156 230.90625 C 199.828125 230.097656 199.738281 228.988281 199.074219 228.476562 C 195.828125 226.078125 195.40625 225.714844 193.09375 223.46875 C 193.09375 223.46875 193.332031 221.785156 194.804688 222.988281 C 196.25 224.15625 195.105469 224.277344 198.5625 226.347656 C 199.585938 226.917969 200.636719 227.394531 201.929688 227.90625 C 202.652344 228.207031 203.464844 228.117188 204.097656 227.667969 L 205.449219 226.195312 C 205.960938 225.417969 205.359375 224.066406 204.9375 223.617188 C 204.789062 223.46875 204.757812 223.375 204.335938 223.015625 C 201.121094 220.347656 197.601562 217.167969 195.707031 214.917969 C 195.707031 214.917969 196.070312 213.238281 197.632812 214.738281 C 199.046875 216.085938 197.992188 216.148438 200.820312 218.277344 C 202.472656 219.445312 204.214844 220.648438 205.929688 221.726562 C 206.769531 222.265625 207.855469 222.238281 208.664062 221.695312 L 210.347656 220.105469 C 210.558594 219.957031 210.648438 219.628906 210.679688 219.238281 Z M 210.167969 218.546875 "
        fill-opacity="1" fill-rule="nonzero" />
    <path fill="#000000"
        d="M 141.65625 204.058594 C 140.242188 204.058594 139.128906 205.199219 139.128906 206.578125 C 139.128906 207.988281 140.273438 209.097656 141.65625 209.097656 C 143.066406 209.097656 144.179688 207.957031 144.179688 206.578125 C 144.210938 205.167969 143.066406 204.058594 141.65625 204.058594 Z M 141.65625 204.058594 "
        fill-opacity="1" fill-rule="nonzero" />
    <path fill="#16a637"
        d="M 147.308594 211.917969 C 150.945312 194.371094 157.738281 187.289062 161.585938 184.589844 C 162.097656 184.230469 162.039062 183.480469 161.464844 183.210938 L 149.742188 177.78125 C 148.871094 177.359375 147.816406 177.601562 147.1875 178.351562 C 138.769531 188.25 134.679688 197.640625 134.679688 207.027344 C 134.679688 207.75 135.042969 208.40625 135.613281 208.828125 L 144.570312 214.949219 C 145.140625 215.335938 145.894531 215.367188 146.496094 214.949219 C 146.945312 214.648438 147.214844 214.109375 147.246094 213.539062 L 147.308594 211.976562 Z M 141.65625 209.097656 C 140.242188 209.097656 139.128906 207.957031 139.128906 206.578125 C 139.128906 205.167969 140.273438 204.058594 141.65625 204.058594 C 143.066406 204.058594 144.179688 205.199219 144.179688 206.578125 C 144.210938 207.957031 143.066406 209.097656 141.65625 209.097656 Z M 141.65625 209.097656 "
        fill-opacity="1" fill-rule="nonzero" />
    <path fill="#16a637"
        d="M 212.210938 186.539062 C 212.03125 186.421875 211.882812 186.300781 211.730469 186.148438 C 205.359375 187.441406 194.65625 185.191406 190.117188 184.109375 C 189.457031 183.960938 188.765625 184.050781 188.164062 184.378906 L 177.28125 190.441406 C 176.796875 190.710938 176.40625 191.128906 176.167969 191.609375 L 171.507812 201.480469 C 171.417969 201.660156 171.417969 201.898438 171.476562 202.078125 C 171.539062 202.257812 171.6875 202.410156 171.898438 202.5 C 173.582031 203.1875 176.769531 204.058594 179.292969 202.257812 C 181.277344 200.847656 182.660156 198.449219 183.472656 196.648438 L 183.5625 196.46875 C 184.195312 195.148438 184.734375 193.710938 185.15625 192.238281 C 185.1875 193.53125 185.15625 194.847656 184.976562 196.167969 C 185.699219 196.050781 186.839844 195.777344 188.132812 195.121094 L 188.34375 195 C 189.9375 194.128906 191.410156 193.109375 192.671875 191.789062 C 191.859375 193.199219 190.777344 194.488281 189.574219 195.660156 C 198.324219 201.507812 206.472656 210.566406 211.882812 216.988281 C 212.003906 217.136719 212.121094 217.289062 212.273438 217.4375 L 212.363281 217.4375 C 218.554688 215.757812 222.945312 212.699219 225.140625 210.898438 C 221.683594 195.179688 215.578125 188.910156 212.210938 186.539062 Z M 212.210938 186.539062 "
        fill-opacity="1" fill-rule="nonzero" />
    <path fill="#000000"
        d="M 233.496094 204.058594 C 232.085938 204.058594 230.972656 205.199219 230.972656 206.578125 C 230.972656 207.988281 232.113281 209.097656 233.496094 209.097656 C 234.910156 209.097656 236.023438 207.957031 236.023438 206.578125 C 236.050781 205.167969 234.910156 204.058594 233.496094 204.058594 Z M 233.496094 204.058594 "
        fill-opacity="1" fill-rule="nonzero" />
    <path fill="#000000"
        d="M 229.800781 176.820312 C 228.929688 175.800781 227.664062 175.230469 226.34375 175.230469 C 225.679688 175.230469 225.050781 175.382812 224.449219 175.652344 L 212.722656 181.082031 C 211.703125 181.558594 211.011719 182.550781 210.890625 183.660156 C 210.890625 183.75 210.890625 183.808594 210.890625 183.871094 C 209.867188 184.050781 208.636719 184.140625 207.253906 184.140625 C 201.238281 184.140625 193.695312 182.492188 190.71875 181.800781 C 190.328125 181.710938 189.9375 181.652344 189.546875 181.652344 C 188.671875 181.652344 187.832031 181.859375 187.050781 182.308594 L 185.699219 183.058594 L 180.136719 180.480469 C 179.445312 180.152344 178.691406 180 177.910156 180 C 177.21875 180 176.527344 180.121094 175.898438 180.390625 C 172.109375 181.921875 167.058594 182.820312 164.261719 183.210938 C 164.050781 182.28125 163.390625 181.46875 162.519531 181.050781 L 150.792969 175.621094 C 150.191406 175.351562 149.5625 175.199219 148.898438 175.199219 C 147.578125 175.199219 146.316406 175.769531 145.441406 176.789062 C 136.632812 187.140625 132.367188 197.007812 132.367188 207 C 132.367188 208.5 133.085938 209.90625 134.320312 210.746094 L 143.25 216.867188 C 143.941406 217.347656 144.722656 217.585938 145.5625 217.585938 C 146.375 217.585938 147.15625 217.347656 147.847656 216.898438 C 148.660156 216.359375 149.230469 215.546875 149.5 214.617188 L 150.914062 215.457031 L 151.246094 215.667969 C 150.914062 216.117188 150.554688 216.597656 150.191406 217.257812 C 149.441406 218.636719 149.710938 221.605469 151.425781 222.71875 L 153.46875 224.066406 C 153.679688 224.1875 153.890625 224.308594 154.070312 224.425781 C 154.25 225.265625 154.640625 226.046875 155.304688 226.585938 L 157.558594 228.476562 C 158.492188 229.226562 159.664062 229.644531 160.894531 229.644531 C 160.984375 229.644531 161.046875 229.644531 161.136719 229.644531 C 161.316406 229.976562 161.558594 230.277344 161.828125 230.515625 L 163.992188 232.496094 C 164.953125 233.335938 166.214844 233.785156 167.570312 233.785156 C 168.019531 233.785156 168.472656 233.726562 168.890625 233.664062 C 168.921875 233.695312 170.996094 235.824219 170.996094 235.824219 C 172.019531 236.84375 173.402344 237.386719 174.964844 237.386719 C 176.859375 237.386719 178.511719 236.574219 178.691406 236.484375 L 178.871094 236.367188 C 179.984375 235.644531 180.738281 235.105469 181.429688 234.566406 L 182.75 235.40625 L 186.027344 236.753906 L 186.117188 236.785156 C 186.179688 236.816406 187.589844 237.296875 188.824219 237.625 C 189.273438 237.746094 189.726562 237.804688 190.175781 237.804688 C 191.289062 237.804688 192.402344 237.445312 193.304688 236.785156 L 193.605469 236.546875 L 194.714844 234.957031 L 194.777344 234.867188 C 194.867188 234.714844 194.925781 234.566406 195.015625 234.445312 C 195.558594 234.625 196.097656 234.746094 196.671875 234.746094 C 197.722656 234.746094 198.714844 234.414062 199.554688 233.816406 L 199.738281 233.695312 L 201.511719 231.867188 L 201.628906 231.714844 C 201.929688 231.265625 202.140625 230.757812 202.292969 230.246094 C 202.503906 230.277344 202.714844 230.277344 202.921875 230.277344 C 203.914062 230.277344 204.847656 229.976562 205.628906 229.375 L 205.808594 229.257812 L 207.703125 227.214844 L 207.824219 227.035156 C 208.394531 226.167969 208.484375 225.175781 208.335938 224.214844 C 208.964844 224.097656 209.539062 223.828125 210.078125 223.46875 L 210.230469 223.347656 L 211.972656 221.695312 C 212.605469 221.1875 212.933594 220.46875 213.054688 219.71875 L 213.203125 219.6875 C 218.855469 218.15625 223.15625 215.488281 225.710938 213.566406 L 225.710938 213.628906 C 225.769531 214.976562 226.460938 216.175781 227.515625 216.898438 C 228.207031 217.347656 228.988281 217.585938 229.800781 217.585938 C 230.609375 217.585938 231.421875 217.347656 232.113281 216.867188 L 241.074219 210.746094 C 242.304688 209.90625 243.027344 208.5 243.027344 207 C 242.878906 197.070312 238.609375 187.171875 229.800781 176.820312 Z M 147.214844 213.597656 C 147.1875 214.136719 146.917969 214.675781 146.464844 215.007812 C 145.863281 215.398438 145.113281 215.398438 144.542969 215.007812 L 135.582031 208.886719 C 134.980469 208.5 134.652344 207.808594 134.652344 207.089844 C 134.652344 197.699219 138.769531 188.308594 147.15625 178.410156 C 147.789062 177.660156 148.839844 177.449219 149.710938 177.839844 L 161.4375 183.269531 C 162.007812 183.539062 162.066406 184.289062 161.558594 184.648438 C 157.707031 187.351562 150.914062 194.429688 147.277344 211.976562 L 147.246094 212.097656 Z M 177.582031 234.414062 C 177.582031 234.414062 174.453125 236.003906 172.648438 234.207031 L 170.605469 232.105469 C 170.304688 231.835938 170.246094 231.175781 170.335938 230.667969 C 169.824219 230.964844 167.269531 232.257812 165.554688 230.757812 L 163.390625 228.804688 C 162.910156 228.417969 162.910156 227.1875 163.148438 226.765625 C 162.1875 227.246094 160.414062 227.847656 159.03125 226.738281 L 156.777344 224.847656 C 156.265625 224.457031 156.207031 223.136719 156.476562 222.746094 C 155.964844 222.746094 155.363281 222.625 154.703125 222.207031 L 152.65625 220.855469 C 152.117188 220.527344 151.996094 218.9375 152.207031 218.515625 C 153.257812 216.71875 154.132812 216.207031 155.394531 214.4375 C 155.753906 213.957031 156.414062 213.328125 156.988281 213.238281 L 157.40625 213.179688 C 157.4375 213.179688 157.46875 213.179688 157.5 213.179688 C 157.617188 213.179688 157.738281 213.179688 157.859375 213.179688 C 158.039062 213.207031 158.21875 213.238281 158.398438 213.296875 C 158.582031 213.359375 158.761719 213.417969 158.910156 213.539062 L 159.902344 214.136719 C 160.535156 214.527344 160.984375 215.15625 161.105469 215.816406 L 161.257812 216.746094 C 161.316406 217.078125 161.285156 217.347656 161.195312 217.648438 C 161.164062 217.738281 161.136719 217.828125 161.074219 217.917969 C 160.566406 218.789062 160.265625 219.386719 159.992188 219.867188 C 162.039062 218.246094 164.113281 216.539062 165.945312 214.257812 C 166.277344 213.808594 167.089844 213.238281 167.691406 213.207031 L 168.109375 213.207031 C 168.140625 213.207031 168.171875 213.207031 168.199219 213.207031 C 168.320312 213.207031 168.441406 213.238281 168.5625 213.238281 C 168.742188 213.269531 168.921875 213.328125 169.101562 213.417969 C 169.28125 213.507812 169.433594 213.597656 169.582031 213.71875 L 170.574219 214.40625 C 171.175781 214.859375 171.539062 215.515625 171.566406 216.207031 L 171.597656 217.105469 C 171.597656 217.40625 171.539062 217.707031 171.417969 217.976562 C 171.386719 218.066406 171.328125 218.15625 171.265625 218.21875 C 169.164062 220.945312 167.058594 223.375 164.984375 225.355469 C 167.660156 223.40625 170.484375 221.546875 173.011719 218.695312 C 173.371094 218.277344 174.214844 217.738281 174.816406 217.738281 L 175.234375 217.765625 C 175.265625 217.765625 175.296875 217.765625 175.324219 217.765625 C 175.445312 217.765625 175.566406 217.796875 175.6875 217.828125 C 175.867188 217.855469 176.046875 217.949219 176.226562 218.039062 C 176.40625 218.128906 176.558594 218.21875 176.707031 218.335938 L 177.761719 219.085938 C 178.332031 219.566406 178.664062 220.226562 178.664062 220.917969 L 178.664062 221.816406 C 178.664062 222.117188 178.574219 222.417969 178.453125 222.65625 C 178.390625 222.746094 178.363281 222.835938 178.300781 222.898438 C 176.347656 225.207031 174.394531 227.246094 172.441406 228.988281 C 174.785156 227.605469 176.558594 226.464844 178.691406 224.636719 C 179.082031 224.246094 179.984375 223.765625 180.585938 223.828125 L 181.007812 223.886719 C 181.039062 223.886719 181.066406 223.886719 181.097656 223.886719 C 181.21875 223.917969 181.339844 223.945312 181.457031 223.976562 C 181.640625 224.035156 181.820312 224.125 181.96875 224.214844 C 182.121094 224.308594 182.269531 224.425781 182.421875 224.546875 L 183.351562 225.507812 C 183.894531 226.015625 184.164062 226.707031 184.105469 227.367188 L 184.015625 228.265625 C 183.984375 228.566406 183.894531 228.835938 183.742188 229.078125 C 183.683594 229.167969 183.621094 229.226562 183.5625 229.285156 C 180.675781 232.105469 180.347656 232.644531 177.582031 234.414062 Z M 210.289062 219.957031 L 208.605469 221.546875 C 207.792969 222.117188 206.710938 222.117188 205.871094 221.578125 C 204.15625 220.46875 202.414062 219.296875 200.757812 218.128906 C 197.933594 215.96875 198.984375 215.9375 197.570312 214.585938 C 196.007812 213.085938 195.648438 214.769531 195.648438 214.769531 C 197.570312 217.015625 201.058594 220.195312 204.277344 222.867188 C 204.695312 223.226562 204.726562 223.285156 204.878906 223.46875 C 205.296875 223.917969 205.898438 225.265625 205.386719 226.046875 L 204.035156 227.515625 C 203.40625 227.964844 202.59375 228.054688 201.871094 227.757812 C 200.578125 227.246094 199.527344 226.765625 198.503906 226.195312 C 195.046875 224.125 196.1875 224.035156 194.746094 222.835938 C 193.273438 221.636719 193.03125 223.316406 193.03125 223.316406 C 195.347656 225.566406 195.769531 225.925781 199.015625 228.328125 C 199.675781 228.804688 199.765625 229.945312 199.226562 230.757812 L 198.023438 231.957031 C 197.300781 232.496094 196.308594 232.585938 195.496094 232.195312 C 194.144531 231.535156 192.703125 230.816406 191.289062 230.035156 C 188.3125 228.265625 189.304688 228.238281 188.070312 227.214844 C 186.808594 226.195312 186.71875 227.667969 186.71875 227.667969 C 188.011719 228.957031 189.484375 230.335938 192.492188 232.316406 C 193.09375 232.707031 192.792969 233.574219 192.492188 234.085938 L 191.859375 234.894531 C 191.167969 235.40625 190.265625 235.585938 189.425781 235.347656 C 188.28125 235.046875 186.871094 234.566406 186.871094 234.566406 L 183.832031 233.304688 L 183.230469 232.917969 C 183.441406 232.707031 183.683594 232.464844 183.921875 232.226562 C 184.3125 231.835938 184.765625 231.417969 185.335938 230.847656 C 185.488281 230.695312 185.636719 230.515625 185.757812 230.304688 C 186.148438 229.734375 186.359375 229.105469 186.449219 228.386719 L 186.539062 227.488281 C 186.660156 226.136719 186.117188 224.726562 185.097656 223.707031 L 184.132812 222.71875 C 183.863281 222.445312 183.5625 222.238281 183.203125 222.027344 C 182.902344 221.847656 182.570312 221.695312 182.210938 221.605469 C 181.96875 221.546875 181.757812 221.488281 181.519531 221.425781 L 181.097656 221.367188 L 181.097656 220.796875 C 181.128906 219.417969 180.464844 218.039062 179.324219 217.105469 L 179.265625 217.046875 L 178.210938 216.296875 C 177.941406 216.085938 177.640625 215.90625 177.308594 215.726562 C 176.980469 215.578125 176.648438 215.457031 176.316406 215.367188 C 176.078125 215.308594 175.835938 215.277344 175.597656 215.246094 L 175.414062 215.246094 L 174.964844 215.21875 L 174.816406 215.21875 C 174.515625 215.21875 174.183594 215.246094 173.882812 215.335938 C 173.671875 214.199219 173.011719 213.117188 172.019531 212.367188 L 171.957031 212.335938 L 170.964844 211.648438 C 170.695312 211.4375 170.363281 211.257812 170.035156 211.109375 C 169.703125 210.957031 169.375 210.867188 169.011719 210.777344 C 168.773438 210.71875 168.53125 210.71875 168.289062 210.6875 L 167.691406 210.6875 C 166.007812 210.6875 164.5625 211.976562 164.082031 212.609375 C 163.722656 213.058594 163.359375 213.476562 162.96875 213.898438 C 162.550781 213.117188 161.917969 212.429688 161.164062 211.976562 L 160.175781 211.347656 C 159.84375 211.136719 159.511719 210.988281 159.121094 210.867188 C 158.789062 210.777344 158.429688 210.6875 158.039062 210.65625 C 157.917969 210.65625 157.828125 210.65625 157.707031 210.65625 C 157.589844 210.65625 157.4375 210.65625 157.347656 210.65625 L 157.109375 210.6875 L 156.6875 210.746094 C 155.183594 210.957031 154.070312 212.128906 153.53125 212.816406 L 153.46875 212.878906 C 153.199219 213.238281 152.957031 213.539062 152.75 213.808594 L 152.085938 213.417969 L 149.710938 211.976562 C 153.230469 195.390625 159.511719 188.851562 162.96875 186.421875 C 163.300781 186.179688 163.570312 185.910156 163.78125 185.582031 C 166.398438 185.21875 172.347656 184.261719 176.769531 182.492188 C 177.519531 182.191406 178.390625 182.191406 179.113281 182.550781 L 183.113281 184.378906 L 176.167969 188.25 C 175.234375 188.761719 174.515625 189.539062 174.0625 190.46875 L 169.402344 200.339844 C 169.042969 201.117188 169.011719 202.019531 169.3125 202.796875 C 169.613281 203.578125 170.246094 204.238281 171.027344 204.570312 C 172.140625 205.019531 173.882812 205.589844 175.777344 205.589844 C 177.640625 205.589844 179.292969 205.078125 180.675781 204.089844 C 182.75 202.617188 184.253906 200.339844 185.214844 198.417969 L 185.335938 198.390625 C 186.328125 198.238281 187.351562 197.9375 188.3125 197.519531 C 196.851562 203.21875 204.847656 212.15625 210.136719 218.398438 L 210.589844 218.9375 C 210.621094 219.445312 210.5 219.808594 210.289062 219.957031 Z M 212.453125 217.4375 L 212.363281 217.4375 C 212.242188 217.289062 212.121094 217.136719 211.972656 216.988281 C 206.5625 210.597656 198.414062 201.507812 189.664062 195.660156 C 190.839844 194.519531 191.921875 193.199219 192.761719 191.789062 C 191.46875 193.078125 190.027344 194.128906 188.433594 195 L 188.222656 195.121094 C 186.929688 195.777344 185.789062 196.050781 185.066406 196.167969 C 185.214844 194.847656 185.277344 193.53125 185.246094 192.238281 C 184.824219 193.710938 184.285156 195.121094 183.652344 196.46875 L 183.5625 196.648438 C 182.75 198.417969 181.367188 200.847656 179.382812 202.257812 C 176.828125 204.058594 173.671875 203.1875 171.988281 202.5 C 171.808594 202.410156 171.65625 202.257812 171.566406 202.078125 C 171.476562 201.867188 171.507812 201.660156 171.597656 201.480469 L 176.257812 191.609375 C 176.496094 191.101562 176.859375 190.710938 177.371094 190.441406 L 188.253906 184.378906 C 188.855469 184.050781 189.546875 183.960938 190.207031 184.109375 C 194.714844 185.191406 205.449219 187.410156 211.820312 186.148438 C 211.972656 186.300781 212.121094 186.421875 212.304688 186.539062 C 215.671875 188.910156 221.742188 195.179688 225.320312 210.898438 C 223.035156 212.699219 218.644531 215.757812 212.453125 217.4375 Z M 240.503906 207.058594 C 240.503906 207.777344 240.140625 208.4375 239.570312 208.859375 L 230.640625 214.976562 C 230.070312 215.367188 229.320312 215.398438 228.71875 214.976562 C 228.265625 214.675781 227.996094 214.136719 227.964844 213.566406 L 227.90625 212.007812 L 227.875 211.886719 C 224.238281 194.339844 217.445312 187.261719 213.59375 184.558594 C 213.085938 184.199219 213.144531 183.449219 213.714844 183.179688 L 225.441406 177.75 C 226.3125 177.332031 227.363281 177.570312 227.996094 178.320312 C 236.414062 188.25 240.503906 197.640625 240.503906 207.058594 Z M 240.503906 207.058594 "
        fill-opacity="1" fill-rule="nonzero" />
    <path fill="#ffffff"
        d="M 225.441406 177.8125 L 213.714844 183.242188 C 213.144531 183.511719 213.085938 184.261719 213.59375 184.621094 C 217.445312 187.320312 224.238281 194.398438 227.875 211.949219 L 227.90625 212.066406 L 227.964844 213.628906 C 227.996094 214.167969 228.265625 214.707031 228.71875 215.039062 C 229.320312 215.425781 230.070312 215.425781 230.640625 215.039062 L 239.601562 208.917969 C 240.203125 208.527344 240.53125 207.839844 240.53125 207.117188 C 240.53125 197.730469 236.414062 188.339844 228.027344 178.441406 C 227.363281 177.628906 226.3125 177.390625 225.441406 177.8125 Z M 233.496094 204.058594 C 234.910156 204.058594 236.023438 205.199219 236.023438 206.578125 C 236.023438 207.988281 234.878906 209.097656 233.496094 209.097656 C 232.085938 209.097656 230.972656 207.957031 230.972656 206.578125 C 230.972656 205.167969 232.113281 204.058594 233.496094 204.058594 Z M 233.496094 204.058594 "
        fill-opacity="1" fill-rule="nonzero" />
    <path fill="#16a637"
        d="M 183.804688 229.015625 C 183.953125 228.777344 184.042969 228.507812 184.074219 228.207031 L 184.164062 227.304688 C 184.222656 226.648438 183.953125 225.957031 183.414062 225.445312 L 182.480469 224.488281 C 182.332031 224.335938 182.179688 224.246094 182.03125 224.15625 C 181.847656 224.066406 181.667969 223.976562 181.519531 223.917969 C 181.398438 223.886719 181.277344 223.855469 181.15625 223.828125 C 181.128906 223.828125 181.097656 223.828125 181.066406 223.828125 L 180.648438 223.765625 C 180.046875 223.707031 179.144531 224.1875 178.753906 224.578125 C 176.648438 226.375 174.84375 227.546875 172.5 228.925781 C 174.421875 227.214844 176.378906 225.148438 178.363281 222.835938 C 178.421875 222.777344 178.480469 222.6875 178.511719 222.597656 C 178.664062 222.355469 178.722656 222.058594 178.722656 221.757812 L 178.722656 220.855469 C 178.722656 220.195312 178.390625 219.507812 177.820312 219.027344 L 176.769531 218.277344 C 176.617188 218.15625 176.46875 218.039062 176.289062 217.976562 C 176.105469 217.886719 175.925781 217.828125 175.746094 217.765625 C 175.625 217.738281 175.507812 217.707031 175.386719 217.707031 C 175.355469 217.707031 175.324219 217.707031 175.296875 217.707031 L 174.875 217.675781 C 174.273438 217.648438 173.429688 218.21875 173.070312 218.636719 C 170.546875 221.488281 167.71875 223.347656 165.042969 225.296875 C 167.117188 223.316406 169.222656 220.917969 171.328125 218.15625 C 171.386719 218.097656 171.417969 218.007812 171.476562 217.917969 C 171.597656 217.675781 171.65625 217.378906 171.65625 217.046875 L 171.628906 216.148438 C 171.597656 215.488281 171.238281 214.796875 170.636719 214.347656 L 169.644531 213.65625 C 169.492188 213.539062 169.3125 213.449219 169.164062 213.359375 C 168.980469 213.269531 168.800781 213.207031 168.621094 213.179688 C 168.5 213.148438 168.382812 213.148438 168.261719 213.148438 C 168.230469 213.148438 168.199219 213.148438 168.171875 213.148438 L 167.75 213.148438 C 167.148438 213.148438 166.335938 213.746094 166.007812 214.199219 C 164.171875 216.507812 162.097656 218.21875 160.054688 219.808594 C 160.324219 219.328125 160.625 218.757812 161.136719 217.855469 C 161.164062 217.765625 161.226562 217.675781 161.257812 217.585938 C 161.347656 217.316406 161.347656 217.015625 161.316406 216.6875 L 161.164062 215.757812 C 161.046875 215.066406 160.59375 214.4375 159.964844 214.078125 L 158.972656 213.476562 C 158.789062 213.386719 158.640625 213.296875 158.460938 213.238281 C 158.28125 213.179688 158.097656 213.148438 157.917969 213.117188 C 157.800781 213.117188 157.679688 213.117188 157.558594 213.117188 C 157.527344 213.117188 157.5 213.117188 157.46875 213.117188 L 157.046875 213.179688 C 156.476562 213.269531 155.816406 213.898438 155.453125 214.378906 C 154.191406 216.117188 153.320312 216.65625 152.265625 218.457031 C 152.027344 218.878906 152.175781 220.46875 152.71875 220.796875 L 154.761719 222.148438 C 155.425781 222.566406 156.023438 222.71875 156.535156 222.6875 C 156.265625 223.078125 156.324219 224.425781 156.835938 224.785156 L 159.089844 226.675781 C 160.472656 227.785156 162.25 227.1875 163.210938 226.707031 C 162.941406 227.15625 162.96875 228.386719 163.449219 228.746094 L 165.617188 230.695312 C 167.359375 232.195312 169.882812 230.90625 170.394531 230.605469 C 170.304688 231.117188 170.363281 231.777344 170.664062 232.046875 L 172.710938 234.144531 C 174.515625 235.945312 177.640625 234.355469 177.640625 234.355469 C 180.40625 232.585938 180.738281 232.046875 183.683594 229.167969 C 183.683594 229.167969 183.742188 229.078125 183.804688 229.015625 Z M 183.804688 229.015625 "
        fill-opacity="1" fill-rule="nonzero" />
    <g fill="#000000" fill-opacity="1">
        <g transform="translate(126.832398, 146.273437)">
            <g>
                <path
                    d="M 7.796875 -15.234375 L -4.1875 -18.453125 L -4.234375 -18.34375 L 5.390625 -10.53125 L 2.1875 -4.265625 L -17.65625 -9.1875 L -14.625 -15.109375 L -3.53125 -12.015625 L -3.484375 -12.109375 L -12.5 -19.265625 L -9.625 -24.875 L 1.515625 -21.875 L 1.5625 -21.984375 L -7.515625 -29.03125 L -4.609375 -34.703125 L 10.984375 -21.5 Z M 7.796875 -15.234375 " />
            </g>
        </g>
    </g>
    <g fill="#000000" fill-opacity="1">
        <g transform="translate(140.574631, 121.301526)">
            <g>
                <path
                    d="M -2.828125 -18.140625 C -0.796875 -19.878906 1.238281 -20.726562 3.28125 -20.6875 C 5.332031 -20.65625 7.207031 -19.648438 8.90625 -17.671875 C 10.601562 -15.703125 11.304688 -13.695312 11.015625 -11.65625 C 10.734375 -9.625 9.578125 -7.738281 7.546875 -6 C 5.503906 -4.25 3.46875 -3.394531 1.4375 -3.4375 C -0.59375 -3.476562 -2.460938 -4.492188 -4.171875 -6.484375 C -5.878906 -8.484375 -6.59375 -10.488281 -6.3125 -12.5 C -6.03125 -14.507812 -4.867188 -16.390625 -2.828125 -18.140625 Z M -0.296875 -15.171875 C -1.742188 -13.941406 -1.757812 -12.5 -0.34375 -10.84375 L 0.734375 -9.578125 C 2.140625 -7.941406 3.566406 -7.738281 5.015625 -8.96875 C 6.460938 -10.207031 6.484375 -11.644531 5.078125 -13.28125 L 4 -14.546875 C 2.582031 -16.203125 1.148438 -16.410156 -0.296875 -15.171875 Z M -0.296875 -15.171875 " />
            </g>
        </g>
    </g>
    <g fill="#000000" fill-opacity="1">
        <g transform="translate(155.940647, 108.820736)">
            <g>
                <path
                    d="M 3.40625 -18.84375 C 3.8125 -19.03125 4.191406 -19.148438 4.546875 -19.203125 C 4.910156 -19.253906 5.097656 -19.269531 5.109375 -19.25 L 7.140625 -14.859375 L 5.453125 -14.078125 C 4.378906 -13.578125 3.726562 -12.9375 3.5 -12.15625 C 3.28125 -11.375 3.425781 -10.429688 3.9375 -9.328125 L 6.796875 -3.15625 L 1.578125 -0.734375 L -4.84375 -14.59375 L -0.5625 -16.578125 L 0.734375 -14.640625 C 0.671875 -15.585938 0.882812 -16.425781 1.375 -17.15625 C 1.875 -17.882812 2.550781 -18.445312 3.40625 -18.84375 Z M 3.40625 -18.84375 " />
            </g>
        </g>
    </g>
    <g fill="#000000" fill-opacity="1">
        <g transform="translate(167.997677, 102.830004)">
            <g>
                <path
                    d="M 9.796875 -17.0625 L 16.40625 -18.125 L 11.828125 -11.15625 L 19 -3.078125 L 12.546875 -2.03125 L 8.515625 -6.6875 L 6.875 -4.453125 L 7.40625 -1.203125 L 1.71875 -0.28125 L -1.640625 -21.03125 L 4.046875 -21.953125 L 5.90625 -10.515625 Z M 9.796875 -17.0625 " />
            </g>
        </g>
    </g>
    <g fill="#000000" fill-opacity="1">
        <g transform="translate(187.09495, 99.473152)">
            <g>
                <path
                    d="M 14.203125 -17.609375 C 21.054688 -16.347656 23.878906 -12.453125 22.671875 -5.921875 C 21.460938 0.597656 17.429688 3.226562 10.578125 1.96875 L 2.109375 0.390625 L 5.734375 -19.1875 Z M 9.265625 -3.15625 L 11.359375 -2.765625 C 13.984375 -2.273438 15.554688 -3.441406 16.078125 -6.265625 L 16.390625 -7.96875 C 16.921875 -10.800781 15.875 -12.460938 13.25 -12.953125 L 11.15625 -13.34375 Z M 9.265625 -3.15625 " />
            </g>
        </g>
    </g>
    <g fill="#000000" fill-opacity="1">
        <g transform="translate(209.173903, 103.845658)">
            <g>
                <path
                    d="M 16.1875 -8.65625 C 18.507812 -7.3125 19.992188 -5.664062 20.640625 -3.71875 C 21.285156 -1.769531 20.953125 0.328125 19.640625 2.578125 C 18.328125 4.828125 16.664062 6.148438 14.65625 6.546875 C 12.644531 6.953125 10.476562 6.484375 8.15625 5.140625 C 5.832031 3.785156 4.351562 2.144531 3.71875 0.21875 C 3.082031 -1.707031 3.425781 -3.804688 4.75 -6.078125 C 6.070312 -8.347656 7.726562 -9.679688 9.71875 -10.078125 C 11.707031 -10.484375 13.863281 -10.007812 16.1875 -8.65625 Z M 14.21875 -5.28125 C 12.582031 -6.226562 11.21875 -5.765625 10.125 -3.890625 L 9.296875 -2.453125 C 8.210938 -0.585938 8.488281 0.816406 10.125 1.765625 C 11.78125 2.722656 13.148438 2.269531 14.234375 0.40625 L 15.0625 -1.03125 C 16.15625 -2.90625 15.875 -4.320312 14.21875 -5.28125 Z M 14.21875 -5.28125 " />
            </g>
        </g>
    </g>
    <g fill="#000000" fill-opacity="1">
        <g transform="translate(226.017371, 113.679833)">
            <g>
                <path
                    d="M 19.828125 -1.15625 C 21.003906 0.175781 21.519531 1.5 21.375 2.8125 C 21.226562 4.132812 20.457031 5.410156 19.0625 6.640625 L 11.65625 13.1875 L 7.828125 8.859375 L 14.71875 2.765625 C 15.21875 2.328125 15.503906 1.851562 15.578125 1.34375 C 15.660156 0.832031 15.492188 0.34375 15.078125 -0.125 C 14.609375 -0.65625 14.050781 -0.929688 13.40625 -0.953125 C 12.769531 -0.972656 12.195312 -0.757812 11.6875 -0.3125 L 4.96875 5.625 L 1.140625 1.296875 L 12.59375 -8.828125 L 15.71875 -5.28125 L 14.234375 -3.484375 C 15.234375 -3.566406 16.238281 -3.398438 17.25 -2.984375 C 18.257812 -2.566406 19.117188 -1.957031 19.828125 -1.15625 Z M 19.828125 -1.15625 " />
            </g>
        </g>
    </g>

    <g fill="#000000" fill-opacity="1">
        <g transform="translate(238.906246, 128.318487)">
            <g>
                <path
                    d="M 18.15625 2.75 C 19.25 5.3125 19.484375 7.53125 18.859375 9.40625 C 18.234375 11.28125 16.679688 12.742188 14.203125 13.796875 L 13.296875 14.1875 L 8.796875 3.640625 C 7.773438 4.066406 7.101562 4.613281 6.78125 5.28125 C 6.46875 5.957031 6.519531 6.785156 6.9375 7.765625 C 7.3125 8.648438 7.773438 9.222656 8.328125 9.484375 C 8.878906 9.742188 9.460938 9.738281 10.078125 9.46875 L 12.28125 14.609375 C 10.582031 15.335938 8.972656 15.257812 7.453125 14.375 C 5.941406 13.488281 4.660156 11.804688 3.609375 9.328125 C 2.492188 6.722656 2.234375 4.441406 2.828125 2.484375 C 3.429688 0.523438 4.96875 -0.976562 7.4375 -2.03125 C 9.851562 -3.0625 11.976562 -3.140625 13.8125 -2.265625 C 15.65625 -1.398438 17.101562 0.269531 18.15625 2.75 Z M 14.875 4.390625 C 14.15625 2.710938 12.960938 2.117188 11.296875 2.609375 L 13.5 7.765625 C 14.226562 7.453125 14.71875 6.992188 14.96875 6.390625 C 15.21875 5.796875 15.1875 5.128906 14.875 4.390625 Z M 14.875 4.390625 " />
            </g>
        </g>
    </g>

</svg>