<svg width="102" height="102" viewBox="0 0 102 102" fill="none" xmlns="http://www.w3.org/2000/svg">
<path d="M51 0C22.8391 0 0 22.8391 0 51C0 79.1609 22.8391 102 51 102C79.1609 102 102 79.1609 102 51C102 22.8391 79.1609 0 51 0ZM67.9631 61.6436C69.737 63.4175 69.737 66.1892 67.9631 67.9631C67.0761 68.85 65.9674 69.2935 64.8587 69.2935C63.75 69.2935 62.6413 68.85 61.7543 67.9631L48.0066 54.2151C47.1196 53.3282 46.6761 52.2197 46.6761 51.111V24.724C46.6761 22.2848 48.6717 20.2892 51.1108 20.2892C53.55 20.2892 55.5456 22.2848 55.5456 24.724V49.337L67.9631 61.6436Z" fill="#BBC3CE"/>
</svg>
