<svg xmlns="http://www.w3.org/2000/svg" viewBox="0 0 500 500"><g id="freepik--City--inject-10"><polygon id="freepik--city--inject-10" points="482.54 316.52 482.54 67.48 472.26 61.54 451.7 73.41 451.7 116.99 438 109.08 438 93.25 427.72 87.32 427.72 63.58 407.16 51.71 390.03 61.6 390.03 116.99 376.32 109.08 376.32 77.43 366.04 71.49 366.04 39.84 342.06 25.99 321.5 37.86 321.5 101.16 304.37 111.06 304.37 71.49 287.24 61.6 273.53 69.51 273.53 89.3 259.83 97.21 259.83 49.73 246.12 41.82 232.42 49.73 232.42 33.93 218.71 26.02 188.24 43.61 188.24 112.07 177.78 118.11 177.78 67.48 167.5 61.54 146.94 73.41 146.94 116.99 133.23 109.08 133.23 93.25 122.95 87.32 122.95 63.58 102.4 51.71 85.27 61.6 85.27 116.99 71.56 109.08 71.56 97.12 61.28 91.18 61.28 59.53 37.3 45.69 17.46 57.14 17.46 316.52 482.54 316.52" style="fill:#e6e6e6"></polygon></g><g id="freepik--Floor--inject-10"><path id="freepik--floor--inject-10" d="M78.51,247.26c-94.71,54.68-94.71,143.34,0,198s248.26,54.68,343,0,94.71-143.34,0-198S173.22,192.58,78.51,247.26Z" style="fill:#f5f5f5"></path></g><g id="freepik--Shadows--inject-10"><path id="freepik--Shadow--inject-10" d="M351.8,330.39l35.5-20.5c1.29-.74,1.29-1.95,0-2.69l-57.41-33.15a5.19,5.19,0,0,0-4.67,0l-35.5,20.5c-1.29.74-1.29,1.95,0,2.69l57.41,33.15A5.19,5.19,0,0,0,351.8,330.39Z" style="fill:#e0e0e0"></path><ellipse id="freepik--shadow--inject-10" cx="409.5" cy="359.54" rx="70.51" ry="40.71" style="fill:#e0e0e0"></ellipse><ellipse id="freepik--shadow--inject-10" cx="249.99" cy="400.17" rx="70.51" ry="40.71" style="fill:#e0e0e0"></ellipse><ellipse id="freepik--shadow--inject-10" cx="91.21" cy="359.54" rx="70.51" ry="40.71" style="fill:#e0e0e0"></ellipse><path id="freepik--shadow--inject-10" d="M159.67,333.62,115.35,308c-1.64-.95-1.64-2.49,0-3.44L159.67,279a6.59,6.59,0,0,1,6,0L210,304.59c1.65,1,1.65,2.49,0,3.44l-44.32,25.59A6.59,6.59,0,0,1,159.67,333.62Z" style="fill:#e0e0e0"></path><polygon id="freepik--shadow--inject-10" points="174.34 431.17 128.48 457.66 70.07 423.94 115.93 397.45 174.34 431.17" style="fill:#e0e0e0"></polygon><polygon id="freepik--shadow--inject-10" points="325.76 431.17 371.62 457.66 430.02 423.94 384.17 397.45 325.76 431.17" style="fill:#e0e0e0"></polygon></g><g id="freepik--tool-box--inject-10"><g id="freepik--tool-box--inject-10"><g id="freepik--tool-box--inject-10"><polygon points="349.19 326.07 349.19 297.3 384.78 276.75 381.23 307.57 349.19 326.07" style="fill:#263238"></polygon><polygon points="349.19 326.07 295.79 295.24 292.23 264.42 349.19 297.3 349.19 326.07" style="fill:#37474f"></polygon><path d="M387,270.58a1.58,1.58,0,0,0-.94-1.31L330.1,237a5,5,0,0,0-4.55,0l-34.6,20a1.62,1.62,0,0,0-.95,1.32c0,.47,0,7.75,0,8.22a1.6,1.6,0,0,0,.95,1.32l56,32.31a5,5,0,0,0,4.55,0l34.61-20a1.59,1.59,0,0,0,.94-1.31Z" style="fill:#4D8D6E"></path><path d="M386.07,269.27,349.19,248v52.68a4.65,4.65,0,0,0,2.27-.55l34.61-20a1.59,1.59,0,0,0,.94-1.31v-8.23A1.58,1.58,0,0,0,386.07,269.27Z" style="opacity:0.2"></path><path d="M349.19,248,330.1,237a5,5,0,0,0-4.55,0l-34.6,20a1.62,1.62,0,0,0-.95,1.32c0,.47,0,7.75,0,8.22a1.6,1.6,0,0,0,.95,1.32l56,32.31a4.69,4.69,0,0,0,2.28.55Z" style="opacity:0.1"></path><path d="M351.46,291.87l34.61-20a1.39,1.39,0,0,0,0-2.63L330.1,237a5,5,0,0,0-4.55,0l-34.6,20c-1.26.73-1.26,1.91,0,2.63l56,32.31A5,5,0,0,0,351.46,291.87Z" style="fill:#4D8D6E"></path><path d="M301.13,259.28c-1,.56-.93,1.51.12,2.12l38.92,22.47a4.05,4.05,0,0,0,3.68.07c1-.57.93-1.52-.12-2.12l-38.92-22.48A4.08,4.08,0,0,0,301.13,259.28Z" style="opacity:0.2"></path><path d="M340.17,283.87a4.05,4.05,0,0,0,3.68.07,1.33,1.33,0,0,0,.19-.14,1.86,1.86,0,0,0-.31-.21l-38.92-22.47a4.05,4.05,0,0,0-3.68-.07l-.19.13a1.89,1.89,0,0,0,.31.22Z" style="opacity:0.2"></path><path d="M329.61,242.83c-1,.57-.94,1.52.11,2.13l38.93,22.47a4.09,4.09,0,0,0,3.67.07c1-.57.93-1.52-.11-2.13L333.28,242.9A4.09,4.09,0,0,0,329.61,242.83Z" style="opacity:0.2"></path><path d="M368.65,267.43a4.09,4.09,0,0,0,3.67.07l.19-.14a2.32,2.32,0,0,0-.3-.22l-38.93-22.47a4.09,4.09,0,0,0-3.67-.07l-.2.14.31.22Z" style="opacity:0.2"></path><path d="M365.21,269.56c1,.56.93,1.51-.12,2.12l-14,8.08a4,4,0,0,1-3.67.07c-1-.57-.93-1.52.11-2.13l14-8.08A4.08,4.08,0,0,1,365.21,269.56Z" style="opacity:0.2"></path><path d="M351.08,279.76a4,4,0,0,1-3.67.07,1.43,1.43,0,0,1-.2-.14,3.37,3.37,0,0,1,.31-.21l14-8.09a4.08,4.08,0,0,1,3.68-.06l.19.13a1.89,1.89,0,0,1-.31.22Z" style="opacity:0.2"></path><path d="M372.32,273.66c1,.57.93,1.52-.11,2.12l-14,8.09a4.06,4.06,0,0,1-3.67.06c-1-.56-.93-1.51.12-2.12l14-8.08A4.06,4.06,0,0,1,372.32,273.66Z" style="opacity:0.2"></path><path d="M358.19,283.87a4.06,4.06,0,0,1-3.67.06,1.56,1.56,0,0,1-.19-.13,1.89,1.89,0,0,1,.31-.22l14-8.08a4.09,4.09,0,0,1,3.67-.07l.2.14a3.37,3.37,0,0,1-.31.21Z" style="opacity:0.2"></path><path d="M322.5,244.89c1,.57.93,1.52-.12,2.13l-14,8.08a4.11,4.11,0,0,1-3.68.07c-1-.57-.93-1.52.12-2.13l14-8.08A4.11,4.11,0,0,1,322.5,244.89Z" style="opacity:0.2"></path><path d="M308.37,255.1a4.11,4.11,0,0,1-3.68.07l-.19-.14a1.89,1.89,0,0,1,.31-.22l14-8.08a4.11,4.11,0,0,1,3.68-.07l.19.14-.31.22Z" style="opacity:0.2"></path><path d="M329.61,249c1,.57.93,1.52-.12,2.12l-14,8.08a4.05,4.05,0,0,1-3.68.07c-1-.57-.93-1.52.12-2.12l14-8.08A4.05,4.05,0,0,1,329.61,249Z" style="opacity:0.2"></path><path d="M315.48,259.2a4.05,4.05,0,0,1-3.68.07l-.19-.13a1.89,1.89,0,0,1,.31-.22l14-8.08a4.05,4.05,0,0,1,3.68-.07,1.33,1.33,0,0,1,.19.14,1.86,1.86,0,0,1-.31.21Z" style="opacity:0.2"></path><path d="M349,256.06l-13.77-7.95a2.62,2.62,0,0,0-2.67-.26l-3.43,2a.39.39,0,0,0-.11.06,1.32,1.32,0,0,0-.25.16h0a1.45,1.45,0,0,0-.22.21,1.26,1.26,0,0,0-.19.25c-.06.09-.11.18-.17.29l-.12.31a2.34,2.34,0,0,0-.1.4,1.93,1.93,0,0,0-.06.36c0,.15,0,.31,0,.47v8l3.56,2.06v-6c0-1.21.85-1.7,1.9-1.1l1.66,1,8.78,5.07a4.21,4.21,0,0,1,1.9,3.29v6l3.55,2.06,3.56-2.06v-7.95A8.37,8.37,0,0,0,349,256.06Z" style="fill:#455a64"></path><path d="M335,256.19h0v4.1l-3.55,2.06v-6c0-1.21.85-1.7,1.9-1.1Z" style="fill:#263238"></path><path d="M349.18,264.68v8l-3.55-2.06v-6a4.21,4.21,0,0,0-1.9-3.29L335,256.2h0l-1.66-1c-1.05-.6-1.9-.11-1.9,1.1v6l-3.56-2.05v-8c0-.16,0-.32,0-.47a1.93,1.93,0,0,1,.06-.36,2.34,2.34,0,0,1,.1-.4l.12-.31c.06-.11.11-.2.17-.29a1.26,1.26,0,0,1,.19-.25,1.45,1.45,0,0,1,.22-.21h0a1.32,1.32,0,0,1,.25-.16.39.39,0,0,1,.11-.06,2.72,2.72,0,0,1,2.54.33l13.77,8A8.41,8.41,0,0,1,349.18,264.68Z" style="fill:#37474f"></path><polygon points="331.39 299.35 332.71 298.59 336.26 300.65 334.95 301.41 331.39 299.35" style="fill:#455a64"></polygon><polygon points="334.95 301.41 336.26 318.61 336.26 300.65 334.95 301.41" style="fill:#263238"></polygon><polygon points="331.39 299.35 332.7 316.56 332.27 316.35 331.39 299.35" style="fill:#37474f"></polygon><polygon points="361.18 302.7 359.87 301.94 356.31 304 357.62 304.76 361.18 302.7" style="fill:#455a64"></polygon><polygon points="361.18 302.7 359.87 319.91 360.3 319.7 361.18 302.7"></polygon><polygon points="375.42 294.48 374.1 293.72 370.55 295.78 371.86 296.54 375.42 294.48" style="fill:#455a64"></polygon><polygon points="356.31 321.96 357.62 304.76 356.31 304 356.31 321.96" style="fill:#37474f"></polygon><polygon points="370.55 295.78 370.55 313.74 371.86 296.54 370.55 295.78" style="fill:#37474f"></polygon><polygon points="375.42 294.48 374.11 311.69 374.54 311.48 375.42 294.48"></polygon><polygon points="306.47 284.97 307.79 284.21 311.35 286.26 310.03 287.02 306.47 284.97" style="fill:#455a64"></polygon><polygon points="310.03 287.02 311.35 304.22 311.35 286.26 310.03 287.02" style="fill:#263238"></polygon><polygon points="306.47 284.97 307.79 302.17 307.35 301.97 306.47 284.97" style="fill:#37474f"></polygon><polygon points="338.18 296.43 338.17 292.32 331.05 288.21 329.86 288.89 329.88 293 336.99 297.12 338.18 296.43" style="fill:#37474f"></polygon><polygon points="329.86 288.89 329.87 293 336.99 297.12 336.98 293 329.86 288.89" style="fill:#455a64"></polygon><polygon points="336.98 293 338.17 292.32 338.18 296.43 336.99 297.12 336.98 293" style="fill:#263238"></polygon><polygon points="313.07 281.95 313.06 277.84 305.94 273.73 304.75 274.41 304.76 278.52 311.88 282.63 313.07 281.95" style="fill:#37474f"></polygon><polygon points="304.75 274.41 304.76 278.52 311.88 282.63 311.87 278.52 304.75 274.41" style="fill:#455a64"></polygon><polygon points="311.87 278.52 313.06 277.84 313.07 281.95 311.88 282.63 311.87 278.52" style="fill:#263238"></polygon></g></g></g><g id="freepik--Cone--inject-10"><g id="freepik--cone--inject-10"><path d="M204.65,300.17l-39.36-22.73a5.87,5.87,0,0,0-5.29,0l-39.35,22.73a1.86,1.86,0,0,0-1.08,1.53v2.87a1.83,1.83,0,0,0,1.08,1.52L160,328.81a5.87,5.87,0,0,0,5.29,0l39.36-22.72a1.84,1.84,0,0,0,1.09-1.52V301.7A1.87,1.87,0,0,0,204.65,300.17Z" style="fill:#4D8D6E"></path><path d="M205.74,301.7v2.87a1.84,1.84,0,0,1-1.09,1.52l-39.36,22.72a5.42,5.42,0,0,1-2.64.63V276.81a5.42,5.42,0,0,1,2.64.63l39.36,22.73A1.87,1.87,0,0,1,205.74,301.7Z" style="opacity:0.1"></path><path d="M162.65,276.81v52.63a5.46,5.46,0,0,1-2.65-.63l-39.35-22.72a1.83,1.83,0,0,1-1.08-1.52V301.7a1.86,1.86,0,0,1,1.08-1.53L160,277.44A5.46,5.46,0,0,1,162.65,276.81Z" style="opacity:0.30000000000000004"></path><path d="M160,326l-39.36-22.72c-1.46-.85-1.46-2.21,0-3.06L160,277.45a5.85,5.85,0,0,1,5.28,0l39.36,22.72c1.46.85,1.46,2.21,0,3.06L165.3,326A5.87,5.87,0,0,1,160,326Z" style="fill:#4D8D6E"></path><path d="M160,326l-39.36-22.72c-1.46-.85-1.46-2.21,0-3.06L160,277.45a5.85,5.85,0,0,1,5.28,0l39.36,22.72c1.46.85,1.46,2.21,0,3.06L165.3,326A5.87,5.87,0,0,1,160,326Z" style="fill:#fff;opacity:0.5"></path><path d="M162.65,276.82a5.4,5.4,0,0,0-2.64.63l-39.36,22.72c-1.46.85-1.46,2.21,0,3.06L160,326a5.4,5.4,0,0,0,2.64.63Z" style="opacity:0.05"></path><path d="M187,298.83h0l-17.41-52.31v0l0-.05h0a4,4,0,0,0-1.89-2,11,11,0,0,0-9.92,0,4,4,0,0,0-1.89,2h0l0,.05v0l-17.41,52.31h0c-1.61,4.55.64,9.47,6.75,13,9.69,5.6,25.39,5.6,35.08,0C186.3,308.3,188.55,303.38,187,298.83Z" style="fill:#4D8D6E"></path><path d="M174.53,261.53v-.06L172,254a3.63,3.63,0,0,1-1.08,3.75,7.51,7.51,0,0,1-1.55,1.18,15,15,0,0,1-13.52,0,7.51,7.51,0,0,1-1.55-1.18,3.65,3.65,0,0,1-1.08-3.76l-2.48,7.46v0a4.28,4.28,0,0,0,.55,3.74,7.92,7.92,0,0,0,2.78,2.51,14.08,14.08,0,0,0,3,1.23,20.14,20.14,0,0,0,11.1,0,14.08,14.08,0,0,0,3-1.23,8,8,0,0,0,2.79-2.51A4.28,4.28,0,0,0,174.53,261.53Z" style="fill:#fafafa"></path><path d="M184.51,291.5v-.05L182,284a6.71,6.71,0,0,1,.14,3.74,8.58,8.58,0,0,1-2.1,3.76,14.64,14.64,0,0,1-3.46,2.7c-7.71,4.45-20.19,4.45-27.89,0a14.5,14.5,0,0,1-3.47-2.7,8.46,8.46,0,0,1-2.09-3.76,6.67,6.67,0,0,1,.13-3.73l-2.47,7.43,0,.07a7.56,7.56,0,0,0-.28,3.74c.51,2.84,2.64,5.59,6.4,7.76,8.69,5,22.79,5,31.48,0,3.76-2.17,5.89-4.92,6.4-7.76A7.6,7.6,0,0,0,184.51,291.5Z" style="fill:#fafafa"></path><path d="M179.52,276.51v-.05L177,269a5,5,0,0,1-.24,3.74,8.7,8.7,0,0,1-3.68,3.75l-.11.07c-5.72,3.3-15,3.3-20.7,0l-.11-.07a8.7,8.7,0,0,1-3.68-3.75,5,5,0,0,1-.24-3.74l-2.47,7.44,0,.05a5.83,5.83,0,0,0,0,3.76,8.41,8.41,0,0,0,2.72,3.73,14,14,0,0,0,2,1.39,21.74,21.74,0,0,0,6.6,2.37,29.6,29.6,0,0,0,11.1,0,21.74,21.74,0,0,0,6.6-2.37,13.42,13.42,0,0,0,2-1.39,8.44,8.44,0,0,0,2.73-3.73A5.9,5.9,0,0,0,179.52,276.51Z" style="fill:#fafafa"></path><path d="M162.65,243.23a10.16,10.16,0,0,0-5,1.19,4,4,0,0,0-1.89,2h0l0,.05v0l-17.41,52.31h0c-1.61,4.55.64,9.47,6.75,13,4.85,2.8,11.19,4.2,17.54,4.2l-.15,0a14.72,14.72,0,0,1-12.05-16.64l7.24-52.08Z" style="opacity:0.1"></path><path d="M157.69,250.15c-2.74-1.58-2.74-4.15,0-5.73a11,11,0,0,1,9.92,0c2.74,1.58,2.74,4.15,0,5.73A11,11,0,0,1,157.69,250.15Z" style="fill:#4D8D6E"></path><path d="M157.69,250.15c-2.74-1.58-2.74-4.15,0-5.73a11,11,0,0,1,9.92,0c2.74,1.58,2.74,4.15,0,5.73A11,11,0,0,1,157.69,250.15Z" style="fill:#fff;opacity:0.5"></path></g></g><g id="freepik--Bricks--inject-10"><g id="freepik--bricks--inject-10"><polygon points="100.55 427.18 137.54 405.82 137.54 402.84 116.41 390.65 79.43 412 79.43 414.98 100.55 427.18" style="fill:#4D8D6E"></polygon><polygon points="100.55 427.18 137.54 405.82 137.54 402.84 116.41 390.65 79.43 412 79.43 414.98 100.55 427.18" style="opacity:0.1"></polygon><polygon points="116.41 390.65 79.43 412 100.55 424.2 137.54 402.84 116.41 390.65" style="fill:#4D8D6E"></polygon><polygon points="116.41 390.65 79.43 412 100.55 424.2 137.54 402.84 116.41 390.65" style="fill:#fff;opacity:0.2"></polygon><polygon points="100.55 427.18 100.55 424.2 79.43 412 79.43 414.98 100.55 427.18" style="opacity:0.1"></polygon><polygon points="100.57 424.21 79.43 412 79.46 424.18 100.6 436.39 100.57 424.21" style="fill:#4D8D6E"></polygon><polygon points="100.57 424.21 79.43 412 79.46 424.18 100.6 436.39 100.57 424.21" style="opacity:0.2"></polygon><polygon points="103.18 434.9 103.13 422.71 100.55 424.2 100.6 436.39 103.18 434.9" style="fill:#4D8D6E"></polygon><polygon points="103.18 434.9 103.13 422.71 100.55 424.2 100.6 436.39 103.18 434.9" style="opacity:0.1"></polygon><polygon points="137.59 415.03 137.54 402.84 100.55 424.2 100.6 436.39 137.59 415.03" style="fill:#4D8D6E"></polygon><polygon points="128.15 442.73 165.14 421.38 165.14 418.4 144.02 406.2 107.03 427.56 107.03 430.54 128.15 442.73" style="fill:#4D8D6E"></polygon><polygon points="128.15 442.73 165.14 421.38 165.14 418.4 144.02 406.2 107.03 427.56 107.03 430.54 128.15 442.73" style="opacity:0.1"></polygon><polygon points="144.02 406.2 107.03 427.56 128.15 439.75 165.14 418.4 144.02 406.2" style="fill:#4D8D6E"></polygon><polygon points="144.02 406.2 107.03 427.56 128.15 439.75 165.14 418.4 144.02 406.2" style="fill:#fff;opacity:0.2"></polygon><polygon points="128.15 442.73 128.15 439.75 107.03 427.56 107.03 430.54 128.15 442.73" style="opacity:0.1"></polygon><polygon points="128.17 439.76 107.03 427.56 107.06 439.73 128.2 451.94 128.17 439.76" style="fill:#4D8D6E"></polygon><polygon points="128.17 439.76 107.03 427.56 107.06 439.73 128.2 451.94 128.17 439.76" style="opacity:0.2"></polygon><polygon points="130.78 450.45 130.73 438.26 128.15 439.75 128.2 451.94 130.78 450.45" style="fill:#4D8D6E"></polygon><polygon points="130.78 450.45 130.73 438.26 128.15 439.75 128.2 451.94 130.78 450.45" style="opacity:0.1"></polygon><polygon points="165.19 430.59 165.14 418.4 128.15 439.75 128.2 451.94 165.19 430.59" style="fill:#4D8D6E"></polygon><polygon points="118.98 421.08 155.97 399.73 155.97 396.75 134.84 384.55 97.85 405.91 97.86 408.89 118.98 421.08" style="fill:#4D8D6E"></polygon><polygon points="118.98 421.08 155.97 399.73 155.97 396.75 134.84 384.55 97.85 405.91 97.86 408.89 118.98 421.08" style="opacity:0.1"></polygon><polygon points="134.84 384.55 97.85 405.91 118.98 418.1 155.97 396.75 134.84 384.55" style="fill:#4D8D6E"></polygon><polygon points="134.84 384.55 97.85 405.91 118.98 418.1 155.97 396.75 134.84 384.55" style="fill:#fff;opacity:0.25"></polygon><polygon points="118.98 421.08 118.98 418.1 97.85 405.91 97.86 408.89 118.98 421.08" style="opacity:0.1"></polygon><polygon points="119 418.11 97.85 405.91 97.89 418.09 119.03 430.29 119 418.11" style="fill:#4D8D6E"></polygon><polygon points="119 418.11 97.85 405.91 97.89 418.09 119.03 430.29 119 418.11" style="opacity:0.2"></polygon><polygon points="121.61 428.8 121.56 416.61 118.98 418.1 119.03 430.29 121.61 428.8" style="fill:#4D8D6E"></polygon><polygon points="121.61 428.8 121.56 416.61 118.98 418.1 119.03 430.29 121.61 428.8" style="opacity:0.1"></polygon><polygon points="156.01 408.94 155.97 396.75 118.98 418.1 119.03 430.29 156.01 408.94" style="fill:#4D8D6E"></polygon></g><g id="freepik--bricks--inject-10"><polygon points="399.55 427.18 362.56 405.82 362.56 402.84 383.68 390.65 420.67 412 420.67 414.98 399.55 427.18" style="fill:#4D8D6E"></polygon><polygon points="399.55 427.18 362.56 405.82 362.56 402.84 383.68 390.65 420.67 412 420.67 414.98 399.55 427.18" style="opacity:0.1"></polygon><polygon points="383.68 390.65 420.67 412 399.55 424.2 362.56 402.84 383.68 390.65" style="fill:#4D8D6E"></polygon><polygon points="383.68 390.65 420.67 412 399.55 424.2 362.56 402.84 383.68 390.65" style="fill:#fff;opacity:0.2"></polygon><polygon points="399.55 427.18 399.55 424.2 420.67 412 420.67 414.98 399.55 427.18" style="opacity:0.1"></polygon><polygon points="399.53 424.21 420.67 412 420.64 424.18 399.5 436.39 399.53 424.21" style="fill:#4D8D6E"></polygon><polygon points="399.53 424.21 420.67 412 420.64 424.18 399.5 436.39 399.53 424.21" style="opacity:0.2"></polygon><polygon points="396.92 434.9 396.97 422.71 399.55 424.2 399.5 436.39 396.92 434.9" style="fill:#4D8D6E"></polygon><polygon points="396.92 434.9 396.97 422.71 399.55 424.2 399.5 436.39 396.92 434.9" style="opacity:0.1"></polygon><polygon points="362.51 415.03 362.56 402.84 399.55 424.2 399.5 436.39 362.51 415.03" style="fill:#4D8D6E"></polygon><polygon points="371.94 442.73 334.96 421.38 334.96 418.4 356.08 406.2 393.07 427.56 393.07 430.54 371.94 442.73" style="fill:#4D8D6E"></polygon><polygon points="371.94 442.73 334.96 421.38 334.96 418.4 356.08 406.2 393.07 427.56 393.07 430.54 371.94 442.73" style="opacity:0.1"></polygon><polygon points="356.08 406.2 393.07 427.56 371.94 439.75 334.96 418.4 356.08 406.2" style="fill:#4D8D6E"></polygon><polygon points="356.08 406.2 393.07 427.56 371.94 439.75 334.96 418.4 356.08 406.2" style="fill:#fff;opacity:0.2"></polygon><polygon points="371.94 442.73 371.94 439.75 393.07 427.56 393.07 430.54 371.94 442.73" style="opacity:0.1"></polygon><polygon points="371.93 439.76 393.07 427.56 393.04 439.73 371.9 451.94 371.93 439.76" style="fill:#4D8D6E"></polygon><polygon points="371.93 439.76 393.07 427.56 393.04 439.73 371.9 451.94 371.93 439.76" style="opacity:0.2"></polygon><polygon points="369.32 450.45 369.36 438.26 371.94 439.75 371.89 451.94 369.32 450.45" style="fill:#4D8D6E"></polygon><polygon points="369.32 450.45 369.36 438.26 371.94 439.75 371.89 451.94 369.32 450.45" style="opacity:0.1"></polygon><polygon points="334.91 430.59 334.96 418.4 371.94 439.75 371.9 451.94 334.91 430.59" style="fill:#4D8D6E"></polygon><polygon points="381.12 421.08 344.13 399.73 344.13 396.75 365.26 384.55 402.24 405.91 402.24 408.89 381.12 421.08" style="fill:#4D8D6E"></polygon><polygon points="381.12 421.08 344.13 399.73 344.13 396.75 365.26 384.55 402.24 405.91 402.24 408.89 381.12 421.08" style="opacity:0.1"></polygon><polygon points="365.26 384.55 402.24 405.91 381.12 418.1 344.13 396.75 365.26 384.55" style="fill:#4D8D6E"></polygon><polygon points="365.26 384.55 402.24 405.91 381.12 418.1 344.13 396.75 365.26 384.55" style="fill:#fff;opacity:0.25"></polygon><polygon points="381.12 421.08 381.12 418.1 402.24 405.91 402.24 408.89 381.12 421.08" style="opacity:0.1"></polygon><polygon points="381.1 418.11 402.24 405.91 402.21 418.09 381.07 430.29 381.1 418.11" style="fill:#4D8D6E"></polygon><polygon points="381.1 418.11 402.24 405.91 402.21 418.09 381.07 430.29 381.1 418.11" style="opacity:0.2"></polygon><polygon points="378.49 428.8 378.54 416.61 381.12 418.1 381.07 430.29 378.49 428.8" style="fill:#4D8D6E"></polygon><polygon points="378.49 428.8 378.54 416.61 381.12 418.1 381.07 430.29 378.49 428.8" style="opacity:0.1"></polygon><polygon points="344.08 408.94 344.13 396.75 381.12 418.1 381.07 430.29 344.08 408.94" style="fill:#4D8D6E"></polygon></g></g><g id="freepik--character-3--inject-10"><g id="freepik--Chartacter--inject-10"><g id="freepik--Bottom--inject-10"><path d="M399,332.2l1.63-15.06-17.44,1.14s.27,8.17.51,12.8c.15,2.73-3.58,7.81-3.58,7.81s8.19,4.34,12.58,2.82,6.71-6.91,6.65-8.09S399,332.2,399,332.2Z" style="fill:#ffbda7"></path><path d="M357,355.73c-.28,0-.74,2.79.74,4,1.7,1.41,6.73,3.75,13.43,3.06s10.36-2.54,13.07-4.56,6.51-4.89,9.55-5.46c2.82-.52,5.89-1.65,6.8-2.44s.85-4.37.85-4.37Z" style="fill:#263238"></path><path d="M399,332.17a1.08,1.08,0,0,1,1,.86c.19,1,.36,3.85.78,5.48a27,27,0,0,1,.52,8.69c-.4,1.83-5,3-7.95,4a37.45,37.45,0,0,0-9.58,5.38c-3.19,2.34-9.84,4.73-14.2,4.62-5.16-.12-10.94-1.76-12.24-4-1.6-2.76-2.75-6,5-9.12,1.45-.59,6.59-3.29,8.34-4.27,4.73-2.65,8.07-5.1,10.31-9.9a2.74,2.74,0,0,1,1.12-1.46,2.68,2.68,0,0,1,1.49-.1c1.28.19,6.35.92,7.5,1.45s2.47,1,2.43,2.24a4.12,4.12,0,0,1-.31,1.23c-.1.25-.17.58.06.73s.51,0,.72-.17a18.74,18.74,0,0,0,2.1-2.26,6.59,6.59,0,0,1,1.23-1.12,14.17,14.17,0,0,0,1.32-.76C399.09,333.28,399,332.74,399,332.17Z" style="fill:#455a64"></path><path d="M383.79,356.59a49.07,49.07,0,0,1,4.22-2.81h0s-9.08,4.91-12.68,2.55c-2.32-1.52-1.17-3.3-1.11-3.87s-8.13-4.77-10.4-5.06h0c-.64.32-1.18.57-1.51.7-7.71,3.15-6.56,6.36-5,9.12,1.3,2.24,5.48,4,12.15,4.15C373.86,361.43,380.6,358.93,383.79,356.59Z" style="fill:#37474f"></path><path d="M374.88,350.78c-4.79,1.68-2.77,2.54-1.44,2.74s9.4-4,14.35-7.49c5.15-3.64,8.43-7.66,10.35-9,.71-.49,1.48-1.11,2.16-1.68-.11-1-.19-1.86-.28-2.32a1.08,1.08,0,0,0-1-.86c0,.57.07,1.11-.4,1.53a14.17,14.17,0,0,1-1.32.76,6.59,6.59,0,0,0-1.23,1.12,18.74,18.74,0,0,1-2.1,2.26C389.73,342.64,379.66,349.11,374.88,350.78Z" style="fill:#37474f"></path><path d="M373.79,352.88a.49.49,0,0,0,.3-.1.41.41,0,0,0,.07-.61c-1.32-1.54-7.62-5.26-11.13-5a.43.43,0,0,0-.42.47.46.46,0,0,0,.51.4c3.27-.27,9.26,3.41,10.3,4.63A.48.48,0,0,0,373.79,352.88Z" style="fill:#263238"></path><path d="M378,350.59a.45.45,0,0,0,.3-.1.41.41,0,0,0,.08-.61c-1.32-1.54-7.62-5.26-11.13-5a.43.43,0,0,0-.42.47.46.46,0,0,0,.51.4c3.27-.27,9.26,3.41,10.3,4.63A.51.51,0,0,0,378,350.59Z" style="fill:#263238"></path><path d="M382.16,348.42a.47.47,0,0,0,.3-.1.41.41,0,0,0,.08-.61c-1.32-1.54-7.62-5.26-11.13-5a.43.43,0,0,0-.42.47.46.46,0,0,0,.51.4c3.27-.27,9.26,3.41,10.3,4.63A.48.48,0,0,0,382.16,348.42Z" style="fill:#263238"></path><path d="M386.05,345.93a.49.49,0,0,0,.3-.1.42.42,0,0,0,.08-.61c-1.32-1.54-7.64-5.26-11.13-5a.45.45,0,0,0-.43.47.47.47,0,0,0,.51.4c3.28-.27,9.26,3.41,10.31,4.63A.46.46,0,0,0,386.05,345.93Z" style="fill:#263238"></path><path d="M389.86,343.44a.5.5,0,0,0,.29-.09.41.41,0,0,0,.09-.61c-1.81-2.19-8.42-5.32-11.93-5a.43.43,0,0,0-.42.47.45.45,0,0,0,.51.39c3.15-.26,9.49,2.75,11.09,4.68A.53.53,0,0,0,389.86,343.44Z" style="fill:#263238"></path><path d="M433.5,340.41l-4-14.26,17.75-2.72.79,13.81s1.89,4.93.81,6.75-12.89,3.87-14,2.68S433.5,340.41,433.5,340.41Z" style="fill:#ffbda7"></path><path d="M435.32,371.53c.58,4.42,1.56,7.28,3.53,9.65s5.42,2.73,8.82,1.5,7.68-3.87,8.43-7.85.37-6.6-.67-10.63Z" style="fill:#263238"></path><path d="M448.06,337.24c1.43-.09,1.15,6,2.35,11.87,1.28,6.31,3.64,8.67,4.76,13.83,1.28,5.9,1.09,8.64-1.09,12.61s-10.45,8.68-15,4c-3.69-3.79-4.13-8.49-4.2-14.54a133.3,133.3,0,0,0-.66-15.35c-.56-4.47-1.94-8.44-.74-9.11.14.65.29,1.48.43,2.12s.41,2.91,1.2,2.82a8.08,8.08,0,0,0-.09-1.7,1.87,1.87,0,0,1,.3-1.5,6.52,6.52,0,0,1,2.28-1.19c1.38-.43,3.85-1,5.26-1.28.71-.15,1.42-.28,2.13-.37a6.46,6.46,0,0,1,1.81,0,1.15,1.15,0,0,1,.81.51,2,2,0,0,1,.12.68,4.14,4.14,0,0,0,.25,1.21c.06.17.22.37.42.3a.39.39,0,0,0,.21-.4c0-.72-.18-1.24-.27-2.08-.05-.38-.15-.91-.18-1.3S448.12,337.62,448.06,337.24Z" style="fill:#455a64"></path><path d="M454.74,361.27c.19.85,1.4,6.49-.32,7.77s-3.21-3-3.21-3-4.61-.6-11,2.82c.4.89-.42,4.1-2.27,3.7s-3-6.91-3-7c.09,5.8.61,10.34,4.19,14,4.53,4.64,12.81-.08,15-4s2.37-6.71,1.09-12.61C455,362.35,454.9,361.8,454.74,361.27Z" style="fill:#37474f"></path><path d="M450.72,366.5c.16,2.17,2.56,1.11,2.48-2s-2.47-10.12-2.79-15.41c-.52-7.26-.92-12-2.35-11.87a1.64,1.64,0,0,1,0,.22l.38,3c.07.44.14.83.17,1.29.31,4.44.49,13.06,1.19,17.06A63.45,63.45,0,0,1,450.72,366.5Z" style="fill:#37474f"></path><path d="M440.92,368.7a61.47,61.47,0,0,1-1.83-7.46c-.75-4-3.26-11.87-4.51-16.12a9.86,9.86,0,0,1-.65-2.41c-.13-.6-.27-1.35-.4-2l0-.13c-.87.5-.52,3.93,0,5.71s1.08,3.67,1.69,6.22c1.55,5,1.79,12.57,2.78,15.46S441.53,370.77,440.92,368.7Z" style="fill:#37474f"></path><path d="M440,369.06a.71.71,0,0,0,.18-.08,19.7,19.7,0,0,1,10.88-2.47.59.59,0,0,0,.62-.42.42.42,0,0,0-.41-.51,20.54,20.54,0,0,0-11.63,2.65.45.45,0,0,0-.18.65A.53.53,0,0,0,440,369.06Z" style="fill:#263238"></path><path d="M438.55,364.49a.49.49,0,0,0,.17-.06,24.32,24.32,0,0,1,12.18-2.77.57.57,0,0,0,.61-.43.43.43,0,0,0-.43-.5,25.35,25.35,0,0,0-12.87,2.92.47.47,0,0,0-.21.65A.51.51,0,0,0,438.55,364.49Z" style="fill:#263238"></path><path d="M450.27,357.22a.56.56,0,0,0,.43-.37.43.43,0,0,0-.37-.54c-6.49-1-12.6,2.65-12.85,2.81a.46.46,0,0,0-.19.66.57.57,0,0,0,.73.09c.05,0,6-3.61,12-2.64A.55.55,0,0,0,450.27,357.22Z" style="fill:#263238"></path><path d="M449.64,353a.59.59,0,0,0,.42-.36.42.42,0,0,0-.36-.55,19.07,19.07,0,0,0-13.11,2.81.46.46,0,0,0-.14.66.56.56,0,0,0,.73.06A18.21,18.21,0,0,1,449.4,353,.49.49,0,0,0,449.64,353Z" style="fill:#263238"></path><path d="M448.9,348.34a.58.58,0,0,0,.42-.35.42.42,0,0,0-.34-.56c-6.7-1.27-12.94,2.78-13.2,3a.45.45,0,0,0-.16.66.56.56,0,0,0,.73.07c.06,0,6.09-3.95,12.31-2.77A.65.65,0,0,0,448.9,348.34Z" style="fill:#263238"></path><path d="M437.2,189.71c4.05,33.78,7.43,82.26,7.43,82.26.29,2.66,2.22,7.18,3.72,20.29,1.58,13.82,2.28,49.87,2.28,49.87-1.65,5.3-14.58,7.88-18.56,2.77,0,0-11.9-43.21-15.58-59.6-3.79-16.83-7.84-41.79-7.84-41.79l-2.18,25s.76,8.58.59,15.57c-.2,8.14-6.26,54.41-6.26,54.41s-12.52,3.08-20.66-3c0,0-2.27-55.77-2.67-65.54-.78-19.17,2-58.58,2.21-83.36Z" style="fill:#37474f"></path><path d="M408.65,243.51l-4.41-24.86s-9.4-1.22-14.28-5.51c0,0,3.2,5.74,12.08,7.84l4.36,22.63.07,24.92Z" style="opacity:0.2"></path></g><g id="freepik--Top--inject-10"><path d="M392.33,119.5c-7.92.38-11.75,3-22.71,10.18-9.51,6.23-27.86,17.58-27.86,17.58S339.62,163,349,163c3.74,0,8.87-.94,15.12-4.13,8.74-4.46,16.67-9,16.67-9Z" style="fill:#37474f"></path><path d="M354.08,113c-.86-2-1.52-3.55-2.19-5.18a9.2,9.2,0,0,1-.45-3.92c0-1.61-.27-3.68.45-4s2.22.27,3,2,.5,3.33,1.37,4.55,1.32,1.82,1.32,1.82Z" style="fill:#f0997a"></path><path d="M350.17,97.65a1.51,1.51,0,0,1,.11-1.33c.13-.24.67-1.22.82-1.48.51-.93,2-1.8,4.56-1.85,3.88-.07,7.43,1.75,8.37,2.94s4.56,7.34,5.13,8.53c1.35,2.82,2.47,5.33,4,8.54,1.49,3,2.08,5,1.79,5.52l-.82,1.48-.06.08a7.64,7.64,0,0,1-3.45.65,13.1,13.1,0,0,1-4.15-.51c-.87-.35-2.73-2.35-5-5.55s-4.17-5.69-6.21-8.49C354.44,105,350.67,98.85,350.17,97.65Z" style="fill:#4D8D6E"></path><path d="M374.2,120c.15-.26.78-1.4.8-1.44.29-.53-.3-2.51-1.79-5.52-1.58-3.21-2.7-5.72-4-8.54-.58-1.19-4.21-7.33-5.14-8.53l-.82,1.47c.94,1.2,4.57,7.34,5.14,8.53,1.35,2.82,2.47,5.34,4,8.54C373.86,117.43,374.45,119.38,374.2,120Z" style="opacity:0.30000000000000004"></path><path d="M354.85,94.46c-3.89.07-5.19,2-4.68,3.19s4.27,7.34,5.13,8.53c2,2.8,3.94,5.3,6.21,8.49s4.14,5.2,5,5.55a13.1,13.1,0,0,0,4.15.51,7.64,7.64,0,0,0,3.45-.65c.43-.37-.14-2.4-1.72-5.61s-2.7-5.72-4-8.54c-.57-1.19-4.2-7.33-5.14-8.53S358.73,94.39,354.85,94.46Z" style="fill:#4D8D6E"></path><path d="M354.85,94.46c-3.89.07-5.19,2-4.68,3.19s4.27,7.34,5.13,8.53c2,2.8,3.94,5.3,6.21,8.49s4.14,5.2,5,5.55a13.1,13.1,0,0,0,4.15.51,7.64,7.64,0,0,0,3.45-.65c.43-.37-.14-2.4-1.72-5.61s-2.7-5.72-4-8.54c-.57-1.19-4.2-7.33-5.14-8.53S358.73,94.39,354.85,94.46Z" style="fill:#fff;opacity:0.2"></path><path d="M348,100a2,2,0,0,1,.12-1.76c.23-.4,1.11-2,1.35-2.44.59-1.06,2.15-2,4.92-2,4.29-.08,8.23,2,9.42,3.52,1,1.24,4.67,7.48,5.27,8.74.52,1.08,1,2.14,1.49,3.16.78,1.67,1.59,3.39,2.56,5.36,1.12,2.28,2.3,5.1,1.81,6,0,.07-1.16,2.11-1.36,2.46a.64.64,0,0,1-.13.15c-.55.48-2.33.73-3.74.75a13.9,13.9,0,0,1-4.55-.59c-1.58-.64-4-3.66-5.7-6.09-1.39-2-2.66-3.67-3.89-5.33-.75-1-1.53-2.07-2.31-3.15C352.38,107.47,348.56,101.24,348,100Z" style="fill:#37474f"></path><path d="M373.61,123l1.36-2.46c.49-.9-.69-3.72-1.81-6-1-2-1.78-3.69-2.56-5.36-.47-1-1-2.08-1.49-3.16-.6-1.26-4.29-7.5-5.27-8.74l-1.35,2.45c1,1.24,4.67,7.48,5.27,8.74.52,1.08,1,2.14,1.49,3.16.78,1.67,1.58,3.4,2.55,5.37C372.93,119.27,374.11,122.09,373.61,123Z" style="fill:#263238"></path><path d="M369.74,123.89c1.41,0,3.19-.27,3.74-.75.79-.67-.48-3.72-1.68-6.15-1-2-1.77-3.7-2.55-5.37-.48-1-1-2.08-1.49-3.16-.6-1.26-4.29-7.5-5.27-8.74-1.2-1.53-5.14-3.59-9.43-3.51s-5.68,2.24-5,3.78c.53,1.25,4.35,7.48,5.26,8.74.78,1.08,1.56,2.13,2.31,3.15,1.23,1.66,2.5,3.37,3.89,5.33,1.73,2.43,4.12,5.45,5.7,6.09A13.9,13.9,0,0,0,369.74,123.89Z" style="fill:#455a64"></path><path d="M348,101.57a1.51,1.51,0,0,1,.11-1.33c.14-.24.68-1.21.82-1.47.52-.93,2-1.81,4.56-1.86,3.88-.07,7.43,1.75,8.37,3s4.57,7.33,5.14,8.53c1.34,2.82,2.46,5.33,4,8.53,1.49,3,2.08,5,1.79,5.53,0,0-.71,1.29-.82,1.47L372,124a7.5,7.5,0,0,1-3.45.65,13.1,13.1,0,0,1-4.15-.51c-.87-.34-2.73-2.35-5-5.54s-4.18-5.69-6.22-8.5C352.27,108.91,348.5,102.77,348,101.57Z" style="fill:#4D8D6E"></path><path d="M372,123.89l.8-1.44c.29-.54-.3-2.51-1.79-5.53-1.58-3.2-2.7-5.71-4-8.53-.57-1.2-4.2-7.34-5.14-8.53l-.82,1.47c.94,1.19,4.57,7.33,5.14,8.53,1.35,2.82,2.47,5.33,4.05,8.53C371.69,121.35,372.28,123.31,372,123.89Z" style="opacity:0.2"></path><path d="M352.68,98.39c-3.89.07-5.19,2-4.68,3.18s4.27,7.34,5.13,8.53c2,2.81,3.94,5.3,6.22,8.5s4.13,5.2,5,5.54a13.1,13.1,0,0,0,4.15.51A7.5,7.5,0,0,0,372,124c.43-.37-.14-2.4-1.72-5.61s-2.7-5.71-4.05-8.53c-.57-1.2-4.2-7.34-5.14-8.53S356.56,98.31,352.68,98.39Z" style="fill:#4D8D6E"></path><path d="M352.68,98.39c-3.89.07-5.19,2-4.68,3.18s4.27,7.34,5.13,8.53c2,2.81,3.94,5.3,6.22,8.5s4.13,5.2,5,5.54a13.1,13.1,0,0,0,4.15.51A7.5,7.5,0,0,0,372,124c.43-.37-.14-2.4-1.72-5.61s-2.7-5.71-4.05-8.53c-.57-1.2-4.2-7.34-5.14-8.53S356.56,98.31,352.68,98.39Z" style="fill:#fff;opacity:0.2"></path><path d="M363.09,99.63l.81-1.47q.06-.09.12-.09h.57a.17.17,0,0,1,.12.08l1.52,2.36a.46.46,0,0,1,0,.41l-.81,1.47a.17.17,0,0,1-.12.09h-.56a.15.15,0,0,1-.12-.09L363.11,100A.46.46,0,0,1,363.09,99.63Z" style="fill:#4D8D6E"></path><path d="M364.71,98.14l1.52,2.36a.46.46,0,0,1,0,.41l-.81,1.47c-.06.11-.17.12-.24,0L363.67,100a.46.46,0,0,1,0-.41l.81-1.47C364.53,98,364.64,98,364.71,98.14Z" style="opacity:0.2"></path><path d="M363.11,100l1.52,2.36a.15.15,0,0,0,.12.08h.55a.19.19,0,0,1-.11-.09L363.67,100a.37.37,0,0,1-.06-.21h-.56A.37.37,0,0,0,363.11,100Z" style="fill:#fff;opacity:0.2"></path><path d="M365.51,103.27l.81-1.46q.06-.09.12-.09H367a.17.17,0,0,1,.12.09l1.32,2.25a.45.45,0,0,1,0,.42l-.81,1.47a.14.14,0,0,1-.12.08H367s-.08,0-.12-.09l-1.32-2.25A.48.48,0,0,1,365.51,103.27Z" style="fill:#4D8D6E"></path><path d="M367.11,101.82l1.32,2.25a.45.45,0,0,1,0,.42l-.81,1.47c-.06.11-.17.11-.24,0l-1.32-2.25a.48.48,0,0,1,0-.42l.81-1.46A.13.13,0,0,1,367.11,101.82Z" style="opacity:0.2"></path><path d="M365.52,103.69l1.32,2.25q.06.09.12.09h.54a.16.16,0,0,1-.11-.09l-1.32-2.25a.43.43,0,0,1-.05-.21h-.55A.46.46,0,0,0,365.52,103.69Z" style="fill:#fff;opacity:0.2"></path><path d="M348.19,96a.82.82,0,0,1,.07-.83,2.56,2.56,0,0,1,2-1.21.81.81,0,0,1,.76.33l.3.5a.8.8,0,0,1-.06.82,2.42,2.42,0,0,1-.86.85,10.31,10.31,0,0,0-1.46.77C348.81,97,348.32,96.18,348.19,96Z" style="fill:#263238"></path><path d="M351,95.1a2.58,2.58,0,0,1-2,1.2.83.83,0,0,1-.76-.32.82.82,0,0,1,.07-.83,2.56,2.56,0,0,1,2-1.21.81.81,0,0,1,.76.33A.81.81,0,0,1,351,95.1Z" style="fill:#455a64"></path><path d="M347.61,94.63a.73.73,0,0,1,.06-.73,2.29,2.29,0,0,1,1.76-1.06.73.73,0,0,1,.68.29l.7,1.17a.73.73,0,0,1-.06.73A2.29,2.29,0,0,1,349,96.09a.74.74,0,0,1-.67-.29Z" style="fill:#37474f"></path><path d="M350.05,93.86a2.29,2.29,0,0,1-1.77,1.06.75.75,0,0,1-.67-.29.73.73,0,0,1,.06-.73,2.29,2.29,0,0,1,1.76-1.06.63.63,0,0,1,.62,1Z" style="fill:#455a64"></path><path d="M360.65,94.42a.81.81,0,0,0-.76-.33,2.54,2.54,0,0,0-2,1.21.8.8,0,0,0-.07.82l.3.5c.12.21.34.29.81.47a19,19,0,0,1,2,1c1.05.57,2,.1,1.08-1.41C361.88,96.45,360.78,94.63,360.65,94.42Z" style="fill:#263238"></path><path d="M358.58,96.45a2.58,2.58,0,0,0,2-1.2.81.81,0,0,0,.06-.83.81.81,0,0,0-.76-.33,2.54,2.54,0,0,0-2,1.21.71.71,0,0,0,.69,1.15Z" style="fill:#455a64"></path><path d="M349.14,80.24h0a.45.45,0,0,1,0-.44,1.42,1.42,0,0,1,1.08-.65.42.42,0,0,1,.41.18h0c.77,1.15,8.57,13.13,9.76,15.11h0a.73.73,0,0,1-.06.73,2.29,2.29,0,0,1-1.76,1.06.76.76,0,0,1-.68-.29h0C356.76,94,349.79,81.43,349.14,80.24Z" style="fill:#37474f"></path><path d="M348.78,79.65a.91.91,0,0,1,.31-1.23.89.89,0,0,1,1.22.31h0l.36.6a.44.44,0,0,1,0,.44,1.42,1.42,0,0,1-1.08.65.43.43,0,0,1-.42-.18Z" style="fill:#4D8D6E"></path><path d="M353.2,123c.58-1.58.71-3,.59-7.16s-.91-6.89-.26-8.06,2.76-4.66,3.61-5.88a11.13,11.13,0,0,1,3-2.32,10.17,10.17,0,0,1,3-1.55,17.72,17.72,0,0,1,3.91.19c1.1.12,1,1.88-.55,2.62s-2.5.82-3.61,1.78a35,35,0,0,0-3.43,4.44s3.33-2.68,4.51-3.41a15.8,15.8,0,0,1,3.88-1.35,2.68,2.68,0,0,1,2.42.29c.87.5,1.62,1.45,1.21,2.15a4.23,4.23,0,0,1-1.11,1.18,3,3,0,0,1,1.47-.07,2.27,2.27,0,0,1,1.22,1.82c.12.77,0,1.12-.26,1.29a3.54,3.54,0,0,1,1.34.58,1.9,1.9,0,0,1,.38,2.44c-.69,1-2.38,1.83-3.78,2.76a5.22,5.22,0,0,0-1,.81,7.83,7.83,0,0,0-.83.9,2.47,2.47,0,0,0-.26,1.21c0,.58-.06,1.15-.08,1.73a5.76,5.76,0,0,1-.07,1.37,7.94,7.94,0,0,1-2.41,3.73c-1.29,1.33-1.76,2.87-2.5,6.54-.69,3.41-2.43,13.42-3,17.52s-1.21,8.07-6.06,10.7-10.34,4-11.79-2.12-1.21-13.47.32-16.46,4.5-7.26,6.44-10.36A42.2,42.2,0,0,0,353.2,123Z" style="fill:#ffbda7"></path><path d="M359.47,107a4.92,4.92,0,0,1-3.07,1.26,9.76,9.76,0,0,0,4-2.65Z" style="fill:#f0997a"></path><path d="M360.43,110.93a6.44,6.44,0,0,0,2.55-1.08c.71-.57,1.45-1.19,2.23-1.72a10,10,0,0,1,2.5-1.31c.89-.33,1.77-.66,2.67-.94-.85.41-1.7.79-2.56,1.16a10.7,10.7,0,0,0-2.43,1.35c-.8.51-1.49,1.1-2.27,1.66A5.54,5.54,0,0,1,360.43,110.93Z" style="fill:#f0997a"></path><path d="M372.81,108.92c-1.45,1-3,1.85-4.48,2.74a17.78,17.78,0,0,1-2.28,1.32,7.83,7.83,0,0,1-2.53.74,10.81,10.81,0,0,0,2.42-1,20.39,20.39,0,0,0,2.22-1.37C369.69,110.53,371.22,109.68,372.81,108.92Z" style="fill:#f0997a"></path><path id="freepik--Chest--inject-10" d="M420.34,118c3.5.72,7.93,1.62,12.38,2.85s7.41,2,11.43,4.27c0,0-.07,17-3.39,32.34C440,161,437.43,170.79,437,178.3a119.63,119.63,0,0,0,.63,23.39s-11.55,8.57-36.24,6.71c-19.39-1.46-21.9-8.59-21.9-8.59s.35-32.31.86-46.61c.66-18.77,6.34-29.61,10.53-32.88l12.72-2.12Z" style="fill:#455a64"></path><path d="M437.6,197.33c-7.09,4.37-18.75,7.09-28.72,7.5s-18.95-1.34-23.34-3.67a18.17,18.17,0,0,1-6.07-4.7l-.34,8.2s7.08,6.71,26.24,7.34c17.92.58,32.91-7.37,32.91-7.37Z" style="fill:#263238"></path><path d="M434.19,203.32c3.11,1.46,5.92,3.45,6.54,5.32.91,2.74,2.46,16.18,1,18.52s-13.59,8.61-16.74,8.89-7.26-3.44-8.08-4.56-1.94-18.31-1.76-19.65S434.19,203.32,434.19,203.32Z" style="fill:#455a64"></path><g style="opacity:0.2"><path d="M441.19,210.61a17.79,17.79,0,0,1-.06,5,7,7,0,0,1-2.39,4.1,15.79,15.79,0,0,1-4.21,2.5,20,20,0,0,1-4.69,1.44,6.23,6.23,0,0,1-4.49-.76,7,7,0,0,1-2.57-3.87,23,23,0,0,1-.59-2.44,4.88,4.88,0,0,0-1.42-2.25,10.33,10.33,0,0,0-4.58-2.23,10.78,10.78,0,0,1,4.2,2.61,4.15,4.15,0,0,1,1.13,2,24,24,0,0,0,.45,2.5,7.65,7.65,0,0,0,2.8,4.48,7.24,7.24,0,0,0,5.23,1,20,20,0,0,0,4.93-1.59,15.05,15.05,0,0,0,4.35-2.82,7.59,7.59,0,0,0,2.35-4.61A16,16,0,0,0,441.19,210.61Z"></path></g><path d="M431,93c0,.67-2.55,1.77-2.55,1.77l1.14-3.94Z" style="fill:#4D8D6E"></path><path d="M431,93c0,.67-2.55,1.77-2.55,1.77l1.14-3.94Z" style="opacity:0.30000000000000004"></path><g id="freepik--Head--inject-10"><path d="M425.39,77.9s3,.22,4.95,4c1,1.89,1.69,5.35-1,15.22A39.94,39.94,0,0,1,424.59,108a4.87,4.87,0,0,1-2.84,2.26l.2-7.58.28-5.29s-4.26-3.87-4.63-7.67A12.16,12.16,0,0,1,419,82.06Z" style="fill:#37474f"></path><path d="M426.43,78.15c-.74-4.26-6.15-9.35-16.59-9.91-8.55-.46-13.37,4-16.35,9a10,10,0,0,0-.5,9.49l26.17-1.35Z" style="fill:#37474f"></path><path d="M428.89,104.9c-3.94,1.91-5.73-1.2-5.73-1.2l0,16c-7.54,10.1-28.31,6.09-20.05-1.48l0-3.57a24.23,24.23,0,0,1-3.41-.33c-3.48-.55-5.64-2.18-6.68-6a49.17,49.17,0,0,1-1.18-7.9c-.24-4-.27-7.6.72-10.34.69-1.94-.12-4.49.41-6.89.4-1.84,1.2-3.84,2.88-4.67,4.18-2.06,8,.91,13.86,3.18,2.41.94,8.26,1.36,9.8.63-2,2.24-2,9.33,1,12.2a6.33,6.33,0,0,0,1.5,2c1.27,1.11,2.31-1.75,3.38-2.87a4.38,4.38,0,0,1,6.82,1.57A7.15,7.15,0,0,1,428.89,104.9Z" style="fill:#ffbda7"></path><path d="M403.16,114.66c4.56,0,8.62-.59,11.31-1.73s5.09-4.78,5.87-8.39c0,2.91-1.28,8.07-5.36,10.21s-8.85,2.26-11.83,2.32Z" style="fill:#f0997a"></path><path d="M418.8,91.67c1.06,2.13-.15,8.82-2.16,9.66s-4.27-.5-8.65-1.76a16.06,16.06,0,0,0-9.4-.44c-2,.56-5.95,2.4-6.7,1.35.26,5,.25,12.14,5.76,13.93,3.92,1.26,12.27,1.48,17.18-1.08s5.82-5.5,6.72-9.49a73.25,73.25,0,0,1,2.52-8.26Z" style="fill:#37474f"></path><path d="M398.92,103.93a4.58,4.58,0,0,1,1.33-2.19,5.47,5.47,0,0,1,7.27,0,5.05,5.05,0,0,1,1.51,3.07c.25,2.17-2.77,3.14-4.16,1.66a1.82,1.82,0,0,0-1.86-.33,4.6,4.6,0,0,0-.6.37,2.39,2.39,0,0,1-2.82-.2A2.28,2.28,0,0,1,398.92,103.93Z" style="fill:#ffbda7"></path><path d="M409.5,86.32l3.86,1.62a2.2,2.2,0,0,0-1.15-2.81A2,2,0,0,0,409.5,86.32Z" style="fill:#37474f"></path><path d="M394.87,87.68l3.92-1.56a2,2,0,0,0-2.67-1.23A2.23,2.23,0,0,0,394.87,87.68Z" style="fill:#37474f"></path><path d="M411.86,90.88a1.71,1.71,0,1,1-1.64-1.77A1.71,1.71,0,0,1,411.86,90.88Z" style="fill:#263238"></path><path d="M398.79,90.53a1.71,1.71,0,1,1-1.64-1.76A1.7,1.7,0,0,1,398.79,90.53Z" style="fill:#263238"></path><path d="M405.55,86.75l-1.41,10.86-5.74-2.12A25.55,25.55,0,0,1,405.55,86.75Z" style="fill:#f0997a"></path><path d="M406.15,101.82l-4.44,1.47a2.29,2.29,0,0,0,2.91,1.56A2.44,2.44,0,0,0,406.15,101.82Z" style="fill:#b16668"></path><path d="M405.68,102.62a2.71,2.71,0,0,1,.56-.05,2.4,2.4,0,0,1-1.62,2.28,2.15,2.15,0,0,1-.74.11A2.14,2.14,0,0,1,405.68,102.62Z" style="fill:#f28f8f"></path></g><path d="M432.52,87.38A19.8,19.8,0,0,1,431,93a20.66,20.66,0,0,0-1.39-1.6,34.87,34.87,0,0,0-9.9-7h0c-8.54-4.15-19.08-5.74-27.58-3.64A19.22,19.22,0,0,1,393.77,76a20.56,20.56,0,0,1,38.75,11.35Z" style="fill:#4D8D6E"></path><path d="M424.07,67.2c-1-.51-6.15-2.15-6.56-2.28-2.66-.86-7-.91-11.44,2.54a20.14,20.14,0,0,0-7.13,10.76L404.39,80l1.75.21c.72-3.93,6.22-12.32,13.69-12.46a7.43,7.43,0,0,1,1.05,0,9.92,9.92,0,0,1,2.88.64,28.36,28.36,0,0,1,2.85,2.35A4.49,4.49,0,0,0,424.07,67.2Z" style="fill:#4D8D6E"></path><path d="M424.07,67.2c-1-.51-6.15-2.15-6.56-2.28-2.66-.86-7-.91-11.44,2.54a20.14,20.14,0,0,0-7.13,10.76L404.39,80l1.75.21c.72-3.93,6.22-12.32,13.69-12.46a7.43,7.43,0,0,1,1.05,0,9.92,9.92,0,0,1,2.88.64,28.36,28.36,0,0,1,2.85,2.35A4.49,4.49,0,0,0,424.07,67.2Z" style="fill:#fff;opacity:0.45"></path><path d="M406.14,80.25c.85-4.57,8.22-15.29,17.62-11.78a29,29,0,0,1,2.86,2.34,4.53,4.53,0,0,0-2.55-3.61c-2.44-1.22-7.37-1.91-12.56,2.08a20.16,20.16,0,0,0-7.12,10.77Z" style="fill:#4D8D6E"></path><path d="M406.14,80.25c.85-4.57,8.22-15.29,17.62-11.78a29,29,0,0,1,2.86,2.34,4.53,4.53,0,0,0-2.55-3.61c-2.44-1.22-7.37-1.91-12.56,2.08a20.16,20.16,0,0,0-7.12,10.77Z" style="opacity:0.30000000000000004"></path><path d="M419.88,82.81a22.91,22.91,0,0,0-9-8.16c-4.16-2.3-12.78-2.61-16.65-2.65-6.77,0-8.41,1.32-8.52,2.3,0,.23-.14,1.3-.17,1.54a.89.89,0,0,0,.13.63c1,1.53,6.4,4.27,6.4,4.27,8.5-2.1,19-.51,27.58,3.64Z" style="fill:#4D8D6E"></path><path d="M419.88,82.81a22.91,22.91,0,0,0-9-8.16c-4.16-2.3-12.78-2.61-16.65-2.65-6.77,0-8.41,1.32-8.52,2.3,0,.23-.14,1.3-.17,1.54a.89.89,0,0,0,.13.63c1,1.53,6.4,4.27,6.4,4.27,8.5-2.1,19-.51,27.58,3.64Z" style="opacity:0.15"></path><path d="M419.69,84.38c-8.54-4.15-19.08-5.74-27.58-3.64,0,0-5.42-2.74-6.4-4.27-.53-.84,0-3,8.38-2.89,3.86,0,12.48.35,16.64,2.65A22.85,22.85,0,0,1,419.69,84.38Z" style="fill:#4D8D6E"></path><path d="M419.69,84.38c-8.54-4.15-19.08-5.74-27.58-3.64,0,0-5.42-2.74-6.4-4.27-.53-.84,0-3,8.38-2.89,3.86,0,12.48.35,16.64,2.65A22.85,22.85,0,0,1,419.69,84.38Z" style="opacity:0.30000000000000004"></path><path d="M423.19,118.6h.06S423.19,118.6,423.19,118.6Zm-8.55,54c0,14.33,1.15,40.42,1.15,40.42s8.38,1.26,15.92-1.56,8.43-6.49,8.43-6.49-1.53-13.79-1.53-21.7a121.31,121.31,0,0,1,3.34-27.1c2.29-9.82,2.68-31,2.68-31a49.44,49.44,0,0,0-8.55-3.61c-4.41-1.34-12.18-2.78-12.83-2.9.09.21-.06,1.77-3.38,12C415.66,143.65,414.64,158.26,414.64,172.58Z" style="fill:#4D8D6E"></path><path d="M438.71,180.08c-.06,1.07-.1,2.13-.1,3.17v.5c-7,3.33-16,4.53-23.71,4.39,0-1.08-.06-2.15-.08-3.22C422.67,185.06,431.76,183.75,438.71,180.08Z" style="fill:#fff"></path><path d="M415.14,196c7.83.09,16.87-1.25,23.77-4.95.08,1.18.16,2.37.25,3.52-7,3.47-16.1,4.74-23.91,4.65C415.21,198.14,415.17,197.07,415.14,196Z" style="fill:#fff"></path><path d="M403.14,118.23s-8.35,6.72-11.78,20.94c-2.72,11.29-2.83,25.35-3.4,42.62s-.06,27.27-.06,27.27-7.22-1.25-9.41-4.76c.69-21.24,1.11-41.77,1.11-49.69a85.94,85.94,0,0,1,4.11-24.53,24.42,24.42,0,0,1,6.8-10.45Z" style="fill:#4D8D6E"></path><path d="M387.9,183.66c0,1.1-.06,2.18-.08,3.23a33.47,33.47,0,0,1-5.12-1.23,31.8,31.8,0,0,1-3.63-1.49q0-1.84.09-3.63a22.63,22.63,0,0,0,2.39,1.26A28.42,28.42,0,0,0,387.9,183.66Z" style="fill:#fff"></path><path d="M382.7,196.42a29.73,29.73,0,0,1-3.92-1.63c0-1.23.07-2.45.11-3.66a21.2,21.2,0,0,0,2.66,1.43,27.9,27.9,0,0,0,6.17,1.82c0,1.14,0,2.22,0,3.25A34.49,34.49,0,0,1,382.7,196.42Z" style="fill:#fff"></path><polygon points="356.95 160.72 395.97 170.71 410.38 214.82 409.61 215.79 372.45 205.54 356.18 161.69 356.95 160.72" style="fill:#4D8D6E"></polygon><polygon points="395.21 171.69 409.61 215.79 410.38 214.82 395.97 170.71 395.21 171.69" style="opacity:0.35000000000000003"></polygon><polygon points="356.18 161.69 395.21 171.69 409.61 215.79 372.45 205.54 356.18 161.69" style="opacity:0.25"></polygon><g style="opacity:0.1"><path d="M368.4,169.9l-.45-1.48c-.24-.82,2-.58,5.05.54l7,1.46c3,1.12,5.88,1.9,6.13,2.72l.44,1.48Z"></path></g><path d="M365.54,163.27c-.15-.51.72-.48,2-.26l2.24.55s-1.08-2.11,4.2-1.18c5.81,1,6.19,3.86,6.19,3.86a24.47,24.47,0,0,0,2.81.75c1.94.45,2.18.8,2.38,1.31l.37.94-19.89-5.09S365.7,163.79,365.54,163.27Z" style="fill:#37474f"></path><path d="M367.83,166c1.86.65,2.63,1,3,2.24.44,1.44.56,2.05.56,2.05l10.39,3.07s-.73-2.11-.93-2.82,1.13-.83,2.94-.18l-.57-1.77-16.14-4.42Z" style="fill:#37474f"></path><path d="M367.88,170s-.2-.66-.44-1.48,2-.57,5,.54l7,1.46c3,1.12,5.87,1.9,6.12,2.72l.44,1.48Z" style="fill:#37474f"></path><path d="M455,142.87c-3.55-14.23-7.55-17.47-15.65-19-7.2,11.5-3.08,29.42-3.08,29.42l4.88,21.82c-1.33,1.16-21.3,14-24.83,15.22-1.29.45-3.72,0-5-.42-3.48-1.09-5.89-.69-9.22-.46l1.54,4.73a23.71,23.71,0,0,1-4.31,1.08,26,26,0,0,1-7,.08c-2.11-.21-4.43-.6-6.2.56-.42.27-.82.75-.67,1.22s.45.53.73.72a4.32,4.32,0,0,1,1.58,2,7.29,7.29,0,0,0,2.83,3.83,18.65,18.65,0,0,0,10.66,4.35,12.33,12.33,0,0,0,2.64.28c3.47-.14,6.72-1.25,10-2.25,4-1.22,6.32-2.28,9.59-3.35,2.18-.72,6.36-2.26,8.51-3.07,12.51-4.69,29.51-10.81,30.39-16.81S458.69,157.57,455,142.87Z" style="fill:#ffbda7"></path><path d="M439.51,122.94c9.19,2.82,11,4.12,13.66,11.43,2.56,7.08,7.77,29.17,8.53,34.5-4.22,4.16-17.14,6.8-21.73,3.79l-4.34-18.94C434.13,147.35,431.16,133,439.51,122.94Z" style="fill:#37474f"></path></g></g></g><g id="freepik--character-2--inject-10"><g id="freepik--chartacter--inject-10"><g id="freepik--bottom--inject-10"><path d="M260.1,369.67l-1.61-15,17.14,1.12s-.27,8.13-.51,12.73c-.14,2.72,3.53,7.77,3.53,7.77s-8,4.31-12.37,2.8-6.59-6.87-6.53-8S260.1,369.67,260.1,369.67Z" style="fill:#ffa8a7"></path><path d="M301.37,393.05c.27,0,.72,2.78-.73,4-1.67,1.4-6.61,3.73-13.2,3s-10.18-2.52-12.84-4.54-6.4-4.86-9.39-5.42c-2.77-.52-5.79-1.64-6.68-2.43s-.84-4.34-.84-4.34Z" style="fill:#263238"></path><path d="M260.09,369.64a1,1,0,0,0-1,.85c-.19,1-.36,3.83-.77,5.44a27.22,27.22,0,0,0-.5,8.65c.39,1.81,4.91,3,7.81,4a37.24,37.24,0,0,1,9.41,5.35c3.13,2.33,9.67,4.7,13.95,4.6,5.07-.12,10.76-1.75,12-4,1.57-2.74,2.7-5.93-4.87-9.06-1.43-.59-6.47-3.27-8.19-4.25-4.66-2.63-7.94-5.07-10.14-9.84a2.77,2.77,0,0,0-1.1-1.45,2.62,2.62,0,0,0-1.47-.1c-1.25.19-6.23.92-7.37,1.45s-2.42,1-2.38,2.22a3.82,3.82,0,0,0,.3,1.23c.1.24.17.57-.06.72s-.5,0-.7-.17A18.93,18.93,0,0,1,263,373a7.55,7.55,0,0,0-1.21-1.12,12.66,12.66,0,0,1-1.3-.76C260,370.74,260.12,370.21,260.09,369.64Z" style="fill:#455a64"></path><path d="M275.06,393.9c-1.33-1-2.73-1.94-4.15-2.79h0s8.93,4.88,12.46,2.54c2.28-1.51,1.16-3.28,1.09-3.85s8-4.74,10.23-5h0c.63.32,1.15.57,1.48.7,7.57,3.13,6.44,6.32,4.87,9.06-1.27,2.23-5.38,4-11.93,4.13C284.82,398.72,278.19,396.23,275.06,393.9Z" style="fill:#37474f"></path><path d="M283.82,388.14c4.7,1.67,2.72,2.52,1.41,2.71s-9.24-4-14.1-7.43c-5.06-3.62-8.29-7.62-10.17-8.95-.7-.5-1.46-1.11-2.13-1.68.11-1,.19-1.84.28-2.3a1,1,0,0,1,1-.85c0,.57-.07,1.1.4,1.51a12.66,12.66,0,0,0,1.3.76A7.55,7.55,0,0,1,263,373a18.93,18.93,0,0,0,2.06,2.24C269.22,380,279.11,386.47,283.82,388.14Z" style="fill:#37474f"></path><path d="M284.89,390.22a.45.45,0,0,1-.29-.1.4.4,0,0,1-.08-.6c1.3-1.54,7.49-5.23,10.94-4.94a.43.43,0,1,1-.09.86c-3.22-.26-9.1,3.4-10.12,4.61A.51.51,0,0,1,284.89,390.22Z" style="fill:#263238"></path><path d="M280.77,387.94a.46.46,0,0,1-.29-.1.41.41,0,0,1-.08-.6c1.3-1.54,7.49-5.23,10.94-4.94a.46.46,0,0,1,.42.47.46.46,0,0,1-.51.4c-3.21-.27-9.09,3.39-10.12,4.6A.46.46,0,0,1,280.77,387.94Z" style="fill:#263238"></path><path d="M276.66,385.78a.43.43,0,0,1-.3-.09.41.41,0,0,1-.07-.61c1.29-1.53,7.49-5.23,10.93-4.93a.43.43,0,0,1,.42.47.45.45,0,0,1-.5.39c-3.22-.27-9.1,3.39-10.13,4.61A.46.46,0,0,1,276.66,385.78Z" style="fill:#263238"></path><path d="M272.84,383.31a.55.55,0,0,1-.3-.09.41.41,0,0,1-.07-.61c1.29-1.54,7.5-5.23,10.93-4.93a.43.43,0,0,1,.42.46.45.45,0,0,1-.5.4c-3.22-.27-9.1,3.39-10.13,4.6A.46.46,0,0,1,272.84,383.31Z" style="fill:#263238"></path><path d="M269.09,380.83a.47.47,0,0,1-.28-.09.41.41,0,0,1-.09-.6c1.78-2.18,8.28-5.29,11.72-5a.43.43,0,0,1,.42.47.46.46,0,0,1-.5.39c-3.1-.26-9.33,2.72-10.91,4.65A.45.45,0,0,1,269.09,380.83Z" style="fill:#263238"></path><path d="M226.21,377.83l3.92-14.18L212.68,361l-.78,13.72s-1.86,4.9-.79,6.71,12.66,3.85,13.74,2.67S226.21,377.83,226.21,377.83Z" style="fill:#ffa8a7"></path><path d="M224.42,408.76c-.57,4.39-1.53,7.23-3.47,9.58s-5.33,2.72-8.67,1.5S204.73,416,204,412s-.37-6.55.66-10.56Z" style="fill:#263238"></path><path d="M211.9,374.67c-1.4-.09-1.13,5.95-2.31,11.8-1.26,6.27-3.58,8.62-4.67,13.75-1.26,5.86-1.08,8.59,1.06,12.53s10.28,8.63,14.73,4c3.62-3.76,4.06-8.43,4.13-14.45a134.3,134.3,0,0,1,.64-15.25c.55-4.45,1.91-8.39.72-9.05-.13.64-.27,1.46-.41,2.1-.11.48-.4,2.89-1.19,2.81a9.48,9.48,0,0,1,.09-1.69,1.9,1.9,0,0,0-.29-1.5,6.58,6.58,0,0,0-2.24-1.18c-1.35-.43-3.78-1-5.17-1.27-.69-.15-1.39-.28-2.09-.37a6.25,6.25,0,0,0-1.78,0,1.09,1.09,0,0,0-.79.51,1.66,1.66,0,0,0-.12.67,4.49,4.49,0,0,1-.25,1.21c-.06.17-.21.36-.41.29s-.21-.24-.21-.39c0-.72.18-1.23.27-2.07,0-.38.15-.9.18-1.29S211.85,375.05,211.9,374.67Z" style="fill:#455a64"></path><path d="M205.34,398.56c-.19.85-1.37,6.45.32,7.72s3.15-3,3.15-3,4.53-.6,10.85,2.8c-.39.88.42,4.08,2.24,3.68s2.91-6.87,2.93-6.95c-.09,5.77-.6,10.28-4.12,13.93-4.45,4.62-12.59-.07-14.73-4s-2.32-6.67-1.06-12.53C205,399.63,205.18,399.09,205.34,398.56Z" style="fill:#37474f"></path><path d="M209.29,403.76c-.16,2.15-2.52,1.1-2.44-2s2.43-10.06,2.74-15.32c.51-7.22.91-11.89,2.31-11.8,0,.08,0,.15,0,.22l-.38,3c-.06.43-.13.81-.16,1.28-.31,4.41-.48,13-1.17,17A63.5,63.5,0,0,0,209.29,403.76Z" style="fill:#37474f"></path><path d="M218.91,405.94a61.45,61.45,0,0,0,1.81-7.41c.73-3.93,3.2-11.8,4.43-16a10,10,0,0,0,.64-2.39c.13-.59.26-1.34.39-2l0-.13c.85.5.51,3.91,0,5.67s-1.06,3.66-1.66,6.19c-1.52,5-1.76,12.49-2.74,15.36S218.32,408,218.91,405.94Z" style="fill:#37474f"></path><path d="M219.79,406.3a.64.64,0,0,1-.19-.08,19.22,19.22,0,0,0-10.69-2.46.56.56,0,0,1-.61-.41.42.42,0,0,1,.4-.51,20.12,20.12,0,0,1,11.43,2.63.45.45,0,0,1,.18.65A.5.5,0,0,1,219.79,406.3Z" style="fill:#263238"></path><path d="M221.25,401.76a.51.51,0,0,1-.17-.07,23.72,23.72,0,0,0-12-2.74.59.59,0,0,1-.6-.43.43.43,0,0,1,.42-.5,24.73,24.73,0,0,1,12.65,2.9.47.47,0,0,1,.2.65A.48.48,0,0,1,221.25,401.76Z" style="fill:#263238"></path><path d="M209.73,394.53a.56.56,0,0,1-.42-.37.42.42,0,0,1,.36-.54c6.38-1,12.38,2.65,12.63,2.8a.45.45,0,0,1,.18.65.53.53,0,0,1-.71.1c-.06,0-5.89-3.59-11.82-2.63A.55.55,0,0,1,209.73,394.53Z" style="fill:#263238"></path><path d="M210.35,390.38a.58.58,0,0,1-.41-.36.41.41,0,0,1,.34-.55,18.58,18.58,0,0,1,12.9,2.8.45.45,0,0,1,.13.65.55.55,0,0,1-.72.06,17.69,17.69,0,0,0-12-2.6A.59.59,0,0,1,210.35,390.38Z" style="fill:#263238"></path><path d="M211.07,385.71a.57.57,0,0,1-.41-.36.42.42,0,0,1,.34-.55c6.58-1.26,12.72,2.77,13,2.94a.45.45,0,0,1,.15.65.52.52,0,0,1-.71.08c-.06,0-6-3.93-12.1-2.76A.49.49,0,0,1,211.07,385.71Z" style="fill:#263238"></path><path d="M220.56,228.25c-3.28,34.78-4.64,81.18-4.64,81.18-.28,2.64-2.29,10.51-4,23.5-1.54,11.59,0,35.64,0,37.09,0,0,8.22,5.75,15.86,3.29,0,0,9.46-35.78,13.64-51.94,4-15.28,9.23-39.85,9.23-39.85l3,25s-.72,10.09-.55,17c.19,8.09,5.87,40.24,5.87,40.24s9.17,5.18,17.17-.88c0,0,3.43-46.89,3.82-56.6.76-19.06,0-56.74-.26-81.36Z" style="fill:#455a64"></path><path d="M250.63,281.52,255,256.81s9.23-1.21,14-5.48c0,0-3.15,5.7-11.87,7.8l-4.29,22.49.78,24.89Z" style="fill:#263238"></path><path d="M211.43,370.34c1.87,2.62,9.75,5,16.6,2.78l1.55-5.69c-5.17,1.57-14,.49-18.15-3Z" style="fill:#4D8D6E"></path><path d="M258.83,364.12c2.28,2.25,11,3.49,17.41.06l.35-5.48c-4.82,2.47-14,2.69-18.69,0Z" style="fill:#4D8D6E"></path></g><g id="freepik--top--inject-10"><path d="M268,158.42c8.68,2,10.21,3.65,13.11,8.59s10.15,20.47,10.15,20.47.94-.64,3.05,4.36,1.45,5.68,1.45,5.68a11.36,11.36,0,0,0-8.25,2.91c-3.84,3.42-7.2,10.08-7.2,10.08s-.9-.5-3.12-3.66-16.82-26.4-16.82-26.4Z" style="fill:#f0f0f0"></path><path d="M281.43,192.35a23.43,23.43,0,0,1,3.95-2.41,19,19,0,0,1,2.07-.9,18.79,18.79,0,0,0,2.36-.82c.2-.11,0-.47-.18-.46a9,9,0,0,0-2.54.64,22.58,22.58,0,0,0-2.44,1,20,20,0,0,0-4.34,2.75c-2.4,2-4.58,5-4.27,8.29,0,.14.19.31.25.09a14.64,14.64,0,0,1,1.9-4.73A13.9,13.9,0,0,1,281.43,192.35Zm9.44-.17a7.28,7.28,0,0,0-2.21.38,19.21,19.21,0,0,0-2.11.68,18.72,18.72,0,0,0-4.05,2.15,13.42,13.42,0,0,0-3.12,3,7.56,7.56,0,0,0-1.05,2.06,10.06,10.06,0,0,0-.56,2.35c0,.07.08.18.14.09a20.19,20.19,0,0,0,.88-2.15,10.52,10.52,0,0,1,1.19-2,14,14,0,0,1,3.21-2.93,19.39,19.39,0,0,1,3.72-1.95c.66-.26,1.33-.5,2-.7a10.86,10.86,0,0,0,2-.63C291.05,192.41,291,192.18,290.87,192.18Z" style="opacity:0.1"></path><path d="M306,164.2c-.15,4.8-1.55,6.42-4.46,10.09l14.58,3.29c4.58-4.9,6.33-9.66,2.57-16.25L311,151.88S306,161.24,306,164.2Z" style="fill:#ffa8a7"></path><g id="freepik--Hammer--inject-10"><path d="M322.89,171.76a6.39,6.39,0,0,0,4.43-3.72,2,2,0,0,0-.17-2.07L312.81,148.9l-6.26,5.26,14.33,17.07A2,2,0,0,0,322.89,171.76Z" style="fill:#4D8D6E"></path><path d="M309.12,156.05a7.34,7.34,0,0,0,5.1-4.28,2.33,2.33,0,0,0-.19-2.38l-.91-1.08-7.2,6.06.89,1.07A2.32,2.32,0,0,0,309.12,156.05Z" style="fill:#4D8D6E"></path><path d="M309.12,156.05a7.34,7.34,0,0,0,5.1-4.28,2.33,2.33,0,0,0-.19-2.38l-.91-1.08-7.2,6.06.89,1.07A2.32,2.32,0,0,0,309.12,156.05Z" style="fill:#fff;opacity:0.2"></path><path d="M313.3,150.67c.73-2-.38-3.32-2.47-2.95a7.35,7.35,0,0,0-5.1,4.29c-.73,2,.38,3.31,2.47,2.94A7.36,7.36,0,0,0,313.3,150.67Z" style="fill:#4D8D6E"></path><path d="M308.93,152.91a3.19,3.19,0,0,0,2.23-1.87,1,1,0,0,0-.08-1l-19.27-23-3.15,2.65,19.26,23A1,1,0,0,0,308.93,152.91Z" style="fill:#455a64"></path><path d="M290.79,127.89l1-.86,19.27,23a1,1,0,0,1,.08,1,2.48,2.48,0,0,1-.39.68Z" style="fill:#37474f"></path><path d="M278.07,123.53a4.59,4.59,0,0,1,1.23-1.9,8.4,8.4,0,0,1,4.67-2.36c.31-.07.82-.15,1.13-.21l4.18-.74a2.57,2.57,0,0,1,1.1.1l.68.24a2.41,2.41,0,0,0,1.1.1l2.2-.19a.82.82,0,0,1,.82.42l1.06,2.28a.44.44,0,0,1,0,.35c0,.13-1.81,4.9-1.82,5a.42.42,0,0,1-.37.34l-1,.18a1.09,1.09,0,0,0-.76.64l-.34.94a1.09,1.09,0,0,1-.76.64l-5.24.93a1.3,1.3,0,0,1-1-.31,8.4,8.4,0,0,0-3.28-2.12,5.12,5.12,0,0,0-5.49,3.2,3.91,3.91,0,0,1,0-2.57C276.47,127.9,277.64,124.88,278.07,123.53Z" style="fill:#455a64"></path><path d="M294.08,127l-1,.18a1.09,1.09,0,0,0-.76.64l-.34.94a1.09,1.09,0,0,1-.76.64l-5.24.93a1.3,1.3,0,0,1-1-.31,8.4,8.4,0,0,0-3.28-2.12,5.12,5.12,0,0,0-5.49,3.2,4.08,4.08,0,0,1,1.22-4.35,8.48,8.48,0,0,1,4.67-2.37l1.13-.2,4.17-.74a2.6,2.6,0,0,1,1.11.09l.68.25a2.55,2.55,0,0,0,1.1.1l2.2-.19a.81.81,0,0,1,.82.41l1.06,2.29A.4.4,0,0,1,294.08,127Z" style="fill:#37474f"></path><path d="M293.09,126.43a7.79,7.79,0,0,1-1.23-7,2.47,2.47,0,0,1,1.77-1.8l4-.7,1.73,9.82-4,.7A2.45,2.45,0,0,1,293.09,126.43Z" style="fill:#263238"></path><path d="M295.87,118.77c.77-2.12,2.57-2.43,4-.71a7.78,7.78,0,0,1,1.23,7c-.77,2.12-2.56,2.43-4,.71A7.79,7.79,0,0,1,295.87,118.77Z" style="fill:#455a64"></path><path d="M284.34,122.4a2,2,0,0,0,1.42-1.19.65.65,0,0,0-.06-.66l-.68-.81-2,1.68.68.81A.61.61,0,0,0,284.34,122.4Z" style="fill:#263238"></path><path d="M285.07,120.39c.2-.55-.11-.92-.69-.81a2,2,0,0,0-1.41,1.19c-.21.55.1.92.68.81A2,2,0,0,0,285.07,120.39Z" style="fill:#37474f"></path><path d="M277.14,126.16a9.54,9.54,0,0,1,3.27-3,5.31,5.31,0,0,0-2.76,1.61Z" style="fill:#37474f"></path><path d="M324.54,169.23h0a.76.76,0,0,0,.09-1.08l-10.82-12.89a.77.77,0,0,0-1.08-.09h0a.77.77,0,0,0-.09,1.08l10.83,12.89A.76.76,0,0,0,324.54,169.23Z" style="opacity:0.2"></path><path d="M322.25,170.55h0a.44.44,0,0,0,.23-.74l-11-13.05a1,1,0,0,0-1.09-.26h0a.44.44,0,0,0-.23.74l11,13A1,1,0,0,0,322.25,170.55Z" style="opacity:0.2"></path><path d="M326.24,167.2h0a.44.44,0,0,1-.77.1l-11-13a1,1,0,0,1-.07-1.12h0a.44.44,0,0,1,.77-.1l11,13A1.05,1.05,0,0,1,326.24,167.2Z" style="opacity:0.2"></path></g><path d="M306,164.2a33.65,33.65,0,0,1,.18-3.48,33.75,33.75,0,0,1,.87-4,3.66,3.66,0,0,1,.65-1.45,4.29,4.29,0,0,1,.83-.69q3.24-2.24,6.49-4.46a1.87,1.87,0,0,1,1.45-.49c.68.16.95,1,.9,1.7-.15,2.47-2.59,4.24-3.11,6.66a18.42,18.42,0,0,0-.11,3.24,3.59,3.59,0,0,1-1.22,2.89,3.83,3.83,0,0,1-2,.57,8.43,8.43,0,0,1-3-.2A6.74,6.74,0,0,0,306,164.2Z" style="fill:#ffa8a7"></path><path d="M314.51,150.94c1.87-.51,5.76-1.14,6.69,1.16l0,.1a5.08,5.08,0,0,0,.45,1.1c.35.54,1,.86,1.36,1.36a8.64,8.64,0,0,1,.94,2.2c.38.89,1,1.63,1.45,2.49a5.56,5.56,0,0,1,.56,2.4,10.41,10.41,0,0,1-.74,3.38,1.77,1.77,0,0,1-1.91,1.18,2.53,2.53,0,0,1-1.12-.56,6,6,0,0,1-.62-.95,3,3,0,0,1-1.26-.09,1.83,1.83,0,0,1-1-1,3.83,3.83,0,0,1-.25-1.42c-1.27.13-1.76-1.2-1.7-2.24.1-1.67,1.23-4.17,0-5.66C317.4,154.37,314.51,150.94,314.51,150.94Z" style="fill:#ffa8a7"></path><path d="M301.49,174.29c-9.78,11.14-14.68,15.47-19.14,22.67-3.91,6.31-2.93,13.64-.93,15,2.91,2.05,11,1.24,17.57-4.34,6.07-5.19,9.08-17.15,17.08-30.09Z" style="fill:#ffa8a7"></path><path id="freepik--chest--inject-10" d="M238.4,156.11c-3.5.72-14.15,5-18.19,7.24,0,0-4.67,9.76-2.3,32.37.38,3.61,1.34,13.37,1.79,20.9a117.93,117.93,0,0,1-.13,18.41s9.51,8.32,34.29,6.45c19.46-1.46,25.3-9.46,25.3-9.46s-.08-26.24-.59-40.59c-.66-18.84-6.37-29.71-10.57-33l-12.77-2.12Z" style="fill:#f0f0f0"></path><path d="M232.52,158l-5.85,2.26c4.23,3.75,8.57,16.88,9.87,25.32l6-2C241.27,175.14,236.75,161.78,232.52,158Z" style="fill:#455a64"></path><path d="M266,158.07,259.2,157c4.23,3.74,8.64,16.85,9.95,25.28l6.21.32C274.05,174.13,270.19,161.82,266,158.07Z" style="fill:#455a64"></path><path d="M229.92,239.43c2.61.61,7.06-1.27,6.59-14.48s-3.08-38.44-3.08-38.44,13-4.93,25.67-6,18.46.17,18.46.17c1.77,8.93,1.91,40.11,1.6,55.87C262.31,247,235.3,243.39,229.92,239.43Z" style="fill:#455a64"></path><path d="M245.91,191.2a43.19,43.19,0,0,1,5.94-1.77,52.43,52.43,0,0,1,6.12-1,47.59,47.59,0,0,1,6.2-.3,38.58,38.58,0,0,1,6.17.57c-1,0-2.06-.08-3.09,0h-1.54l-1.53.06c-2.05.09-4.09.22-6.13.46s-4.06.51-6.09.84c-1,.17-2,.36-3,.56S246.92,191,245.91,191.2Z" style="fill:#263238"></path><path d="M270.34,188.68a21.2,21.2,0,0,1,.11,4.91,9.34,9.34,0,0,1-1.75,4.64,8.6,8.6,0,0,1-4.15,2.79,21,21,0,0,1-4.88.94,18.78,18.78,0,0,1-5-.27,11.84,11.84,0,0,1-4.62-1.89,9.6,9.6,0,0,1-3.18-3.8,12.29,12.29,0,0,1-1-4.8,12.71,12.71,0,0,0,1.35,4.63,9.08,9.08,0,0,0,3.17,3.48,14.69,14.69,0,0,0,9.19,1.88,19.73,19.73,0,0,0,4.71-.84,8.39,8.39,0,0,0,3.91-2.49,9,9,0,0,0,1.84-4.33A24.46,24.46,0,0,0,270.34,188.68Z" style="fill:#263238"></path><path d="M242.06,188.63a1.76,1.76,0,1,1-1.75-1.76A1.75,1.75,0,0,1,242.06,188.63Z" style="fill:#263238"></path><path d="M274.61,184.32a1.76,1.76,0,1,1-1.76-1.76A1.76,1.76,0,0,1,274.61,184.32Z" style="fill:#263238"></path><path d="M236.12,156.2l0,1.25s4.67,11.21,5.06,33.31,0,67.15,0,67.15-10.63,2-23.65-3.56c0,0,1.76-21.57,1.54-30.35s-2-24.34-2.76-37.06a64.06,64.06,0,0,1,3.44-23.89Z" style="fill:#4D8D6E"></path><path d="M229,243a66.32,66.32,0,0,0,12.35.74c0-1,0-1.95,0-3A65.92,65.92,0,0,1,229,240a67,67,0,0,1-10.31-2.3c-.05,1-.11,2.06-.17,3.08A74.41,74.41,0,0,0,229,243Z" style="fill:#fff"></path><path d="M241.27,252.14c0-.89,0-1.89,0-3a64.54,64.54,0,0,1-12.43-.76A66.5,66.5,0,0,1,218.2,246c-.08,1.1-.15,2.13-.22,3.07a72.91,72.91,0,0,0,10.82,2.33A65.09,65.09,0,0,0,241.27,252.14Z" style="fill:#fff"></path><path d="M255.49,155.48,268,158.42s7.47,4.67,10.12,22,2.45,70.9,2.45,70.9a14.41,14.41,0,0,1-5.81,1.92s-.22-31.15-1.31-50.21c-1.33-23-4.45-37.34-17.78-46.71Z" style="fill:#4D8D6E"></path><path d="M280.57,246.78c0-.92,0-1.95,0-3.1-1.93.58-3.9,1.1-5.89,1.52,0,1.1,0,2.11,0,3C276.68,247.83,278.64,247.35,280.57,246.78Z" style="fill:#fff"></path><path d="M274.54,236.65c0,1,0,2,0,3q3-.68,5.94-1.6c0-1,0-2,0-3.1C278.55,235.61,276.56,236.18,274.54,236.65Z" style="fill:#fff"></path><path d="M252.49,199.13c3.79-2.34,5.67-3.21,7.37-3.53s7.74-2.24,10-2.6c1.44-.23,1.82,2.07-.12,3.46-1.49,1.07-5.24,2.32-6.89,3s-5.1,4.23-5.1,4.23Z" style="fill:#f28f8f"></path><path d="M210.68,170.1c3.23-3.75,4.75-4.53,8.86-5.87,11.84,6.16,4.33,29.17,4.33,29.17l-6.53,19s17.46-.51,20-1.84,9.61-7.7,12-9.59c3.2-2.58,4.63-2.07,6.11-1.71,4.84,1.16,5.88,1.67,6.86,2.42a2.25,2.25,0,0,1,.79,2c1.29.27,3.24.4,3.3,2.57a5.72,5.72,0,0,1-.07,1.72,1.43,1.43,0,0,1,.81.56c1,1.35-1.27,5.53-2.55,6.49-.89.67-2.08.66-3.61.32-1.31-.3-.58-1.59-.58-1.59l-1.85-.05c-4.24,2.48-4.94,8.08-10.32,8.86a35.24,35.24,0,0,0-6.55.69c-11.7,2.82-30,9.36-40.21,9.34-10,0-7.41-11.26-6.1-18.49C196.3,208.77,205.25,176.4,210.68,170.1Z" style="fill:#ffa8a7"></path><path d="M263.06,203.68,257.33,202l5.68.87A2.54,2.54,0,0,1,263.06,203.68Z" style="fill:#f28f8f"></path><path d="M266.29,208l-6.63-1.46,6.71.68A4.3,4.3,0,0,1,266.29,208Z" style="fill:#f28f8f"></path><path d="M264.12,211.38a7.12,7.12,0,0,1-.92.18,23.09,23.09,0,0,1-2.35-.05,2.76,2.76,0,0,1-1,1.22,15.74,15.74,0,0,1-1.39,1l1.85.05a2.9,2.9,0,0,1,2-.92,1.36,1.36,0,0,1,.88.24,2.1,2.1,0,0,1,.62.79,1.82,1.82,0,0,0-.5-.92,1.32,1.32,0,0,0-.68-.33l.46-.79a4.68,4.68,0,0,0,1-.27,2.27,2.27,0,0,0,1-.7A2.74,2.74,0,0,1,264.12,211.38Z" style="fill:#f28f8f"></path><path d="M219.8,163.05c-7.55,2.63-10.26,4.76-13,11.35-3.42,8.21-8.07,26.22-9.24,29.61-2.9,4.15-2.22,10.09-2.22,10.09s11.32-7.79,22-1.7c0,0,5.83-15.23,7.09-18.14S231.23,169.44,219.8,163.05Z" style="fill:#f0f0f0"></path><path d="M217,207.14a14.19,14.19,0,0,0-7.81-3.85,18.72,18.72,0,0,0-9.61.94s0,.1,0,.09a32.12,32.12,0,0,1,4.86-.77,20.1,20.1,0,0,1,5,.29,17.45,17.45,0,0,1,4,1.32,19.07,19.07,0,0,1,3.42,2.18C217,207.42,217,207.21,217,207.14Zm-6.35-.38a12.65,12.65,0,0,0-6.32-.13s0,.06,0,.06a19.3,19.3,0,0,1,6.38.56,15.81,15.81,0,0,1,3,1.17c.92.47,1.74,1.08,2.62,1.6.08,0,.11-.12.07-.16A12.21,12.21,0,0,0,210.63,206.76Z" style="opacity:0.1"></path><g id="freepik--head--inject-10"><path d="M233.4,116.16s-3.59,0-5.39,2.69-3,7.58-1.14,13.24c2.09,6.23,6.41,12.33,7.34,14.09a4.88,4.88,0,0,0,2.82,2.26l-.19-7.57-.28-5.27s4.25-3.86,4.61-7.65a12.12,12.12,0,0,0-1.43-7.63Z" style="fill:#37474f"></path><path d="M266.53,117c-3.4-10.63-9.1-10.87-17.62-10.42-10.4.56-15.8,5.64-16.54,9.89l7.25,7.22,26.78,1.75A18.7,18.7,0,0,0,266.53,117Z" style="fill:#37474f"></path><path d="M229.92,143.09c3.92,1.9,5.71-1.2,5.71-1.2l.59,15.6c7.52,10.07,27.61,6.43,19.37-1.11v-3.56a24,24,0,0,0,3.39-.33c3.47-.55,5.65-3.31,6.68-7.06,1.53-5.56,2.13-14.46,0-23.93-.4-1.83-1.19-3.82-2.87-4.65-4.16-2.06-8,.91-13.82,3.17-2.4.94-8.23,1.35-9.77.63,2,2.23,2,9.29-1,12.16a6.46,6.46,0,0,1-1.5,1.95c-1.27,1.1-2.31-1.75-3.37-2.86a4.37,4.37,0,0,0-6.8,1.56A7.12,7.12,0,0,0,229.92,143.09Z" style="fill:#ffa8a7"></path><path d="M255.58,152.82c-4.56,0-8.6-.59-11.29-1.72s-5.07-4.77-5.85-8.37c0,2.9,1.28,8,5.35,10.18s8.82,2.25,11.8,2.32Z" style="fill:#f28f8f"></path><path d="M249,125.82l-3.85,1.62a2.2,2.2,0,0,1,1.16-2.8A2,2,0,0,1,249,125.82Z" style="fill:#37474f"></path><path d="M263.41,125.73l-3.91-1.56a2,2,0,0,1,2.67-1.22A2.21,2.21,0,0,1,263.41,125.73Z" style="fill:#37474f"></path><path d="M246.66,130.66a1.71,1.71,0,1,0,1.64-1.76A1.71,1.71,0,0,0,246.66,130.66Z" style="fill:#263238"></path><path d="M260.14,130a1.7,1.7,0,1,0,3.4-.12,1.71,1.71,0,0,0-1.76-1.64A1.55,1.55,0,0,0,260.14,130Z" style="fill:#263238"></path><path d="M253.75,126.88l1.4,10.84,5.72-2.12A25.5,25.5,0,0,0,253.75,126.88Z" style="fill:#f28f8f"></path><path d="M250.2,139.6l6.86,2.27a3.55,3.55,0,0,1-4.5,2.42A3.79,3.79,0,0,1,250.2,139.6Z" style="fill:#b16668"></path><path d="M250.93,140.83a4.4,4.4,0,0,0-.87-.08,3.75,3.75,0,0,0,2.5,3.54,3.8,3.8,0,0,0,1.15.16A3.32,3.32,0,0,0,250.93,140.83Z" style="fill:#f28f8f"></path></g><path d="M247.81,117.32c3.87-1.34,10.45-1.59,14-1.08-.72-2.52-.86-5.73-7.2-5.29S247.25,114.15,247.81,117.32Z" style="fill:#37474f"></path><path d="M224.93,126.22a21.32,21.32,0,0,0,1.94,5.87,20.21,20.21,0,0,1,1.35-1.77,36,36,0,0,1,9.86-8h0c8.64-4.91,19.51-7.2,28.5-5.47a20.58,20.58,0,0,0-2-4.9,21.38,21.38,0,0,0-39.64,14.3Z" style="fill:#4D8D6E"></path><path d="M232.44,104.28c1-.6,6.27-2.64,6.68-2.8,2.72-1.07,7.19-1.38,12.09,2a21.76,21.76,0,0,1,8.12,11l-5.57,2.24-1.81.32c-1-4.13-7.26-12.73-15.06-12.45a8.18,8.18,0,0,0-1.09.1,10,10,0,0,0-3,.86,28.85,28.85,0,0,0-2.82,2.65A4.78,4.78,0,0,1,232.44,104.28Z" style="fill:#4D8D6E"></path><path d="M232.44,104.28c1-.6,6.27-2.64,6.68-2.8,2.72-1.07,7.19-1.38,12.09,2a21.76,21.76,0,0,1,8.12,11l-5.57,2.24-1.81.32c-1-4.13-7.26-12.73-15.06-12.45a8.18,8.18,0,0,0-1.09.1,10,10,0,0,0-3,.86,28.85,28.85,0,0,0-2.82,2.65A4.78,4.78,0,0,1,232.44,104.28Z" style="fill:#fff;opacity:0.45"></path><path d="M252,117.12c-1.19-4.82-9.55-15.78-19.12-11.51a29.11,29.11,0,0,0-2.83,2.66,4.81,4.81,0,0,1,2.43-4c2.46-1.44,7.55-2.45,13.21,1.49a21.66,21.66,0,0,1,8.11,11Z" style="fill:#4D8D6E"></path><path d="M252,117.12c-1.19-4.82-9.55-15.78-19.12-11.51a29.11,29.11,0,0,0-2.83,2.66,4.81,4.81,0,0,1,2.43-4c2.46-1.44,7.55-2.45,13.21,1.49a21.66,21.66,0,0,1,8.11,11Z" style="opacity:0.30000000000000004"></path><path d="M237.8,120.63a24,24,0,0,1,8.82-9.19c4.19-2.68,13.14-3.52,17.17-3.77,7-.45,8.85.91,9,1.94,0,.24.23,1.38.28,1.63a1,1,0,0,1-.09.68c-.93,1.68-6.4,4.9-6.4,4.9-9-1.73-19.86.56-28.5,5.47Z" style="fill:#4D8D6E"></path><path d="M237.8,120.63a24,24,0,0,1,8.82-9.19c4.19-2.68,13.14-3.52,17.17-3.77,7-.45,8.85.91,9,1.94,0,.24.23,1.38.28,1.63a1,1,0,0,1-.09.68c-.93,1.68-6.4,4.9-6.4,4.9-9-1.73-19.86.56-28.5,5.47Z" style="opacity:0.15"></path><path d="M238.1,122.29c8.64-4.91,19.51-7.2,28.5-5.47,0,0,5.47-3.22,6.4-4.9.49-.93-.2-3.15-8.92-2.59-4,.26-13,1.09-17.17,3.77A24,24,0,0,0,238.1,122.29Z" style="fill:#4D8D6E"></path><path d="M238.1,122.29c8.64-4.91,19.51-7.2,28.5-5.47,0,0,5.47-3.22,6.4-4.9.49-.93-.2-3.15-8.92-2.59-4,.26-13,1.09-17.17,3.77A24,24,0,0,0,238.1,122.29Z" style="opacity:0.30000000000000004"></path></g></g></g><g id="freepik--character-1--inject-10"><g id="freepik--Character--inject-10"><g id="freepik--bottom--inject-10"><path d="M102.64,330.48l-1.87-16.72,19-1.71s-.81,12.88-.69,18.8c0,2.78,2,8,2,8s-8,4.14-12.11,2.45-6.87-8.22-6.77-9.41S102.64,330.48,102.64,330.48Z" style="fill:#c8856a"></path><path d="M143.21,356.79c.27,0,.46,2.43-1,3.62a18.8,18.8,0,0,1-13.36,3.07c-6.38-.93-9.8-2.94-12.32-5.09s-6.05-5.18-8.93-5.86a20.91,20.91,0,0,1-7.12-3.67c-.84-.83-.66-4.46-.66-4.46Z" style="fill:#263238"></path><path d="M102.64,330.45a1,1,0,0,0-1,.84c-.22,1-.48,3.9-.94,5.54a28.83,28.83,0,0,0-.79,8.82c.32,1.87,5.38,4.19,8.16,5.29a35.94,35.94,0,0,1,9,5.79c3,2.49,9.22,5.14,13.39,5.18,4.93,0,10.51-1.42,11.82-3.65,1.63-2.76,2.83-6-4.41-9.43-1.37-.66-6.18-3.58-7.82-4.63-4.43-2.86-7.53-5.46-9.5-10.41a2.73,2.73,0,0,0-1-1.52,2.37,2.37,0,0,0-1.42-.15c-1.22.15-6.09.72-7.21,1.22s-2.39,1-2.39,2.2a3.92,3.92,0,0,0,.25,1.26c.08.25.14.59-.08.73s-.5,0-.68-.2a17.58,17.58,0,0,1-1.93-2.36,20.83,20.83,0,0,0-1.84-2.13A13.3,13.3,0,0,1,103,332C102.54,331.57,102.65,331,102.64,330.45Z" style="fill:#455a64"></path><path d="M117.05,356.73a49.18,49.18,0,0,0-3.94-3h0s8.5,5.29,12,3c2.26-1.47,1.23-3.32,1.19-3.9s7.93-4.57,10.11-4.79h0c.6.34,1.1.63,1.42.77,5.66,2.34,6.37,5.25,5.35,8.88-1.31,2.22-6.3,4.46-12.67,4.35C126.36,362,120,359.22,117.05,356.73Z" style="fill:#37474f"></path><path d="M125.75,351.14c4.51,1.86,2.56,2.67,1.28,2.82s-8.84-4.37-13.44-8.09c-4.79-3.87-8.49-9-10.27-10.45-.67-.53-1.38-1.18-2-1.79.13-1,.25-1.87.35-2.34a1,1,0,0,1,1-.84c0,.58-.1,1.12.33,1.57a13.3,13.3,0,0,0,1.24.82,20.83,20.83,0,0,1,1.84,2.13,17.58,17.58,0,0,0,1.93,2.36C111.85,342.36,121.24,349.27,125.75,351.14Z" style="fill:#37474f"></path><path d="M126.72,353.3a.45.45,0,0,1-.33-.73c1.31-1.52,7.46-5.09,10.79-4.67a.44.44,0,1,1-.11.88c-3.12-.38-9,3.16-10,4.36A.44.44,0,0,1,126.72,353.3Z" style="fill:#263238"></path><path d="M122.8,350.83a.45.45,0,0,1-.33-.73c1.31-1.52,7.45-5.09,10.79-4.67a.44.44,0,1,1-.11.88c-3.12-.38-9,3.15-10,4.36A.44.44,0,0,1,122.8,350.83Z" style="fill:#263238"></path><path d="M118.88,348.49a.49.49,0,0,1-.28-.11.43.43,0,0,1,0-.62c1.31-1.53,7.45-5.1,10.79-4.67a.44.44,0,0,1,.39.49.45.45,0,0,1-.5.39c-3.12-.39-9,3.15-10,4.36A.48.48,0,0,1,118.88,348.49Z" style="fill:#263238"></path><path d="M115.25,345.82a.42.42,0,0,1-.28-.1.44.44,0,0,1,0-.63c1.31-1.52,7.47-5.08,10.8-4.66a.43.43,0,0,1,.38.49.44.44,0,0,1-.5.38c-3.11-.38-8.95,3.16-10,4.37A.44.44,0,0,1,115.25,345.82Z" style="fill:#263238"></path><path d="M111.7,343.16a.41.41,0,0,1-.27-.1.43.43,0,0,1-.07-.62c1.81-2.16,8.23-5.12,11.57-4.7a.45.45,0,0,1,.39.49.45.45,0,0,1-.51.39c-3-.38-9.15,2.46-10.75,4.38A.42.42,0,0,1,111.7,343.16Z" style="fill:#263238"></path><path d="M71.09,338.33l4.53-20.08-19.81-3.09L55.49,335s-1.51,5.33-.39,7.17,13,3.76,14.1,2.54S71.09,338.33,71.09,338.33Z" style="fill:#c8856a"></path><path d="M69.11,370c-.52,4.51-1.46,7.42-3.41,9.86s-5.42,2.85-8.86,1.65-7.78-3.84-8.59-7.87-.47-6.7.53-10.82Z" style="fill:#263238"></path><path d="M55.49,335c-1.43-.07-1,3.47-1.72,9.55-.73,6.57-3.7,11.71-4.75,17-1.2,6-1,8.8,1.27,12.8s10.64,8.69,15.13,3.9c3.66-3.9,4-8.68,4-14.84a135.9,135.9,0,0,1,.44-15.61c.51-4.56,2.42-8.77,1.2-9.43-.13.66-1.35,5.28-2.15,5.2A7.72,7.72,0,0,1,69,341.8a2,2,0,0,0-.32-1.53,6.81,6.81,0,0,0-2.31-1.17c-1.4-.42-3.9-.94-5.32-1.23-.71-.15-1.43-.26-2.14-.34a6.24,6.24,0,0,0-1.83,0,1.13,1.13,0,0,0-.8.53,1.59,1.59,0,0,0-.11.69,4.4,4.4,0,0,1-.24,1.24c-.06.17-.22.37-.42.31a.39.39,0,0,1-.21-.4C55.34,339.16,55.44,335.37,55.49,335Z" style="fill:#455a64"></path><path d="M49.43,359.81c-.18.87-1.31,6.61.43,7.89,1.9,1.38,3.19-3.09,3.19-3.09s4.63-.68,11.15,2.71c-.39.91.49,4.17,2.34,3.73s2.89-7.06,2.91-7.15c0,5.9-.47,10.52-4,14.31-4.49,4.79-12.89.11-15.13-3.9s-2.47-6.78-1.27-12.8C49.14,360.91,49.28,360.35,49.43,359.81Z" style="fill:#37474f"></path><path d="M53.55,365.07c-.14,2.21-2.57,1.16-2.52-2s1.69-10.77,2.32-15.91c.41-7.39.71-12.27,2.14-12.2,0,.08,0,.15,0,.23s-.14,4.21-.16,4.69c-.26,4.51-.32,13.28-1,17.36A64.6,64.6,0,0,0,53.55,365.07Z" style="fill:#37474f"></path><path d="M63.43,367.17a61.84,61.84,0,0,0,1.75-7.61c.69-4,3.11-12.11,4.31-16.46.38-.71,1.6-4.77,1.6-4.77,1,.28,0,4.15-.47,6s-1,3.76-1.61,6.35c-1.49,5.13-1.63,12.81-2.59,15.76S62.86,369.28,63.43,367.17Z" style="fill:#37474f"></path><path d="M64.33,367.52a.77.77,0,0,1-.19-.08,19.65,19.65,0,0,0-11-2.36.59.59,0,0,1-.63-.41.44.44,0,0,1,.41-.53,20.59,20.59,0,0,1,11.74,2.53.47.47,0,0,1,.19.66A.53.53,0,0,1,64.33,367.52Z" style="fill:#263238"></path><path d="M65.76,362.86l-.17-.07a24.38,24.38,0,0,0-12.29-2.64.59.59,0,0,1-.62-.43.45.45,0,0,1,.42-.52,25.13,25.13,0,0,1,13,2.8.47.47,0,0,1,.22.66A.53.53,0,0,1,65.76,362.86Z" style="fill:#263238"></path><path d="M53.87,355.63a.63.63,0,0,1-.44-.38.43.43,0,0,1,.37-.55c6.51-1.14,12.71,2.52,13,2.68A.47.47,0,0,1,67,358a.54.54,0,0,1-.72.11c-.06,0-6.09-3.59-12.14-2.52Z" style="fill:#263238"></path><path d="M54.45,351.36A.57.57,0,0,1,54,351a.42.42,0,0,1,.35-.56,19,19,0,0,1,13.23,2.68.46.46,0,0,1,.15.67.56.56,0,0,1-.74.06,18.16,18.16,0,0,0-12.33-2.48A.59.59,0,0,1,54.45,351.36Z" style="fill:#263238"></path><path d="M55.12,346.58a.6.6,0,0,1-.43-.36.43.43,0,0,1,.34-.57c6.73-1.38,13.06,2.65,13.33,2.83a.45.45,0,0,1,.16.66.55.55,0,0,1-.73.09c-.06,0-6.19-3.94-12.43-2.65A.65.65,0,0,1,55.12,346.58Z" style="fill:#263238"></path><path d="M63.1,183.5c-2.73,35.63-3.93,88.79-3.93,88.79-.24,2.7-1.78,6.49-3,19.84-1.32,14.08-1.27,34.18-1.27,34.18s11.9,5.08,19.3,2.45c0,0,8-30.15,11.79-46.73,3.64-15.69,6.32-40.23,6.32-40.23l4.33,23.64s-.55,10.16-.29,17.27c.29,8.26,4.76,39.92,4.76,39.92s11.05,6.62,18.75.31c0,0,3.74-46.46,4-56.41.49-19.5,1-57.87-1.25-83Z" style="fill:#37474f"></path><path d="M92.27,241.8l3.89-25.35s9-1.36,13.57-5.79c0,0-3,5.87-11.44,8.14l-3.86,23.06,2.17,23.58Z" style="fill:#263238"></path><path d="M54.66,327c3.32,2.6,13,4.82,19.62,2.43l1.34-5.59c-5,1.68-15.31.61-20.85-2.81Z" style="fill:#455a64"></path><path d="M101.07,323.28c2.24,2.27,12.63,4.15,18.77.56l.46-5.62c-4.66,2.6-15.35,2.15-19.91-.51Z" style="fill:#455a64"></path><path d="M60,239.16s-1,25.07-1,26.89,13.7,5.44,14.05,4.28c.59-1.93.44-6.24,1.62-27C63.36,241.86,60,239.16,60,239.16Z" style="fill:#455a64"></path><path d="M72.53,250.46a4.59,4.59,0,0,0-1.28-.1c-.5,0-1,0-1.5-.08a23.56,23.56,0,0,1-3.14-.48,25.71,25.71,0,0,1-3.44-1c-.91-.36-1.78-.83-2.69-1.17-.09,0-.1.13,0,.17a13.26,13.26,0,0,0,2.88,1.47,22.33,22.33,0,0,0,6,1.47c.52.06,1,.1,1.58.12a3.47,3.47,0,0,0,1.67-.12C72.61,250.66,72.62,250.49,72.53,250.46Z" style="fill:#37474f"></path><path d="M66.6,247c-.13-.26-.23-.42-.52-.46a1,1,0,0,0-.69.18.85.85,0,0,0-.34.57,1,1,0,0,0,.49.94.93.93,0,0,0,1,0,.67.67,0,0,0,.23-.57A1.29,1.29,0,0,0,66.6,247Zm-.26.76a.55.55,0,0,1-.68.13c-.35-.2-.28-.88.15-.92a.58.58,0,0,1,.38.1A.54.54,0,0,1,66.34,247.73Z" style="fill:#37474f"></path></g><g id="freepik--top--inject-10"><path d="M83.72,125V92.84C82,91,76.9,91.32,74.66,91.68c-3.92.64-6,4.28-7.29,7.73a35.2,35.2,0,0,0-1.62,10l-1,15.51Z" style="fill:#263238"></path><path d="M128,134.5c3.83,4.86,11.62,16.55,11.62,16.55s17.42-12.08,19.08-14.4c3.34-4.66,4.16-8.5,8.52-9.63s9.88-2.45,9.88-2.45L173,145c-1.88,2.13-4.2,1.24-8.88,5.83a252.57,252.57,0,0,1-19.29,16.31c-6.17,4.7-10.58,2.14-13.45-1.35-7-8.55-13-15.43-13-15.43L108,118.43C114.22,120,118.88,122.87,128,134.5Z" style="fill:#c8856a"></path><path d="M172.24,133.15c.54,1.79,1.39,3.66.48,5.36a11.92,11.92,0,0,0-1.23-4l-6.56,5.91Z" style="fill:#af6152"></path><path d="M105.88,117.59c9-.25,14.7,4.06,20.33,12.56,3.41,5.14,13.52,20.13,13.52,20.13l12.41-8.62s1.73,5.67,5.51,8.52c3.29,2.46,6.06,1.09,6.06,1.09a112.45,112.45,0,0,1-13.41,12.56c-9.38,7.61-12.56,8.24-16.73,5.07-2.07-1.56-3.43-3.28-7.36-7.81C121.5,155.65,118.1,151,118.1,151Z" style="fill:#263238"></path><g id="freepik--chest--inject-10"><path d="M96.6,117.36S76,118.5,70.82,120.85c-2.35,1.07-7.5,7.19-6.44,21.91.43,5.92,2.82,18,2.87,22.44.07,6.28-5.48,26.66-5.48,26.66,19.37,11.91,53.6,8.25,60.54,1.88,0,0-2.36-26.34-3.09-39.88,0,0,3.71-6.25,3.4-10.46-.44-6.17-1.72-8.36-7.38-15.27a116.59,116.59,0,0,0-9.65-10.54Z" style="fill:#455a64"></path></g><path d="M78.05,74.85c-6.66.74-8.27,11.62-6.69,17.75,3,11.84,11,13.23,11.35,18.28l12-7L104,98.41c.86-.51,1.71-1,2.55-1.55s1.43-1.15,2.21-1.61c.61-.36,1.23-.15,1.86-.33a3.59,3.59,0,0,0,1.58-1.41,8.16,8.16,0,0,0,1.48-6.75A8,8,0,0,1,115.05,89a3.85,3.85,0,0,1,.11,2.59c2.76-1.84,3-8.93-2.28-11.46-.94-.45-1.54-2-1.94-2.93a11,11,0,0,0-1.09-2.29A21.62,21.62,0,0,0,108.3,73a26.15,26.15,0,0,0-3.61-3.29c-3.76-2.86-9.48-5.59-14.37-4.52C85.1,66.37,79.64,69.37,78.05,74.85Z" style="fill:#263238"></path><path d="M83,115.62l-.66-11a4.8,4.8,0,0,1-5.89-1.18c-3.29-3.4-3.61-7.11-1.82-9.49,2-2.63,6.35-1.63,8.24,1.57,2.86.68,4-3.4,1.85-7.58,0,0,13.82.94,20.23-9.57a3.48,3.48,0,0,1,5.59.87c.67,1.56,1.56,4.17.92,9.45-.24,2,.71,4.29.63,6.94-.29,10.44-2.66,13.8-5.52,15.56A16,16,0,0,1,98.75,113l.23,2.81h0c.07,1.53.43,1.58,1.75,1.65l2,.12s8,10.11-2,11.49c-11,1.51-22-6.12-24.33-9.64,0,0,.88-.15,3.3-.51S82.79,117.67,83,115.62Z" style="fill:#c8856a"></path><path d="M95.58,100.84l5.67,1.84a2.93,2.93,0,0,1-3.7,2A3.13,3.13,0,0,1,95.58,100.84Z" style="fill:#af6152"></path><path d="M95.94,102.16a3.26,3.26,0,0,1,3.26,2.56,2.82,2.82,0,0,1-1.65,0,3.06,3.06,0,0,1-2-2.49A3.12,3.12,0,0,1,95.94,102.16Z" style="fill:#ffa8a7"></path><path d="M109.54,86.63,105.78,85a2,2,0,0,1,2.65-1.09A2.17,2.17,0,0,1,109.54,86.63Z" style="fill:#263238"></path><path d="M105.4,89.81A1.75,1.75,0,0,0,107,91.69a1.65,1.65,0,0,0,1.84-1.51,1.76,1.76,0,0,0-1.57-1.87A1.64,1.64,0,0,0,105.4,89.81Z" style="fill:#263238"></path><path d="M91.56,88.14l3.66-2a2,2,0,0,0-2.76-.88A2.19,2.19,0,0,0,91.56,88.14Z" style="fill:#263238"></path><path d="M92.41,90.18A1.78,1.78,0,0,0,94,92.06a1.65,1.65,0,0,0,1.84-1.51,1.76,1.76,0,0,0-1.57-1.88A1.66,1.66,0,0,0,92.41,90.18Z" style="fill:#263238"></path><polygon points="98.94 86.72 100.17 98.45 105.88 95.42 98.94 86.72" style="fill:#af6152"></polygon><path d="M98.75,113c-7.56.13-12.35-2.64-14.39-7.2,0,0,.64,4.28,3.71,6.59,3.44,2.58,10.87,2.68,10.87,2.68Z" style="fill:#af6152"></path><path d="M100.73,117.44a58,58,0,0,1,16.51,34.47c1.1,11.35,1.4,58.31,1.4,58.31s6.57,0,9.62-2.2c-1.78-26-3.6-51.54-4.88-64.58a26.66,26.66,0,0,0-4.47-11.77,53.63,53.63,0,0,0-13-14.08Z" style="fill:#4D8D6E"></path><path d="M126.21,178.84a76.25,76.25,0,0,1-7.94,1.7c0-1.35,0-2.69-.08-4a73.14,73.14,0,0,0,7.73-1.74C126,176.12,126.11,177.47,126.21,178.84Z" style="fill:#fafafa"></path><path d="M118.43,190.56a74.47,74.47,0,0,0,8.48-2c.09,1.34.19,2.7.28,4.06a75.9,75.9,0,0,1-8.7,1.94C118.47,193.29,118.45,191.94,118.43,190.56Z" style="fill:#fafafa"></path><path d="M82.57,117.34c.6,9.78,3.53,22.19,3.66,32.75.23,19.14-5.71,61.59-5.71,61.59s-13.77-.2-22.39-6.26c-.05-4.6,3.85-20.77,5.79-27.48s2.68-15.22.17-25.86-.71-23.9,4.24-31.33Z" style="fill:#4D8D6E"></path><path d="M82.39,197.23c-11.28-.88-18.42-3.83-21.9-5.71.28-1.23.55-2.44.86-3.7,4.53,2.33,13.88,4.85,21.51,5.52C82.7,194.68,82.54,196,82.39,197.23Z" style="fill:#fafafa"></path><path d="M63.92,177.94c.28-1,.54-2,.77-3.1a73.87,73.87,0,0,0,19.8,3.52c-.13,1.33-.27,2.66-.41,4a76.75,76.75,0,0,1-20.38-3.62C63.77,178.44,63.85,178.19,63.92,177.94Z" style="fill:#fafafa"></path><path d="M70.26,89.73a21.88,21.88,0,0,0,2,6,20.64,20.64,0,0,1,1.38-1.81,36.67,36.67,0,0,1,10.09-8.21h0c8.84-5,20-7.37,29.16-5.59a20.83,20.83,0,0,0-2.08-5A21.86,21.86,0,0,0,70.26,89.73Z" style="fill:#4D8D6E"></path><path d="M77.93,67.29c1-.61,6.42-2.69,6.84-2.86,2.78-1.1,7.36-1.41,12.36,2.08a22.24,22.24,0,0,1,8.31,11.29l-5.69,2.3-1.85.32c-1-4.23-7.44-13-15.41-12.74a7.2,7.2,0,0,0-1.12.11,10.54,10.54,0,0,0-3,.87,30.72,30.72,0,0,0-2.88,2.72A4.91,4.91,0,0,1,77.93,67.29Z" style="fill:#4D8D6E"></path><path d="M77.93,67.29c1-.61,6.42-2.69,6.84-2.86,2.78-1.1,7.36-1.41,12.36,2.08a22.24,22.24,0,0,1,8.31,11.29l-5.69,2.3-1.85.32c-1-4.23-7.44-13-15.41-12.74a7.2,7.2,0,0,0-1.12.11,10.54,10.54,0,0,0-3,.87,30.72,30.72,0,0,0-2.88,2.72A4.91,4.91,0,0,1,77.93,67.29Z" style="fill:#fff;opacity:0.45"></path><path d="M97.9,80.43c-1.21-4.93-9.77-16.14-19.55-11.78a30.08,30.08,0,0,0-2.9,2.72,4.93,4.93,0,0,1,2.49-4.08c2.52-1.46,7.72-2.5,13.51,1.53A22.16,22.16,0,0,1,99.74,80.1Z" style="fill:#4D8D6E"></path><path d="M97.9,80.43c-1.21-4.93-9.77-16.14-19.55-11.78a30.08,30.08,0,0,0-2.9,2.72,4.93,4.93,0,0,1,2.49-4.08c2.52-1.46,7.72-2.5,13.51,1.53A22.16,22.16,0,0,1,99.74,80.1Z" style="opacity:0.30000000000000004"></path><path d="M83.42,84a24.55,24.55,0,0,1,9-9.4c4.28-2.75,13.44-3.6,17.56-3.86,7.21-.46,9,.94,9.23,2,0,.25.23,1.41.29,1.67a1,1,0,0,1-.1.69c-1,1.72-6.54,5-6.54,5-9.2-1.78-20.32.57-29.16,5.59Z" style="fill:#4D8D6E"></path><path d="M83.42,84a24.55,24.55,0,0,1,9-9.4c4.28-2.75,13.44-3.6,17.56-3.86,7.21-.46,9,.94,9.23,2,0,.25.23,1.41.29,1.67a1,1,0,0,1-.1.69c-1,1.72-6.54,5-6.54,5-9.2-1.78-20.32.57-29.16,5.59Z" style="opacity:0.15"></path><path d="M83.72,85.72c8.84-5,20-7.37,29.16-5.59,0,0,5.59-3.3,6.54-5,.51-1-.2-3.22-9.12-2.65-4.12.26-13.28,1.12-17.56,3.86A24.55,24.55,0,0,0,83.72,85.72Z" style="fill:#4D8D6E"></path><path d="M83.72,85.72c8.84-5,20-7.37,29.16-5.59,0,0,5.59-3.3,6.54-5,.51-1-.2-3.22-9.12-2.65-4.12.26-13.28,1.12-17.56,3.86A24.55,24.55,0,0,0,83.72,85.72Z" style="opacity:0.30000000000000004"></path><path d="M69.53,204c-1.16,1.14-1.55,3.05-.92,5.44a17.2,17.2,0,0,0,10.94,11c2.39.65,4.29.27,5.45-.88L187.13,118.39c1.15-1.14,1.55-3,.92-5.44a17.22,17.22,0,0,0-10.94-11c-2.39-.65-4.3-.27-5.45.87Z" style="fill:#4D8D6E"></path><path d="M69.53,204c-1.16,1.14-1.55,3.05-.92,5.44a17.2,17.2,0,0,0,10.94,11c2.39.65,4.29.27,5.45-.88L187.13,118.39c1.15-1.14,1.55-3,.92-5.44a17.22,17.22,0,0,0-10.94-11c-2.39-.65-4.3-.27-5.45.87Z" style="fill:#fff;opacity:0.4"></path><path d="M79.55,220.49c2.39.65,4.29.27,5.45-.88s1.55-3,.92-5.44a17.16,17.16,0,0,0-10.94-11c-2.39-.66-4.3-.28-5.45.87s-1.55,3.05-.92,5.44A17.2,17.2,0,0,0,79.55,220.49Z" style="fill:#4D8D6E"></path><path d="M85,219.61,187.48,118c5.48-5.43-.9-14.58-.9-14.58L84.1,205S90.48,214.18,85,219.61Z" style="fill:#4D8D6E"></path><path d="M85,219.61,187.48,118c5.48-5.43-.9-14.58-.9-14.58L84.1,205S90.48,214.18,85,219.61Z" style="fill:#fff;opacity:0.6000000000000001"></path><path d="M79.55,220.49c2.39.65,4.29.27,5.45-.88s1.55-3,.92-5.44a17.16,17.16,0,0,0-10.94-11c-2.39-.66-4.3-.28-5.45.87s-1.55,3.05-.92,5.44A17.2,17.2,0,0,0,79.55,220.49Z" style="fill:#fff;opacity:0.2"></path><path d="M75.5,209.76c-5.23-1.08-3.85,5.42,1.34,9.62h0a13,13,0,0,0,2.71,1.11c2.39.65,4.29.27,5.45-.88s1.55-3,.92-5.44a17,17,0,0,0-6.2-8.6Z" style="fill:#4D8D6E;opacity:0.5"></path><path d="M72.82,210.17l5.57-5.52a11.6,11.6,0,0,1,1.33.92l-4.22,4.19A3.28,3.28,0,0,0,72.82,210.17Z" style="fill:#4D8D6E"></path><path d="M72.82,210.17l5.57-5.52a11.6,11.6,0,0,1,1.33.92l-4.22,4.19A3.28,3.28,0,0,0,72.82,210.17Z" style="opacity:0.1"></path><path d="M93.63,175.88c2.68-2.28,3.4-2.53,6.23-2.63s4.13-.18,5.24-.12a23,23,0,0,1,5.62,1.37c1.31.81-.72,2.79-2.85,2.73s-4.91-.35-4.91-.35Z" style="fill:#af6152"></path><path d="M68,121.23c-8.59,2.28-13.58,5.31-15.36,9.77-3.15,7.89-10.19,32.45-11.3,38.87s-.53,8.09,4.74,11c4.39,2.43,22.62,7.93,31,10.16a7.51,7.51,0,0,0,6.58-1.36l7.73-6.09L59.52,168.51l7.23-21.65S73.68,131.36,68,121.23Z" style="fill:#c8856a"></path><path d="M68.33,120.75c-5.64,1.6-10.35,3.34-13,6.07-3.81,3.87-3.3,3.79-8.34,19.75s-6.51,23.85-6.86,27,.07,4.59,5,7.32,18.8,6.29,18.8,6.29a31.4,31.4,0,0,1,2-9.26c1.75-4.17,4.25-4.43,4.25-4.43l-9.73-5.37s6-16.86,8.12-22.44S73.39,130.36,68.33,120.75Z" style="fill:#263238"></path><path d="M81.39,186.08c.94-.17,1.27-4.08,2.85-4.63s1.8-.34,2.58-1.85a3.15,3.15,0,0,1,2.89-2c1,.08.61-1.71,2.4-2.16a32.11,32.11,0,0,1,7-.12c1.63.16,5.33,2.53,6.92,3.66s.48,2.21-.52,2.73a5.54,5.54,0,0,1-3,.06s1.62,1.45,1.24,2.12c-.49.88-2.17,1.65-4.51.64,1.53,1.07,1.35,2.09.08,2.61a5.94,5.94,0,0,1-4-.41c-2.08-.76-4.85-1.69-6.5-1L87.16,187Z" style="fill:#c8856a"></path><path d="M81.39,186.08c.42,0,.64-.47.86-.76s.36-.68.52-1a12.48,12.48,0,0,1,1-1.9,1.52,1.52,0,0,1,.63-.59l1-.41a2,2,0,0,0,1-.74,4.1,4.1,0,0,0,.44-1.07,7.35,7.35,0,0,1-.74.81,2,2,0,0,1-.9.4c-.35.07-.71.17-1.09.28a2.25,2.25,0,0,0-1,.85,7.32,7.32,0,0,0-.89,2.15l-.29,1.07A1.47,1.47,0,0,1,81.39,186.08Z" style="fill:#af6152"></path><path d="M102.49,181.75c-.84-.67-1.67-1.32-2.54-1.93a18.44,18.44,0,0,0-2.77-1.7,14,14,0,0,0-3.25-.45,24.43,24.43,0,0,0-3.2,0c1,.23,2.09.43,3.13.6l1.56.26a10.59,10.59,0,0,1,1.46.32c.88.39,1.81,1,2.73,1.48A26.35,26.35,0,0,0,102.49,181.75Z" style="fill:#af6152"></path><path d="M88,181.21c1,.15,2,.17,3,.23a8.15,8.15,0,0,1,2.73.8c1.81.78,3.62,1.64,5.54,2.27a27.93,27.93,0,0,0-5.21-3,6.84,6.84,0,0,0-3-.68A24.6,24.6,0,0,0,88,181.21Z" style="fill:#af6152"></path><path d="M182,133c2-2.63,2.23-3.31,2.19-6s0-3.9-.12-4.94a22.42,22.42,0,0,0-1.55-5.23c-.83-1.2-2.59.81-2.44,2.81s.55,4.61.55,4.61Z" style="fill:#af6152"></path><path d="M173,145c1.58-1.68,3.78-1.39,4.23-2.9s.23-1.71,1.62-2.51a3,3,0,0,0,1.77-2.82c-.12-.91,1.58-.65,1.92-2.36a29.82,29.82,0,0,0-.21-6.56c-.23-1.52-2.63-4.89-3.77-6.34s-2.1-.35-2.55.62a5.29,5.29,0,0,0,.09,2.8s-1.44-1.46-2.05-1.07c-.81.51-1.46,2.13-.4,4.28-1.08-1.39-2-1.18-2.45,0a5.54,5.54,0,0,0,.56,3.77c.82,1.93,1.68,4.68,1.13,6.27l-1.59,2.3Z" style="fill:#c8856a"></path><path d="M176.11,125c.67.76,1.32,1.52,1.94,2.31a17.17,17.17,0,0,1,1.72,2.52,13.77,13.77,0,0,1,.58,3,23.24,23.24,0,0,1,.12,3c-.27-1-.51-1.94-.71-2.92l-.32-1.45a8.88,8.88,0,0,0-.37-1.36c-.4-.81-1-1.65-1.51-2.5A23.4,23.4,0,0,1,176.11,125Z" style="fill:#af6152"></path><path d="M177.29,138.6c-.19-.93-.25-1.9-.36-2.8a7.61,7.61,0,0,0-.87-2.53c-.82-1.67-1.71-3.33-2.4-5.11a26.31,26.31,0,0,1,3.09,4.77,6.5,6.5,0,0,1,.78,2.82A22.36,22.36,0,0,1,177.29,138.6Z" style="fill:#af6152"></path></g></g></g></svg>
