<svg width="56" height="54" viewBox="0 0 56 54" fill="none" xmlns="http://www.w3.org/2000/svg">
<g opacity="0.7">
<mask id="mask0_347_2722" style="mask-type:luminance" maskUnits="userSpaceOnUse" x="5" y="15" width="49" height="39">
<path d="M5.18359 15.3564H53.0846V53.0814H5.18359V15.3564Z" fill="white"/>
</mask>
<g mask="url(#mask0_347_2722)">
<path d="M29.1399 53.0786C25.9024 53.0786 22.765 52.5813 19.819 51.6027C16.9717 50.6582 14.4044 49.3041 12.2054 47.5824C10.0065 45.8607 8.27604 43.8602 7.07068 41.623C5.82036 39.3073 5.18359 36.8596 5.18359 34.3254C5.18359 34.2992 5.18359 34.273 5.18359 34.2469C5.1952 31.1278 6.22214 28.0428 8.11939 25.3254C10.1515 22.4237 13.1323 19.9942 16.7484 18.2816C20.4877 16.5166 24.7638 15.5903 29.1399 15.5903C37.9255 15.5903 45.996 19.3478 50.1938 25.3948C52.091 28.1213 53.0846 31.2154 53.0846 34.3345C53.0846 36.8687 52.4478 39.3152 51.1975 41.6309C49.9921 43.8602 48.2617 45.8698 46.0628 47.5915C43.8638 49.3132 41.308 50.6673 38.4491 51.6107C35.5032 52.5813 32.3774 53.0786 29.1399 53.0786ZM29.1399 16.9889C21.0462 16.9889 13.6008 20.4402 9.70477 25.9979C7.94098 28.5151 7.00251 31.3724 6.98075 34.256V34.2651C6.98075 34.2821 6.98075 34.3083 6.98075 34.3254C6.98075 43.8863 16.9166 51.6721 29.1399 51.6721C41.3516 51.6721 51.299 43.8943 51.299 34.3254C51.299 31.4339 50.3722 28.5754 48.6185 26.0594C44.7341 20.4664 37.267 16.9889 29.1399 16.9889Z" fill="black"/>
</g>
<path d="M39.0778 17.5922C39.0778 21.6698 34.7095 24.9828 29.3092 24.9828C23.9192 24.9828 19.5391 21.6776 19.5391 17.5922C19.5391 17.5833 19.5391 17.5754 19.5391 17.5576C19.5509 16.2789 19.9828 15.0862 20.7421 14.0389C22.3992 11.7553 25.6102 10.2017 29.3092 10.2017C33.0185 10.2017 36.2413 11.7643 37.8984 14.0646C38.6473 15.1119 39.0778 16.3135 39.0778 17.5922Z" fill="#16A637"/>
<mask id="mask1_347_2722" style="mask-type:luminance" maskUnits="userSpaceOnUse" x="18" y="9" width="22" height="17">
<path d="M18.501 9.38477H39.6665V25.8439H18.501V9.38477Z" fill="white"/>
</mask>
<g mask="url(#mask1_347_2722)">
<path d="M29.1412 25.8322C26.3388 25.8322 23.6931 24.9765 21.7176 23.4209C19.7304 21.8654 18.6367 19.8023 18.6367 17.6095C18.6367 17.6004 18.6367 17.5833 18.6367 17.5742C18.6469 16.203 19.0936 14.8477 19.9306 13.6597C21.7727 11.0208 25.3003 9.38672 29.1412 9.38672C32.9922 9.38672 36.5314 11.0379 38.3721 13.6859C39.1989 14.883 39.6456 16.2371 39.6456 17.6095C39.6456 19.8023 38.5519 21.8733 36.5648 23.4209C34.5878 24.9765 31.9421 25.8322 29.1412 25.8322ZM29.1412 10.7841C25.9588 10.7841 23.0346 12.1394 21.4942 14.3322C20.8023 15.3199 20.4339 16.4476 20.4223 17.5833V17.6095C20.4223 21.3669 24.3299 24.4337 29.1412 24.4337C33.9524 24.4337 37.8586 21.3761 37.8586 17.6095C37.8586 16.4738 37.4902 15.3461 36.8099 14.3584C35.2695 12.1565 32.3337 10.7841 29.1412 10.7841Z" fill="black"/>
</g>
<path d="M28.3254 21.1504L23.7266 17.2856L24.9873 16.2277L28.3254 19.0261L33.6294 14.5811L34.8916 15.6475L28.3254 21.1504Z" fill="white"/>
<path d="M37.494 40.3216C35.5559 38.5231 32.6244 35.9452 29.4968 34.3021C29.1432 34.4237 28.7696 34.5104 28.406 34.5532L28.3616 34.5622C28.0095 35.1152 27.4584 35.7729 26.6983 36.1963C26.1802 36.4813 25.5747 36.6288 24.9019 36.6288C24.2091 36.6288 23.5693 36.4734 23.1628 36.3349C22.8751 36.2391 22.6446 36.0578 22.5344 35.8247C22.4242 35.5916 22.4356 35.3314 22.5673 35.1152L24.275 32.2704C24.4396 32.0024 24.7044 31.7771 25.0465 31.6296L27.5901 30.5146L26.1258 29.9865C25.861 29.8919 25.5418 29.8828 25.2655 29.9696C23.6466 30.4797 21.4651 30.7568 20.5075 30.8604C20.4302 30.955 20.3314 31.0338 20.2098 31.1025C18.943 31.803 16.6398 33.6883 15.3516 38.4713L16.2219 38.8857L16.4638 38.9983C16.5525 38.9206 16.6398 38.8339 16.7286 38.7303L16.75 38.7134C16.949 38.5141 17.367 38.1683 17.9066 38.1165L18.0612 38.0996L18.15 38.0906C18.1829 38.0906 18.2373 38.0906 18.2817 38.0906C18.326 38.0906 18.359 38.0906 18.4033 38.0906C18.5465 38.0996 18.6667 38.1165 18.7998 38.1514C18.943 38.1852 19.0646 38.2291 19.1849 38.2888L19.5485 38.4713C19.8347 38.6008 20.0666 38.8001 20.2098 39.0242C20.3529 38.9037 20.4846 38.7821 20.6177 38.6526C20.7938 38.4713 21.312 38.0996 21.9389 38.0996H22.1593C22.2481 38.0996 22.3354 38.1075 22.4242 38.1255C22.5558 38.1514 22.6775 38.1773 22.7992 38.2201C22.9194 38.2629 23.0411 38.3147 23.1399 38.3755L23.5034 38.5749L23.5249 38.5839C23.8885 38.8001 24.1318 39.111 24.2091 39.4398C24.3193 39.4139 24.4296 39.4049 24.5498 39.4049H24.6056L24.7702 39.4139H24.8361C24.9248 39.4218 25.0121 39.4308 25.1009 39.4477C25.2326 39.4747 25.3543 39.5085 25.4645 39.5524C25.5861 39.6042 25.6964 39.656 25.7951 39.7168L26.1802 39.9331L26.2031 39.95C26.6096 40.218 26.8529 40.6156 26.8529 41.0131V41.1775L27.0061 41.1956C27.0948 41.2034 27.1836 41.2215 27.2595 41.2474C27.3926 41.2823 27.5028 41.3251 27.623 41.3679C27.7562 41.4287 27.8664 41.4895 27.9651 41.5672L28.3173 41.8521C28.7038 42.1382 28.9013 42.5447 28.8469 42.9423L28.814 43.2013C28.7911 43.4097 28.7038 43.591 28.5606 43.7554C28.5162 43.8072 28.4604 43.859 28.406 43.9108C28.197 44.0753 28.031 44.2048 27.8878 44.3084C27.8005 44.3782 27.7118 44.4469 27.6345 44.5077L27.8549 44.6203L28.9671 44.983C28.9671 44.983 29.4739 45.1215 29.9047 45.2082C30.2125 45.2769 30.5431 45.2251 30.7965 45.0787L31.0384 44.8445C31.1601 44.689 31.2588 44.4469 31.0384 44.3343C29.9376 43.7633 29.398 43.3657 28.9242 42.9941C28.9242 42.9941 28.9671 42.5785 29.4195 42.8646C29.8703 43.1495 29.5068 43.1675 30.5975 43.6777C31.1157 43.9018 31.6453 44.1181 32.1406 44.3005C32.4383 44.412 32.8019 44.3861 33.0653 44.2307L33.5061 43.8849C33.7051 43.6518 33.6722 43.332 33.4288 43.1844C32.2393 42.4929 32.0847 42.3882 31.2373 41.7406C31.2373 41.7406 31.3247 41.2552 31.8643 41.6021C32.3939 41.9388 31.9745 41.9738 33.2413 42.5706C33.6164 42.7351 34.0014 42.8725 34.4752 43.02C34.74 43.1067 35.0377 43.0808 35.2696 42.9513L35.7649 42.5267C35.9524 42.3026 35.732 41.9129 35.5774 41.7834C35.523 41.7406 35.5115 41.7136 35.3569 41.61C34.1789 40.8408 32.8892 39.9241 32.195 39.2754C32.195 39.2754 32.3281 38.7911 32.9006 39.2236C33.4188 39.6121 33.0323 39.6301 34.0687 40.2439C34.6742 40.5806 35.3126 40.9275 35.941 41.2383C36.2487 41.3938 36.6466 41.3859 36.9429 41.2293L37.5599 40.771C37.6372 40.7282 37.6701 40.6336 37.6816 40.521L37.494 40.3216Z" fill="white"/>
<path d="M12.2124 35.9321C11.6264 35.9321 11.165 36.3039 11.165 36.7533C11.165 37.2129 11.6394 37.5745 12.2124 37.5745C12.7968 37.5745 13.2582 37.2027 13.2582 36.7533C13.2712 36.2937 12.7968 35.9321 12.2124 35.9321Z" fill="black"/>
<path d="M14.2952 38.2474C15.5987 33.1482 18.0335 31.0901 19.4127 30.3057C19.5961 30.2012 19.5751 29.9833 19.3693 29.905L15.1675 28.327C14.8552 28.2044 14.4772 28.2748 14.2518 28.4928C11.2345 31.3693 9.76855 34.0983 9.76855 36.8262C9.76855 37.0362 9.89877 37.2269 10.1032 37.3495L13.3137 39.1283C13.5181 39.2407 13.7883 39.2498 14.004 39.1283C14.165 39.0409 14.2616 38.8843 14.2728 38.7185L14.2952 38.2645V38.2474ZM12.2692 37.4278C11.7623 37.4278 11.3633 37.0963 11.3633 36.6956C11.3633 36.2858 11.7735 35.9634 12.2692 35.9634C12.7746 35.9634 13.1737 36.2949 13.1737 36.6956C13.1849 37.0963 12.7746 37.4278 12.2692 37.4278Z" fill="#16A637"/>
<path d="M38.3918 31.1539C38.3241 31.1213 38.2682 31.0875 38.2108 31.0451C35.8101 31.4054 31.777 30.7784 30.0667 30.4768C29.8179 30.4355 29.5574 30.4605 29.3307 30.552L25.2299 32.2413C25.0474 32.3165 24.9002 32.4329 24.8104 32.5668L23.0544 35.3175C23.0206 35.3676 23.0206 35.434 23.0427 35.4841C23.0662 35.5341 23.1221 35.5766 23.2016 35.6016C23.836 35.7932 25.0371 36.0359 25.988 35.5341C26.7357 35.1412 27.2568 34.4728 27.5629 33.971L27.5968 33.9209C27.8352 33.553 28.0384 33.1524 28.1973 32.7421C28.2091 33.1024 28.1973 33.4692 28.1296 33.8371C28.4019 33.8045 28.8317 33.7283 29.3189 33.5454L29.3984 33.5117C29.999 33.2689 30.5539 32.9848 31.0293 32.6169C30.7231 33.0098 30.3154 33.3691 29.8621 33.6956C33.1592 35.3251 36.2296 37.8494 38.2682 39.639C38.3138 39.6803 38.358 39.7228 38.4154 39.7641H38.4492C40.7822 39.2961 42.4367 38.4438 43.2639 37.9419C41.9612 33.5617 39.6606 31.8146 38.3918 31.1539Z" fill="#16A637"/>
<path d="M46.0556 35.9321C45.666 35.9321 45.3584 36.3039 45.3584 36.7533C45.3584 37.2129 45.6735 37.5745 46.0556 37.5745C46.4463 37.5745 46.7539 37.2027 46.7539 36.7533C46.7614 36.2937 46.4463 35.9321 46.0556 35.9321Z" fill="black"/>
<path d="M44.623 28.188C44.299 27.8938 43.8281 27.7292 43.3369 27.7292C43.0898 27.7292 42.8558 27.7732 42.632 27.851L38.2692 29.4178C37.8898 29.5553 37.6326 29.8416 37.5876 30.1618C37.5876 30.1877 37.5876 30.2046 37.5876 30.2226C37.2068 30.2745 36.749 30.3004 36.2345 30.3004C33.9964 30.3004 31.1901 29.8247 30.0826 29.6252C29.9373 29.5993 29.792 29.5824 29.6467 29.5824C29.3211 29.5824 29.0086 29.6421 28.718 29.7717L28.2151 29.9882L26.1456 29.2442C25.8884 29.1495 25.6079 29.1056 25.3172 29.1056C25.06 29.1056 24.8028 29.1405 24.5688 29.2183C23.1591 29.6601 21.2799 29.9194 20.2394 30.0321C20.1609 29.7638 19.9153 29.5294 19.5912 29.4088L15.2283 27.842C15.0045 27.7642 14.7705 27.7202 14.5235 27.7202C14.0322 27.7202 13.5628 27.8848 13.2373 28.179C9.96007 31.1661 8.37305 34.0134 8.37305 36.8968C8.37305 37.3297 8.64046 37.7355 9.0997 37.9778L12.422 39.7442C12.6792 39.8828 12.9699 39.9516 13.2823 39.9516C13.5846 39.9516 13.8753 39.8828 14.1325 39.7532C14.4348 39.5976 14.647 39.3632 14.7473 39.0949L15.2734 39.3372L15.3969 39.3981C15.2734 39.5277 15.1397 39.6664 15.0045 39.8569C14.7255 40.2548 14.8258 41.1115 15.4638 41.4327L16.2238 41.8216C16.3023 41.8566 16.3808 41.8915 16.4477 41.9253C16.5145 42.1677 16.6598 42.3931 16.9069 42.5487L17.7455 43.0942C18.0928 43.3107 18.5288 43.4313 18.9866 43.4313C19.02 43.4313 19.0433 43.4313 19.0767 43.4313C19.1436 43.5271 19.2337 43.6139 19.3339 43.6826L20.1391 44.2541C20.4966 44.4965 20.966 44.6261 21.4703 44.6261C21.6374 44.6261 21.806 44.6092 21.9615 44.5912C21.9732 44.6002 22.7449 45.2145 22.7449 45.2145C23.1256 45.5087 23.6401 45.6654 24.2214 45.6654C24.9263 45.6654 25.541 45.4309 25.6079 45.405L25.6747 45.3712C26.0889 45.1627 26.3694 45.0071 26.6267 44.8515L27.1179 45.0939L28.3372 45.4828L28.3706 45.4918C28.3939 45.5008 28.9185 45.6395 29.3778 45.7342C29.5449 45.7691 29.7135 45.786 29.8806 45.786C30.2948 45.786 30.709 45.6823 31.0447 45.4918L31.1566 45.423L31.5694 44.9643L31.5926 44.9383C31.6261 44.8944 31.6479 44.8515 31.6813 44.8166C31.8833 44.8685 32.0839 44.9034 32.2975 44.9034C32.6884 44.9034 33.0576 44.8076 33.37 44.6351L33.4383 44.6002L34.0982 44.0726L34.1418 44.0287C34.2537 43.8991 34.3321 43.7525 34.3888 43.6049C34.4673 43.6139 34.5458 43.6139 34.6228 43.6139C34.9919 43.6139 35.3393 43.5271 35.6299 43.3535L35.6968 43.3197L36.4017 42.7301L36.4467 42.6783C36.6589 42.428 36.6923 42.1417 36.6371 41.8644C36.8711 41.8306 37.0847 41.7528 37.2853 41.6491L37.3419 41.6142L37.9901 41.1374C38.2256 40.9909 38.3476 40.7834 38.3927 40.567L38.4479 40.558C40.5509 40.1161 42.151 39.3463 43.1014 38.7917V38.8097C43.1232 39.1986 43.3805 39.5446 43.7729 39.7532C44.0301 39.8828 44.3208 39.9516 44.623 39.9516C44.9239 39.9516 45.2262 39.8828 45.4834 39.7442L48.8173 37.9778C49.2751 37.7355 49.544 37.3297 49.544 36.8968C49.4887 34.0315 47.9003 31.1751 44.623 28.188ZM13.8971 38.8007C13.8869 38.9562 13.7866 39.1118 13.6181 39.2076C13.3942 39.3203 13.1152 39.3203 12.903 39.2076L9.56912 37.4413C9.34531 37.3297 9.22324 37.1302 9.22324 36.9228C9.22324 34.2129 10.755 31.5031 13.8753 28.6468C14.1107 28.4304 14.5017 28.3695 14.8258 28.4822L19.1886 30.049C19.4008 30.1268 19.4226 30.3432 19.2337 30.4469C17.8007 31.227 15.2734 33.2695 13.9203 38.3329L13.9087 38.3678L13.8971 38.8007ZM25.1952 44.8076C25.1952 44.8076 24.031 45.2664 23.3596 44.7478L22.5995 44.1414C22.4876 44.0636 22.4658 43.8731 22.4993 43.7266C22.3089 43.8123 21.3584 44.1854 20.7204 43.7525L19.9153 43.1889C19.7365 43.0773 19.7365 42.7222 19.8252 42.6005C19.4676 42.7392 18.8078 42.9127 18.2934 42.5926L17.4548 42.0471C17.2644 41.9343 17.2426 41.5533 17.3429 41.4406C17.1525 41.4406 16.9287 41.4057 16.6831 41.2851L15.9216 40.895C15.721 40.8004 15.6759 40.3416 15.7544 40.2198C16.1454 39.7013 16.4709 39.5537 16.9403 39.043C17.074 38.9044 17.3196 38.7229 17.5333 38.697L17.6888 38.6801C17.7004 38.6801 17.712 38.6801 17.7237 38.6801C17.7673 38.6801 17.8123 38.6801 17.8574 38.6801C17.9242 38.688 17.9911 38.697 18.0579 38.7139C18.1262 38.7319 18.1931 38.7488 18.2483 38.7838L18.6175 38.9562C18.8529 39.069 19.02 39.2504 19.0651 39.4409L19.1218 39.7092C19.1436 39.805 19.1319 39.8828 19.0985 39.9696C19.0869 39.9955 19.0767 40.0215 19.0534 40.0474C18.8645 40.2987 18.7526 40.4712 18.6509 40.6099C19.4124 40.1421 20.1841 39.6495 20.8657 38.9912C20.9893 38.8616 21.2916 38.697 21.5154 38.688H21.6709C21.6825 38.688 21.6941 38.688 21.7043 38.688C21.7493 38.688 21.7944 38.697 21.8395 38.697C21.9063 38.706 21.9732 38.7229 22.04 38.7488C22.1069 38.7748 22.1635 38.8007 22.2188 38.8356L22.5879 39.034C22.8117 39.1648 22.9469 39.3541 22.957 39.5537L22.9687 39.8129C22.9687 39.8997 22.9469 39.9865 22.9018 40.0643C22.8902 40.0902 22.8684 40.1161 22.8451 40.1342C22.0633 40.921 21.2799 41.6221 20.5082 42.1936C21.5037 41.6311 22.5545 41.0946 23.4948 40.2717C23.6285 40.1511 23.9424 39.9955 24.1662 39.9955L24.3217 40.0034C24.3333 40.0034 24.345 40.0034 24.3551 40.0034C24.4002 40.0034 24.4452 40.0124 24.4903 40.0215C24.5571 40.0293 24.624 40.0564 24.6909 40.0823C24.7577 40.1082 24.8144 40.1342 24.8696 40.168L25.262 40.3844C25.4742 40.5231 25.5977 40.7136 25.5977 40.9131V41.1723C25.5977 41.2591 25.5643 41.3459 25.5192 41.4147C25.496 41.4406 25.4858 41.4665 25.4626 41.4846C24.7359 42.1508 24.0092 42.7392 23.2826 43.2419C24.1546 42.8429 24.8144 42.5137 25.6079 41.9862C25.7532 41.8735 26.0889 41.7348 26.3127 41.7528L26.4697 41.7698C26.4813 41.7698 26.4915 41.7698 26.5031 41.7698C26.5482 41.7788 26.5932 41.7867 26.6368 41.7957C26.7051 41.8126 26.772 41.8385 26.8272 41.8644C26.8839 41.8915 26.9391 41.9253 26.9958 41.9603L27.3417 42.2375C27.5437 42.3841 27.644 42.5836 27.6222 42.7741L27.5888 43.0334C27.5771 43.1202 27.5437 43.1979 27.487 43.2678C27.4652 43.2937 27.442 43.3107 27.4202 43.3276C26.3462 44.1414 26.2241 44.297 25.1952 44.8076ZM37.3637 40.6358L36.7374 41.0946C36.4351 41.2591 36.0325 41.2591 35.72 41.1036C35.082 40.7834 34.4339 40.4453 33.8177 40.1082C32.7669 39.4849 33.1579 39.4759 32.6318 39.0859C32.0504 38.653 31.9167 39.1388 31.9167 39.1388C32.6318 39.787 33.9296 40.7045 35.1271 41.4756C35.2826 41.5793 35.2942 41.5962 35.3509 41.6491C35.5064 41.7788 35.7302 42.1677 35.5398 42.3931L35.037 42.8169C34.803 42.9466 34.5007 42.9725 34.2319 42.8868C33.7508 42.7392 33.3599 42.6005 32.9791 42.4359C31.6929 41.8385 32.1173 41.8126 31.581 41.4665C31.0331 41.1205 30.943 41.6052 30.943 41.6052C31.8048 42.2545 31.9618 42.3582 33.1695 43.0514C33.4151 43.1889 33.4485 43.5181 33.248 43.7525L32.8003 44.0986C32.5315 44.2541 32.1623 44.2801 31.86 44.1673C31.3572 43.9768 30.8209 43.7694 30.2948 43.544C29.1874 43.0334 29.5565 43.0255 29.0973 42.7301C28.6279 42.4359 28.5945 42.8609 28.5945 42.8609C29.0755 43.2329 29.6234 43.6308 30.7425 44.2023C30.9663 44.315 30.8544 44.5652 30.7425 44.7129L30.507 44.9462C30.2498 45.0939 29.9141 45.1458 29.6016 45.077C29.1758 44.9902 28.6511 44.8515 28.6511 44.8515L27.5205 44.4875L27.2966 44.3759C27.3751 44.315 27.4652 44.2451 27.5539 44.1763C27.6992 44.0636 27.8678 43.943 28.08 43.7784C28.1367 43.7345 28.1919 43.6826 28.2369 43.6218C28.3823 43.4572 28.4607 43.2757 28.4942 43.0683L28.5276 42.809C28.5727 42.419 28.3706 42.0121 27.9913 41.7179L27.6324 41.4327C27.5321 41.3538 27.4202 41.2941 27.2865 41.2332C27.1746 41.1814 27.051 41.1374 26.9173 41.1115C26.8272 41.0946 26.7487 41.0777 26.6601 41.0596L26.5031 41.0427V40.8781C26.5148 40.4802 26.2677 40.0823 25.8433 39.8129L25.8215 39.796L25.4291 39.5796C25.3289 39.5187 25.217 39.4669 25.0934 39.415C24.9713 39.3722 24.8478 39.3372 24.7243 39.3113C24.6356 39.2944 24.5455 39.2854 24.4569 39.2764H24.3886L24.2214 39.2685H24.1662C24.0543 39.2685 23.9308 39.2764 23.8189 39.3023C23.7404 38.9743 23.4948 38.662 23.1256 38.4456L23.1024 38.4366L22.7332 38.2382C22.633 38.1773 22.5094 38.1255 22.3874 38.0827C22.2638 38.0387 22.1417 38.0128 22.0066 37.9868C21.9179 37.9699 21.8278 37.9699 21.7377 37.9609H21.5154C20.889 37.9609 20.3513 38.3329 20.1725 38.5155C20.0388 38.6451 19.9036 38.7657 19.7583 38.8875C19.6028 38.662 19.3674 38.4637 19.0869 38.3329L18.7192 38.1514C18.5957 38.0905 18.4721 38.0477 18.3268 38.0128C18.2033 37.9868 18.0696 37.9609 17.9242 37.9519C17.8792 37.9519 17.8457 37.9519 17.8007 37.9519C17.7571 37.9519 17.7004 37.9519 17.667 37.9519L17.5783 37.9609L17.4214 37.9778C16.8619 38.0387 16.4477 38.3769 16.2471 38.5752L16.2238 38.5933C16.1236 38.697 16.0335 38.7838 15.9564 38.8616L15.7094 38.7488L14.8258 38.3329C16.1352 33.5468 18.4721 31.6598 19.7583 30.9587C19.8818 30.8888 19.9821 30.811 20.0606 30.7163C21.0343 30.6115 23.2477 30.3353 24.8929 29.8247C25.1719 29.7379 25.496 29.7379 25.7649 29.8416L27.253 30.3692L24.6691 31.4862C24.3217 31.6339 24.0543 31.8582 23.8857 32.1265L22.1519 34.9749C22.0182 35.1993 22.0066 35.4596 22.1185 35.684C22.2304 35.9094 22.4658 36.0999 22.7565 36.1957C23.1707 36.3253 23.8189 36.4899 24.5237 36.4899C25.217 36.4899 25.8317 36.3422 26.3462 36.0571C27.1179 35.6321 27.6774 34.9749 28.0349 34.4203L28.08 34.4125C28.4491 34.3685 28.8299 34.2817 29.1874 34.1611C32.3643 35.8057 35.3393 38.3847 37.3071 40.186L37.4757 40.3416C37.4873 40.4881 37.4422 40.5929 37.3637 40.6358ZM38.1689 39.9087H38.1355C38.0904 39.8659 38.0454 39.8219 37.9901 39.7791C35.9773 37.935 32.9457 35.312 29.6903 33.6245C30.1277 33.2954 30.5303 32.9144 30.8427 32.5075C30.3617 32.8795 29.8254 33.1827 29.2325 33.434L29.154 33.469C28.6729 33.6584 28.2486 33.7373 27.9797 33.7711C28.0349 33.3901 28.0582 33.0102 28.0466 32.6371C27.8896 33.0621 27.689 33.469 27.4536 33.8579L27.4202 33.9097C27.1179 34.4203 26.6034 35.1215 25.8651 35.5284C24.9147 36.048 23.7404 35.7967 23.114 35.5983C23.0472 35.5724 22.9905 35.5284 22.957 35.4765C22.9236 35.4157 22.9352 35.3559 22.9687 35.3041L24.7025 32.4556C24.7911 32.3091 24.9263 32.1964 25.1167 32.1186L29.1656 30.3692C29.3894 30.2745 29.6467 30.2485 29.8923 30.2914C31.5694 30.6036 35.5631 31.2439 37.9334 30.8798C37.9901 30.9237 38.0454 30.9587 38.1137 30.9925C39.3664 31.6767 41.6249 33.4859 42.9561 38.0218C42.1059 38.5414 40.4724 39.424 38.1689 39.9087ZM48.6051 36.9137C48.6051 37.1211 48.47 37.3116 48.2578 37.4334L44.9355 39.1986C44.7233 39.3113 44.4443 39.3203 44.2205 39.1986C44.0519 39.1118 43.9516 38.9562 43.94 38.7917L43.9182 38.3419L43.9066 38.307C42.5535 33.2435 40.0262 31.201 38.5933 30.421C38.4043 30.3173 38.4261 30.1009 38.6383 30.0231L43.0012 28.4563C43.3252 28.3357 43.7162 28.4044 43.9516 28.6209C47.0835 31.4862 48.6051 34.196 48.6051 36.9137Z" fill="black"/>
<path d="M43.058 28.3266L38.5593 29.9026C38.3405 29.9809 38.318 30.1985 38.5128 30.3029C39.9904 31.0863 42.5965 33.1408 43.9917 38.235L44.0036 38.269L44.0261 38.7226C44.0381 38.879 44.1415 39.0355 44.3153 39.1319C44.5461 39.2441 44.8339 39.2441 45.0527 39.1319L48.4904 37.3552C48.7212 37.2418 48.8471 37.0422 48.8471 36.8325C48.8471 34.1079 47.2676 31.3822 44.0501 28.5092C43.7953 28.2733 43.3922 28.2042 43.058 28.3266ZM46.1481 35.9447C46.6906 35.9447 47.1177 36.2758 47.1177 36.676C47.1177 37.0853 46.6786 37.4073 46.1481 37.4073C45.6071 37.4073 45.18 37.0763 45.18 36.676C45.18 36.2667 45.6176 35.9447 46.1481 35.9447Z" fill="white"/>
<path d="M27.7765 43.4415C27.8315 43.37 27.8648 43.2891 27.8764 43.1988L27.9097 42.9279C27.9314 42.731 27.8315 42.5234 27.6318 42.3698L27.2859 42.0826C27.2309 42.0368 27.1744 42.0099 27.1194 41.9829C27.0514 41.9559 26.9848 41.929 26.9298 41.9114C26.885 41.902 26.8401 41.8926 26.7952 41.8844C26.7851 41.8844 26.7735 41.8844 26.7619 41.8844L26.6071 41.8657C26.3842 41.8481 26.0498 41.9923 25.9051 42.1095C25.125 42.6489 24.4563 43.0006 23.5879 43.4145C24.3 42.901 25.0251 42.2807 25.7604 41.5866C25.7821 41.569 25.8038 41.5421 25.8154 41.5151C25.8718 41.4424 25.8935 41.3533 25.8935 41.263V40.9922C25.8935 40.794 25.7705 40.5876 25.5592 40.4434L25.1698 40.2183C25.1134 40.182 25.0584 40.1468 24.9918 40.128C24.9238 40.1011 24.8572 40.0835 24.7906 40.0647C24.7458 40.0565 24.7023 40.0471 24.6575 40.0471C24.6459 40.0471 24.6343 40.0471 24.6242 40.0471L24.4679 40.0377C24.245 40.0295 23.9323 40.2007 23.7992 40.3262C22.8642 41.1821 21.8163 41.7402 20.8248 42.3253C21.5934 41.7308 22.3735 41.0109 23.1537 40.182C23.1754 40.1644 23.1869 40.1374 23.2087 40.1104C23.2535 40.0377 23.2752 39.9486 23.2752 39.849L23.2651 39.5793C23.2535 39.3811 23.1204 39.1736 22.8975 39.0388L22.5298 38.8312C22.4734 38.7961 22.4068 38.7691 22.3518 38.7421C22.2838 38.7152 22.2172 38.6964 22.1506 38.6882C22.1058 38.6788 22.0623 38.6788 22.0175 38.6788C22.0059 38.6788 21.9943 38.6788 21.9842 38.6788H21.8279C21.605 38.6788 21.3039 38.8582 21.1823 38.9942C20.5021 39.6872 19.7335 40.2007 18.9766 40.6779C19.0764 40.5337 19.1879 40.3625 19.3775 40.0917C19.3876 40.0647 19.4108 40.0377 19.4224 40.0108C19.4556 39.9299 19.4556 39.8396 19.4441 39.7411L19.3876 39.462C19.3442 39.2545 19.1763 39.0657 18.9433 38.9579L18.5756 38.7773C18.5076 38.7503 18.4526 38.7234 18.386 38.7058C18.3195 38.6882 18.2514 38.6788 18.1849 38.6694C18.1414 38.6694 18.0966 38.6694 18.0517 38.6694C18.0401 38.6694 18.03 38.6694 18.0184 38.6694L17.8621 38.6882C17.6508 38.7152 17.4062 38.9039 17.2716 39.0482C16.8041 39.5699 16.4813 39.7317 16.0905 40.2722C16.0022 40.3989 16.0572 40.8761 16.2584 40.9746L17.0154 41.3802C17.2614 41.5057 17.4829 41.5514 17.6725 41.5421C17.5726 41.6593 17.5943 42.0638 17.7839 42.1717L18.6191 42.7392C19.1314 43.0722 19.79 42.8928 20.146 42.7486C20.0462 42.8834 20.0563 43.2527 20.2343 43.3606L21.0376 43.9457C21.6831 44.3959 22.6181 44.009 22.8077 43.9187C22.7744 44.0723 22.7962 44.2705 22.9076 44.3514L23.666 44.981C24.3347 45.5215 25.4926 45.0443 25.4926 45.0443C26.5173 44.5132 26.6404 44.3514 27.7317 43.4872C27.7317 43.4872 27.7534 43.4603 27.7765 43.4415Z" fill="#16A637"/>
<path d="M9.45139 14.7853L5.00129 13.8476L4.98388 13.8795L8.55789 16.1553L7.36849 17.9806L0 16.5468L1.12558 14.8217L5.24497 15.7229L5.26238 15.6956L1.91465 13.6109L2.98221 11.9768L7.119 12.8508L7.13641 12.8189L3.76547 10.7661L4.84464 9.11377L10.635 12.96L9.45139 14.7853Z" fill="black"/>
<path d="M10.6099 6.6637C11.3642 6.15732 12.1199 5.91038 12.8785 5.92176C13.64 5.93087 14.3362 6.22445 14.9672 6.80025C15.5967 7.37377 15.8578 7.95867 15.7504 8.55268C15.646 9.14441 15.2167 9.69403 14.4624 10.2004C13.7038 10.7102 12.9481 10.9594 12.1938 10.9469C11.4396 10.9355 10.7462 10.6397 10.1109 10.0593C9.47707 9.47669 9.21163 8.89292 9.31607 8.30688C9.4205 7.72198 9.85275 7.1735 10.6099 6.6637ZM11.5498 7.52853C11.0131 7.88698 11.0073 8.30688 11.5324 8.78937L11.9327 9.15806C12.4549 9.63486 12.9844 9.69403 13.5225 9.33558C14.0592 8.97485 14.0679 8.55609 13.5457 8.0793L13.1454 7.7106C12.6188 7.22812 12.0865 7.16781 11.5498 7.52853Z" fill="black"/>
<path d="M18.6308 2.82238C18.7817 2.76776 18.9224 2.73362 19.0544 2.71769C19.1893 2.70289 19.2589 2.69834 19.2632 2.70403L20.0175 3.98308L19.3909 4.21066C18.992 4.35632 18.7498 4.54294 18.6656 4.77053C18.5844 4.99812 18.6381 5.2735 18.8281 5.5944L19.8898 7.39234L17.952 8.09787L15.5674 4.06046L17.1571 3.48238L17.6387 4.0468C17.6155 3.77142 17.6938 3.52676 17.8766 3.31397C18.0622 3.10231 18.3132 2.93845 18.6308 2.82238Z" fill="black"/>
<path d="M25.4785 1.59609L27.9327 1.28657L26.2327 3.31665L28.8958 5.66991L26.4996 5.97488L25.0027 4.61846L24.3935 5.26936L24.5908 6.21612L22.4789 6.48468L21.2314 0.439941L23.3434 0.171387L24.0338 3.50327L25.4785 1.59609Z" fill="black"/>
<path d="M34.2046 0.459728C36.7487 0.827282 37.7974 1.96181 37.3492 3.86444C36.8996 5.76367 35.4027 6.5295 32.8585 6.16308L29.7139 5.70335L31.0599 0L34.2046 0.459728ZM32.3712 4.6701L33.1486 4.7839C34.1234 4.92728 34.7065 4.58704 34.9008 3.76431L35.0169 3.26816C35.2141 2.44316 34.8254 1.95953 33.8507 1.81615L33.0732 1.70236L32.3712 4.6701Z" fill="black"/>
<path d="M43.1426 4.34229C44.0042 4.73374 44.5554 5.21395 44.7961 5.78065C45.0355 6.34848 44.9122 6.95955 44.4248 7.61501C43.9374 8.27046 43.3195 8.65508 42.574 8.77115C41.827 8.8895 41.022 8.75295 40.1604 8.36149C39.2973 7.96663 38.7476 7.48869 38.5126 6.92769C38.2762 6.36669 38.4038 5.75561 38.8955 5.09333C39.3858 4.43219 40.0008 4.04415 40.7406 3.92808C41.4789 3.80973 42.2795 3.94856 43.1426 4.34229ZM42.4115 5.32547C41.8038 5.05009 41.2976 5.18437 40.8914 5.73058L40.5839 6.14934C40.1807 6.69327 40.2837 7.10179 40.8914 7.37831C41.5064 7.65711 42.0141 7.52511 42.4173 6.98231L42.7248 6.56355C43.131 6.01734 43.0265 5.6054 42.4115 5.32547Z" fill="black"/>
<path d="M50.7497 9.3897C51.1863 9.77774 51.3778 10.1635 51.3241 10.5458C51.269 10.9305 50.9832 11.3026 50.4654 11.661L47.7153 13.5682L46.2938 12.3074L48.8524 10.5322C49.0381 10.4047 49.144 10.2659 49.1716 10.118C49.202 9.96891 49.1396 9.82667 48.9859 9.69011C48.8118 9.53536 48.6044 9.4557 48.3651 9.44887C48.1287 9.44318 47.9154 9.50577 47.7269 9.63549L45.232 11.3652L43.8105 10.1043L48.0634 7.15479L49.2238 8.18803L48.6726 8.71149C49.0439 8.68759 49.4167 8.73652 49.7924 8.85714C50.1666 8.9789 50.4857 9.15642 50.7497 9.3897Z" fill="black"/>
<path d="M54.9133 14.7929C55.3195 15.5394 55.4065 16.1857 55.1744 16.7319C54.9423 17.2781 54.3651 17.7037 53.4454 18.011L53.1089 18.1248L51.438 15.0523C51.0579 15.1764 50.8085 15.3357 50.6895 15.5303C50.5735 15.7271 50.5923 15.9684 50.7475 16.254C50.8868 16.5112 51.0579 16.6784 51.2639 16.7547C51.4684 16.8298 51.6845 16.8286 51.9137 16.7501L52.7318 18.2477C52.1008 18.4593 51.5032 18.4366 50.939 18.1794C50.3777 17.9211 49.9019 17.4306 49.5117 16.7092C49.0969 15.9502 49.0011 15.2856 49.2216 14.7155C49.445 14.1442 50.0165 13.7073 50.9332 13.4C51.8296 13.0996 52.6187 13.0769 53.3004 13.3318C53.985 13.5844 54.5217 14.0703 54.9133 14.7929ZM53.6949 15.2708C53.428 14.7815 52.9842 14.6085 52.3663 14.7519L53.1844 16.254C53.4541 16.1629 53.6369 16.0287 53.7297 15.8534C53.8226 15.6805 53.811 15.4859 53.6949 15.2708Z" fill="black"/>
</g>
</svg>
