<svg width="35" height="35" viewBox="0 0 35 35" fill="none" xmlns="http://www.w3.org/2000/svg">
<circle cx="17.5" cy="17.5" r="17.5" fill="#4A4A4B"/>
<path fill-rule="evenodd" clip-rule="evenodd" d="M18.307 10.8282C18.2601 10.3619 17.9167 10 17.5 10C17.0513 10 16.6875 10.4197 16.6875 10.9375V21.7986L12.387 16.8371L12.3105 16.7591C11.9917 16.4731 11.5309 16.4991 11.238 16.8371C10.9207 17.2032 10.9207 17.7968 11.238 18.1629L16.9255 24.7254C16.9494 24.753 16.9747 24.7788 17.0014 24.8028L17.002 24.8034C17.0602 24.8556 17.1231 24.8974 17.1888 24.9288C17.2847 24.9747 17.3898 25 17.5 25C17.7244 25 17.9275 24.8951 18.0745 24.7254C18.0745 24.7254 18.0745 24.7254 18.0745 24.7254L18.0747 24.7252L23.762 18.1629L23.8296 18.0746C24.0774 17.7068 24.0549 17.175 23.762 16.8371L23.6855 16.7591C23.3667 16.4731 22.9059 16.4991 22.613 16.8371L18.3125 21.7986V10.9375L18.307 10.8282Z" fill="white"/>
</svg>
