<svg width="35" height="35" viewBox="0 0 35 35" fill="none" xmlns="http://www.w3.org/2000/svg">
<circle cx="17.5" cy="17.5" r="17.5" fill="#263234"/>
<path fill-rule="evenodd" clip-rule="evenodd" d="M17.8112 10.0712C17.7153 10.0253 17.6102 10 17.5 10C17.2783 10 17.0773 10.1025 16.9306 10.2687C16.9287 10.2709 16.9267 10.2731 16.9248 10.2754L11.238 16.8371L11.1704 16.9254C10.9226 17.2932 10.9451 17.825 11.238 18.1629L11.3145 18.2409C11.6333 18.5269 12.0941 18.5009 12.387 18.1629L16.6875 13.2014V24.0625L16.693 24.1718C16.7399 24.6381 17.0833 25 17.5 25C17.9487 25 18.3125 24.5803 18.3125 24.0625V13.2014L22.613 18.1629L22.6895 18.2409C23.0083 18.5269 23.4691 18.5009 23.762 18.1629C24.0793 17.7968 24.0793 17.2032 23.762 16.8371L18.0745 10.2746L18.0745 10.2746C18.0506 10.247 18.0253 10.2212 17.9986 10.1972L17.998 10.1966C17.9398 10.1444 17.8769 10.1026 17.8112 10.0712Z" fill="white"/>
</svg>
