<svg xmlns="http://www.w3.org/2000/svg" width="33" height="33" viewBox="0 0 33 33">
  <g id="Group_3700" data-name="Group 3700" transform="translate(-44 -64.522)">
    <circle id="Ellipse_1252" data-name="Ellipse 1252" cx="16.5" cy="16.5" r="16.5" transform="translate(44 64.522)" fill="#fff"/>
    <path id="Icon_awesome-user-alt" data-name="Icon awesome-user-alt" d="M8.04,9.045A4.523,4.523,0,1,0,3.518,4.523,4.524,4.524,0,0,0,8.04,9.045Zm4.02,1.005H10.33a5.467,5.467,0,0,1-4.579,0H4.02A4.02,4.02,0,0,0,0,14.07v.5A1.508,1.508,0,0,0,1.508,16.08H14.573a1.508,1.508,0,0,0,1.508-1.508v-.5A4.02,4.02,0,0,0,12.06,10.05Z" transform="translate(52.892 72.833)" fill="#4d8d6e"/>
  </g>
</svg>
