<!DOCTYPE svg PUBLIC "-//W3C//DTD SVG 1.1//EN" "http://www.w3.org/Graphics/SVG/1.1/DTD/svg11.dtd">
<!-- Uploaded to: SVG Repo, www.svgrepo.com, Transformed by: SVG Repo Mixer Tools -->
<svg width="120px" height="120px" viewBox="-2.4 -2.4 28.80 28.80" fill="none" xmlns="http://www.w3.org/2000/svg" stroke="#4D8D6E" stroke-width="0.12000000000000002">
<g id="SVGRepo_bgCarrier" stroke-width="0"/>
<g id="SVGRepo_tracerCarrier" stroke-linecap="round" stroke-linejoin="round"/>
<g id="SVGRepo_iconCarrier"> <g id="style=fill"> <g id="menu-strawberry"> <path id="Subtract" fill-rule="evenodd" clip-rule="evenodd" d="M7.25 1.25C3.93629 1.25 1.25 3.93629 1.25 7.25V16.75C1.25 20.0637 3.93629 22.75 7.25 22.75H16.75C20.0637 22.75 22.75 20.0637 22.75 16.75V7.25C22.75 3.93629 20.0637 1.25 16.75 1.25H7.25ZM4.84615 7C4.51691 7 4.25 7.33579 4.25 7.75C4.25 8.16421 4.51691 8.5 4.84615 8.5H19.1538C19.4831 8.5 19.75 8.16421 19.75 7.75C19.75 7.33579 19.4831 7 19.1538 7H4.84615ZM6.25 12.25C6.25 11.8358 6.58579 11.5 7 11.5H17C17.4142 11.5 17.75 11.8358 17.75 12.25C17.75 12.6642 17.4142 13 17 13H7C6.58579 13 6.25 12.6642 6.25 12.25ZM9 16C8.58579 16 8.25 16.3358 8.25 16.75C8.25 17.1642 8.58579 17.5 9 17.5H15C15.4142 17.5 15.75 17.1642 15.75 16.75C15.75 16.3358 15.4142 16 15 16H9Z" fill="#4D8D6E"/> </g> </g> </g>
</svg>