<svg width="36" height="36" viewBox="0 0 36 36" fill="none" xmlns="http://www.w3.org/2000/svg">
<path d="M18 36C27.9411 36 36 27.9411 36 18C36 8.05887 27.9411 0 18 0C8.05887 0 0 8.05887 0 18C0 27.9411 8.05887 36 18 36Z" fill="#291150" fill-opacity="0.12"/>
<path d="M17.5865 27.5C18.6865 27.5 19.5865 26.6 19.5865 25.5H15.5865C15.5865 26.6 16.4765 27.5 17.5865 27.5ZM23.5865 21.5V16.5C23.5865 13.43 21.9465 10.86 19.0865 10.18V9.5C19.0865 8.67 18.4165 8 17.5865 8C16.7565 8 16.0865 8.67 16.0865 9.5V10.18C13.2165 10.86 11.5865 13.42 11.5865 16.5V21.5L10.2965 22.79C9.66648 23.42 10.1065 24.5 10.9965 24.5H24.1665C25.0565 24.5 25.5065 23.42 24.8765 22.79L23.5865 21.5Z" fill="#4D8D6E"/>
</svg>
