<svg xmlns="http://www.w3.org/2000/svg" width="19.388" height="22.731" viewBox="0 0 19.388 22.731">
  <g id="Group_135" data-name="Group 135" transform="translate(0.15 0.15)" opacity="0.6">
    <g id="Group_134" data-name="Group 134">
      <g id="Group_133" data-name="Group 133">
        <path id="Path_316" data-name="Path 316" d="M69.048,9.206h-.715V5.521a6.009,6.009,0,0,0-11.977,0V9.206H55.64a2.739,2.739,0,0,0-2.84,2.619v7.99a2.739,2.739,0,0,0,2.84,2.619H69.048a2.739,2.739,0,0,0,2.84-2.619v-7.99a2.742,2.742,0,0,0-2.84-2.619ZM58.058,5.521a4.3,4.3,0,0,1,8.571,0V9.206H58.058ZM70.185,19.805a1.1,1.1,0,0,1-1.137,1.049H55.64A1.1,1.1,0,0,1,54.5,19.805V11.825a1.1,1.1,0,0,1,1.137-1.049H69.048a1.1,1.1,0,0,1,1.137,1.049v7.981Z" transform="translate(-52.8 -0.006)" fill="#292929" stroke="#d9d9d9" stroke-width="0.3"/>
      </g>
    </g>
  </g>
</svg>
