<?xml version="1.0" encoding="iso-8859-1"?>
<!-- Uploaded to: SVG Repo, www.svgrepo.com, Generator: SVG Repo Mixer Tools -->
<svg version="1.1" id="Layer_1" xmlns="http://www.w3.org/2000/svg" xmlns:xlink="http://www.w3.org/1999/xlink" 
	 viewBox="0 0 512 512" xml:space="preserve">
<path style="fill:#FF4F19;" d="M488.186,352.447H381.023V158.363h107.163V352.447z"/>
<rect x="452.465" y="158.363" style="fill:#FC0023;" width="35.721" height="194.084"/>
<path style="fill:#FFDB2D;" d="M488.186,170.27H381.023V17.86c0-9.864,7.997-17.86,17.86-17.86h71.442
	c9.864,0,17.86,7.997,17.86,17.86V170.27z"/>
<path style="fill:#FF9900;" d="M470.326,0h-17.86v170.27h35.721V17.86C488.186,7.997,480.189,0,470.326,0z"/>
<path style="fill:#85EDC1;" d="M470.326,512h-71.442c-9.864,0-17.86-7.997-17.86-17.86V342.921h107.163V494.14
	C488.186,504.003,480.189,512,470.326,512z"/>
<path style="fill:#00D8E0;" d="M416.744,512H65.488c-23.016,0-41.674-18.658-41.674-41.674V41.674C23.814,18.658,42.472,0,65.488,0
	h351.256V512z"/>
<rect x="220.279" style="fill:#00A2A9;" width="196.465" height="512"/>
<path style="fill:#FFDB2D;" d="M183.459,368.195l-75.634-131.003c-24.388-42.242-9.945-96.164,32.302-120.555l19.714-11.383
	c9.64-5.567,20.873-7.044,31.624-4.164c10.753,2.881,19.739,9.777,25.305,19.418l19.619,33.981
	c11.489,19.9,4.647,45.438-15.253,56.928l-4.247,2.453l41.299,71.532l4.247-2.452c9.64-5.567,20.869-7.044,31.624-4.164
	c10.752,2.882,19.739,9.777,25.305,19.418l19.62,33.982c11.49,19.9,4.647,45.438-15.254,56.928l-19.714,11.382
	C261.466,425.062,207.674,410.139,183.459,368.195z"/>
<path style="fill:#48A792;" d="M452.465,342.921V512h17.86c9.864,0,17.86-7.997,17.86-17.86V342.921H452.465z"/>
<g>
	<path style="fill:#FF9900;" d="M221.136,211.419c19.9-11.49,26.742-37.028,15.253-56.928l-16.11-27.903v85.325L221.136,211.419z"/>
	<path style="fill:#FF9900;" d="M338.982,332.187l-19.62-33.983c-5.565-9.64-14.553-16.536-25.305-19.418
		c-10.754-2.879-21.984-1.403-31.624,4.164l-4.247,2.452l-37.907-65.657v183.192c25.55,12.825,56.878,13.065,83.735-2.44
		l19.714-11.382C343.629,377.625,350.472,352.087,338.982,332.187z"/>
</g>
</svg>