<?xml version="1.0" encoding="iso-8859-1"?>
<!-- Uploaded to: SVG Repo, www.svgrepo.com, Generator: SVG Repo Mixer Tools -->
<svg height="800px" width="800px" version="1.1" id="Layer_1" xmlns="http://www.w3.org/2000/svg" xmlns:xlink="http://www.w3.org/1999/xlink" 
	 viewBox="0 0 512 512" xml:space="preserve">
<path style="fill:#D3954C;" d="M256,128.714H45.307c-19.262,0-34.858,17.436-34.858,38.936v274.923
	c0,21.486,15.596,38.933,34.858,38.933h421.386c19.233,0,34.858-17.447,34.858-38.933V167.65c0-21.5-15.624-38.936-34.858-38.936
	L256,128.714"/>
<g>
	<path style="fill:#88420E;" d="M45.307,481.505h23.144c-0.047-31.995-25.996-57.919-58.002-57.919v18.986
		C10.449,464.058,26.045,481.505,45.307,481.505z"/>
	<path style="fill:#88420E;" d="M443.549,481.505h23.144c19.233,0,34.858-17.447,34.858-38.933v-18.986
		C469.546,423.587,443.596,449.51,443.549,481.505z"/>
</g>
<path style="fill:#FFFFFF;" d="M376.572,192.409c5.652,5.646,8.478,13.055,8.478,20.453c0,7.404-2.826,14.814-8.478,20.46
	l-9.003,9.009l-40.919-40.919l9.008-9.003C346.956,181.111,365.28,181.111,376.572,192.409L376.572,192.409z"/>
<path style="fill:#92E03F;" d="M367.569,242.33L181.784,428.125l-40.93-40.924l185.795-185.79L367.569,242.33z"/>
<path style="fill:#FFFFFF;" d="M181.784,428.125l-54.845,13.914l13.915-54.838L181.784,428.125z"/>
<path d="M126.939,452.489c0.856,0,1.719-0.106,2.568-0.321l54.845-13.914c1.824-0.463,3.489-1.411,4.819-2.74l185.787-185.799
	l8.997-9.003c7.444-7.436,11.542-17.328,11.542-27.852c0-10.522-4.099-20.411-11.537-27.84
	c-7.434-7.439-17.323-11.536-27.844-11.536c-10.52,0-20.41,4.096-27.845,11.531l-8.812,8.806c-0.068,0.065-0.135,0.13-0.202,0.196
	c-0.065,0.065-0.13,0.131-0.193,0.197L133.466,379.813c0,0,0,0,0,0.001c-0.005,0.004-0.009,0.009-0.015,0.015
	c-0.001,0-0.001,0.001-0.002,0.002c-0.004,0.004-0.008,0.009-0.014,0.014c0,0.001,0,0.001,0,0.001
	c-1.407,1.418-2.324,3.141-2.751,4.953l-13.873,54.672c-0.906,3.57,0.135,7.354,2.74,9.959
	C121.534,451.413,124.202,452.489,126.939,452.489z M343.047,199.798c3.49-3.491,8.132-5.414,13.071-5.414
	c4.937,0,9.576,1.922,13.07,5.418c3.491,3.487,5.414,8.125,5.414,13.06c0,4.939-1.923,9.58-5.42,13.074l-1.611,1.612l-26.139-26.135
	L343.047,199.798z M326.651,216.188l26.144,26.14L181.783,413.35l-26.152-26.147L326.651,216.188z M146.461,407.585l14.935,14.933
	l-20.013,5.077L146.461,407.585z"/>
<path d="M466.693,118.265H364.669V73.323c0-29.378-23.9-53.278-53.276-53.278H200.607c-29.376,0-53.276,23.9-53.276,53.278v44.942
	H45.307C20.324,118.265,0,140.419,0,167.65v255.937v18.986c0,27.23,20.324,49.382,45.307,49.382h23.144h375.097h23.144
	c24.982,0,45.307-22.152,45.307-49.382v-18.986V167.65C512,140.419,491.676,118.265,466.693,118.265z M168.229,73.323
	c0-17.854,14.525-32.38,32.378-32.38h110.785c17.853,0,32.378,14.526,32.378,32.38v44.942H168.229V73.323z M45.307,139.163h421.386
	c13.459,0,24.409,12.779,24.409,28.487v246.287c-29.352,4.52-52.634,27.772-57.191,57.12H78.089
	c-4.558-29.348-27.839-52.6-57.191-57.12V167.65C20.898,151.942,31.847,139.163,45.307,139.163z M45.307,471.056
	c-13.459,0-24.409-12.778-24.409-28.484v-7.379c17.812,4.012,31.882,18.058,35.927,35.862H45.307V471.056z M491.102,442.573
	c0,15.706-10.949,28.484-24.409,28.484h-11.518c4.046-17.804,18.114-31.85,35.927-35.862V442.573z"/>
<path d="M68.451,397.65c5.771,0,10.449-4.679,10.449-10.449V227.997c0-5.771-4.678-10.449-10.449-10.449
	s-10.449,4.678-10.449,10.449v159.204C58.002,392.972,62.68,397.65,68.451,397.65z"/>
<path d="M68.451,206.956c5.771,0,10.449-4.678,10.449-10.449v-23.714c0-5.771-4.678-10.449-10.449-10.449
	s-10.449,4.678-10.449,10.449v23.714C58.002,202.278,62.68,206.956,68.451,206.956z"/>
</svg>