<svg width="36" height="36" viewBox="0 0 36 36" fill="none" xmlns="http://www.w3.org/2000/svg">
<path d="M18 36C27.9411 36 36 27.9411 36 18C36 8.05887 27.9411 0 18 0C8.05887 0 0 8.05887 0 18C0 27.9411 8.05887 36 18 36Z" fill="#291150" fill-opacity="0.12"/>
<path d="M25.7821 14.0498C25.2529 12.2265 23.7808 11.0008 22.1198 11.0008C21.0616 11.0008 19.9943 11.4467 19.1908 12.2251C18.486 12.9073 18.0451 14.0536 18.0208 14.1172C18.0138 14.1384 18.0069 14.1581 17.9999 14.1748C17.9916 14.1543 17.9826 14.1301 17.9736 14.1021C17.9548 14.0536 17.5139 12.9073 16.8091 12.2243C16.0057 11.446 14.9385 11 13.8801 11C12.2184 11 10.7477 12.2251 10.2185 14.049C9.28249 17.2754 11.3892 21.2443 15.8527 24.6659C16.4568 25.1292 17.5144 25.8417 17.5595 25.8728C17.681 25.9546 17.8373 26 17.9998 26C18.1622 26 18.3185 25.9546 18.4407 25.8728C18.4858 25.8425 19.5427 25.1293 20.1468 24.6659C24.611 21.2451 26.7171 17.276 25.7817 14.0496L25.7821 14.0498Z" fill="#4D8D6E"/>
</svg>
