<svg xmlns="http://www.w3.org/2000/svg" width="56" height="56" viewBox="0 0 56 56">
  <g id="Group_3599" data-name="Group 3599" transform="translate(-44 -64)">
    <circle id="Ellipse_1252" data-name="Ellipse 1252" cx="28" cy="28" r="28" transform="translate(44 64)" fill="#fff"/>
    <path id="Icon_awesome-user-alt" data-name="Icon awesome-user-alt" d="M13.408,15.084A7.542,7.542,0,1,0,5.866,7.542,7.544,7.544,0,0,0,13.408,15.084Zm6.7,1.676H17.226a9.117,9.117,0,0,1-7.636,0H6.7a6.7,6.7,0,0,0-6.7,6.7V24.3a2.515,2.515,0,0,0,2.514,2.514H24.3A2.515,2.515,0,0,0,26.816,24.3v-.838A6.7,6.7,0,0,0,20.112,16.76Z" transform="translate(58.829 78.829)" fill="#4d8d6e"/>
  </g>
</svg>
