<svg xmlns="http://www.w3.org/2000/svg" width="95.077" height="14" viewBox="0 0 95.077 14">
  <g id="Group_16053" data-name="Group 16053" transform="translate(-96 -662)">
    <path id="Favorites" d="M20.06,7.887a.611.611,0,0,1-.582-.41L18.121,3.41a.619.619,0,0,0-1.165,0L15.6,7.478a.611.611,0,0,1-.582.41H10.611a.6.6,0,0,0-.58.4.584.584,0,0,0,.218.665l3.575,2.53a.579.579,0,0,1,.22.656l-1.363,4.086a.587.587,0,0,0,.091.534.607.607,0,0,0,.494.239.617.617,0,0,0,.359-.117l3.55-2.512a.631.631,0,0,1,.725,0l3.55,2.512A.617.617,0,0,0,21.81,17a.607.607,0,0,0,.494-.239.587.587,0,0,0,.091-.534L21.033,12.14a.579.579,0,0,1,.22-.656l3.575-2.53a.584.584,0,0,0,.218-.665.6.6,0,0,0-.58-.4Z" transform="translate(86 659)" fill="#ff9500" fill-rule="evenodd"/>
    <path id="Favorites-2" data-name="Favorites" d="M20.06,7.887a.611.611,0,0,1-.582-.41L18.121,3.41a.619.619,0,0,0-1.165,0L15.6,7.478a.611.611,0,0,1-.582.41H10.611a.6.6,0,0,0-.58.4.584.584,0,0,0,.218.665l3.575,2.53a.579.579,0,0,1,.22.656l-1.363,4.086a.587.587,0,0,0,.091.534.607.607,0,0,0,.494.239.617.617,0,0,0,.359-.117l3.55-2.512a.631.631,0,0,1,.725,0l3.55,2.512A.617.617,0,0,0,21.81,17a.607.607,0,0,0,.494-.239.587.587,0,0,0,.091-.534L21.033,12.14a.579.579,0,0,1,.22-.656l3.575-2.53a.584.584,0,0,0,.218-.665.6.6,0,0,0-.58-.4Z" transform="translate(106 659)" fill="#ff9500" fill-rule="evenodd"/>
    <path id="Favorites-3" data-name="Favorites" d="M20.06,7.887a.611.611,0,0,1-.582-.41L18.121,3.41a.619.619,0,0,0-1.165,0L15.6,7.478a.611.611,0,0,1-.582.41H10.611a.6.6,0,0,0-.58.4.584.584,0,0,0,.218.665l3.575,2.53a.579.579,0,0,1,.22.656l-1.363,4.086a.587.587,0,0,0,.091.534.607.607,0,0,0,.494.239.617.617,0,0,0,.359-.117l3.55-2.512a.631.631,0,0,1,.725,0l3.55,2.512A.617.617,0,0,0,21.81,17a.607.607,0,0,0,.494-.239.587.587,0,0,0,.091-.534L21.033,12.14a.579.579,0,0,1,.22-.656l3.575-2.53a.584.584,0,0,0,.218-.665.6.6,0,0,0-.58-.4Z" transform="translate(126 659)" fill="#ff9500" fill-rule="evenodd"/>
    <path id="Favorites-4" data-name="Favorites" d="M20.06,7.887a.611.611,0,0,1-.582-.41L18.121,3.41a.619.619,0,0,0-1.165,0L15.6,7.478a.611.611,0,0,1-.582.41H10.611a.6.6,0,0,0-.58.4.584.584,0,0,0,.218.665l3.575,2.53a.579.579,0,0,1,.22.656l-1.363,4.086a.587.587,0,0,0,.091.534.607.607,0,0,0,.494.239.617.617,0,0,0,.359-.117l3.55-2.512a.631.631,0,0,1,.725,0l3.55,2.512A.617.617,0,0,0,21.81,17a.607.607,0,0,0,.494-.239.587.587,0,0,0,.091-.534L21.033,12.14a.579.579,0,0,1,.22-.656l3.575-2.53a.584.584,0,0,0,.218-.665.6.6,0,0,0-.58-.4Z" transform="translate(146 659)" fill="#ff9500" fill-rule="evenodd"/>
    <path id="Favorites-5" data-name="Favorites" d="M20.06,7.887a.611.611,0,0,1-.582-.41L18.121,3.41a.619.619,0,0,0-1.165,0L15.6,7.478a.611.611,0,0,1-.582.41H10.611a.6.6,0,0,0-.58.4.584.584,0,0,0,.218.665l3.575,2.53a.579.579,0,0,1,.22.656l-1.363,4.086a.587.587,0,0,0,.091.534.607.607,0,0,0,.494.239.617.617,0,0,0,.359-.117l3.55-2.512a.631.631,0,0,1,.725,0l3.55,2.512A.617.617,0,0,0,21.81,17a.607.607,0,0,0,.494-.239.587.587,0,0,0,.091-.534L21.033,12.14a.579.579,0,0,1,.22-.656l3.575-2.53a.584.584,0,0,0,.218-.665.6.6,0,0,0-.58-.4Z" transform="translate(166 659)" fill="#d9d9d9" fill-rule="evenodd"/>
  </g>
</svg>
