<svg width="36" height="36" viewBox="0 0 36 36" fill="none" xmlns="http://www.w3.org/2000/svg">
<path d="M18 36C27.9411 36 36 27.9411 36 18C36 8.05887 27.9411 0 18 0C8.05887 0 0 8.05887 0 18C0 27.9411 8.05887 36 18 36Z" fill="#291150" fill-opacity="0.12"/>
<path fill-rule="evenodd" clip-rule="evenodd" d="M12.3437 12.3437C13.8437 10.843 15.8783 10 18 10C20.1217 10 22.1564 10.843 23.6563 12.3437C25.157 13.8437 26 15.8783 26 18C26 20.1217 25.157 22.1564 23.6563 23.6563C22.1563 25.157 20.1217 26 18 26C15.8783 26 13.8436 25.157 12.3437 23.6563C10.843 22.1563 10 20.1217 10 18C10 15.8783 10.843 13.8436 12.3437 12.3437ZM20.4 19.5995C20.7585 19.6182 21.0855 19.3962 21.2002 19.0557L21.2002 19.0557C21.267 18.8488 21.2467 18.6238 21.144 18.4318C21.0412 18.2405 20.865 18.0988 20.6557 18.0395H20.6565L18.8003 17.4238V14.0002C18.8003 13.5584 18.4418 13.1999 18.0001 13.1999C17.5583 13.1999 17.1998 13.5584 17.1998 14.0002V17.9998C17.1991 18.344 17.4181 18.65 17.7443 18.7595L20.1442 19.5597C20.2275 19.5845 20.313 19.5972 20.4 19.5995Z" fill="#4D8D6E"/>
</svg>
